<svg xmlns="http://www.w3.org/2000/svg" fill="none" viewBox="0 0 336 283" class="icon"><circle cx="23.5" cy="259.5" r="23.5" fill="#0144EF" fill-opacity=".2"></circle><path stroke="#0144EF" stroke-linecap="round" stroke-linejoin="round" stroke-width="1.5" d="M24.53 268.84h-6.32c-3.16 0-4.21-2.1-4.21-4.21v-8.42c0-3.16 1.05-4.21 4.21-4.21h6.32c3.16 0 4.21 1.05 4.21 4.21v8.42c0 3.16-1.06 4.21-4.21 4.21Z"></path><path fill="#0052CC" d="m31.52 265.52-2.78-1.95v-6.31l2.78-1.95c1.36-.95 2.48-.37 2.48 1.3v7.62c0 1.67-1.12 2.25-2.48 1.29Z"></path><path stroke="#0052CC" stroke-linecap="round" stroke-linejoin="round" stroke-width="1.5" d="M23.5 259.42a1.5 1.5 0 1 0 0-3 1.5 1.5 0 0 0 0 3Z"></path><circle cx="81.243" cy="259.5" r="23.5" fill="#50CD8B" fill-opacity=".2"></circle><path fill="#50CD8B" stroke="#50CD8B" stroke-linecap="round" stroke-linejoin="round" stroke-width="1.5" d="M89.743 256.25V266c0 3-1.79 4-4 4h-8c-2.21 0-4-1-4-4v-9.75c0-3.25 1.79-4 4-4 0 .62.25 1.18.66 1.59.41.41.97.66 1.59.66h3.5c1.24 0 2.25-1.01 2.25-2.25 2.21 0 4 .75 4 4Z"></path><path fill="#DCF5E8" stroke="#50CD8B" stroke-linecap="round" stroke-linejoin="round" stroke-width="1.5" d="M85.743 252.25c0 1.24-1.01 2.25-2.25 2.25h-3.5c-.62 0-1.18-.25-1.59-.66-.41-.41-.66-.97-.66-1.59 0-1.24 1.01-2.25 2.25-2.25h3.5c.62 0 1.18.25 1.59.66.41.41.66.97.66 1.59Z"></path><path stroke="#DCF5E8" stroke-linecap="round" stroke-linejoin="round" stroke-width="1.5" d="M77.743 261h4M77.743 265h8"></path><circle cx="138.986" cy="259.5" r="23.5" fill="#FFA8BE" fill-opacity=".2"></circle><path fill="#FFA8BE" stroke="#FFA8BE" stroke-linecap="round" stroke-linejoin="round" stroke-miterlimit="10" stroke-width="1.5" d="M144.486 268.5h-10c-3 0-5-1.5-5-5v-7c0-3.5 2-5 5-5h10c3 0 5 1.5 5 5v7c0 3.5-2 5-5 5Z"></path><path stroke="#FFEEF2" stroke-linecap="round" stroke-linejoin="round" stroke-miterlimit="10" stroke-width="1.5" d="m144.486 257-3.13 2.5c-1.03.82-2.72.82-3.75 0l-3.12-2.5"></path><circle cx="196.729" cy="259.5" r="23.5" fill="#EBBD18" fill-opacity=".2"></circle><path fill="#EBBD18" stroke="#EBBD18" stroke-width="1.5" d="M188.471 256.49c1.97-8.66 14.8-8.65 16.76.01 1.15 5.08-2.01 9.38-4.78 12.04a5.193 5.193 0 0 1-7.21 0c-2.76-2.66-5.92-6.97-4.77-12.05Z"></path><path stroke="#FBF2D1" stroke-linecap="round" stroke-linejoin="round" stroke-width="1.5" d="m194.101 259.5 1.5 1.5 4-4"></path><circle cx="254.471" cy="259.5" r="23.5" fill="#7879F1" fill-opacity=".2"></circle><path fill="#7879F1" stroke="#7879F1" stroke-linecap="round" stroke-linejoin="round" stroke-miterlimit="10" stroke-width="1.5" d="M249.971 260c-4 0-4 1.79-4 4v1c0 2.76 0 5 5 5h8c4 0 5-2.24 5-5v-1c0-2.21 0-4-4-4-1 0-1.28.21-1.8.6l-1.02 1.08a2.999 2.999 0 0 1-4.37 0l-1.01-1.08c-.52-.39-.8-.6-1.8-.6Z"></path><path stroke="#7879F1" stroke-linecap="round" stroke-linejoin="round" stroke-miterlimit="10" stroke-width="1.5" d="M261.971 260v-6c0-2.21 0-4-4-4h-6c-4 0-4 1.79-4 4v6"></path><path stroke="#7879F1" stroke-linecap="round" stroke-linejoin="round" stroke-width="1.5" d="M253.521 257.23h3.33M252.691 254.23h5"></path><circle cx="312.214" cy="259.5" r="23.5" fill="#FC445A" fill-opacity=".2"></circle><path stroke="#FC445A" stroke-linecap="round" stroke-linejoin="round" stroke-miterlimit="10" stroke-width="1.5" d="m314.714 264.16-3.96-3.96M314.674 260.24l-3.96 3.96"></path><path fill="#FC445A" stroke="#FC445A" stroke-linecap="round" stroke-linejoin="round" stroke-miterlimit="10" stroke-width="1.5" d="M310.714 254h4c2 0 2-1 2-2 0-2-1-2-2-2h-4c-1 0-2 0-2 2s1 2 2 2Z"></path><path stroke="#FC445A" stroke-linecap="round" stroke-linejoin="round" stroke-miterlimit="10" stroke-width="1.5" d="M316.714 252.02c3.33.18 5 1.41 5 5.98v6c0 4-1 6-6 6h-6c-5 0-6-2-6-6v-6c0-4.56 1.67-5.8 5-5.98"></path><path fill="url(#a)" d="M26.52 79.01H18v34.446h8.52V79.01Z" style="mix-blend-mode:overlay;"></path><path fill="url(#b)" d="M56.673 150.386h-8.52v34.445h8.52v-34.445Z" style="mix-blend-mode:overlay;"></path><path fill="url(#c)" d="M89.493 143.131h-8.52v34.445h8.52v-34.445Z" style="mix-blend-mode:overlay;"></path><path fill="url(#d)" d="M89.493 114.688h-8.52v16h8.52v-16Z" style="mix-blend-mode:overlay;"></path><path fill="url(#e)" d="M89.493 71h-8.52v16h8.52V71Z" style="mix-blend-mode:overlay;"></path><path fill="url(#f)" d="M177.74 176.821h8.519v-34.446h-8.519v34.446Z" style="mix-blend-mode:overlay;"></path><path fill="url(#g)" d="M147.576 105.465h8.52V71.02h-8.52v34.445Z" style="mix-blend-mode:overlay;"></path><path fill="url(#h)" d="M114.767 112.7h8.519V78.255h-8.519V112.7Z" style="mix-blend-mode:overlay;"></path><path fill="url(#i)" d="M114.767 141.163h8.519v-16h-8.519v16Z" style="mix-blend-mode:overlay;"></path><path fill="url(#j)" d="M114.767 184.811h8.519v-16h-8.519v16Z" style="mix-blend-mode:overlay;"></path><path fill="url(#k)" d="M216.984 143.131h-8.52v34.445h8.52v-34.445Z" style="mix-blend-mode:overlay;"></path><path fill="url(#l)" d="M216.984 114.688h-8.52v16h8.52v-16Z" style="mix-blend-mode:overlay;"></path><path fill="url(#m)" d="M216.984 71h-8.52v16h8.52V71Z" style="mix-blend-mode:overlay;"></path><path fill="url(#n)" d="M305.231 176.821h8.519v-34.446h-8.519v34.446Z" style="mix-blend-mode:overlay;"></path><path fill="url(#o)" d="M275.078 105.465h8.52V71.02h-8.52v34.445Z" style="mix-blend-mode:overlay;"></path><path fill="url(#p)" d="M242.268 112.7h8.52V78.255h-8.52V112.7Z" style="mix-blend-mode:overlay;"></path><path fill="url(#q)" d="M242.268 141.163h8.52v-16h-8.52v16Z" style="mix-blend-mode:overlay;"></path><path fill="url(#r)" d="M242.268 184.811h8.52v-16h-8.52v16Z" style="mix-blend-mode:overlay;"></path><g filter="url(#s)"><path fill="#0052CC" d="m202.009 121.136 73.158 12.99c4.841.858 9.189-3.092 8.817-8.002l-3.112-41.752c-.328-4.503-3.683-8.201-8.126-8.99L236.785 69l-22.847 46.099A11.152 11.152 0 0 1 202 121.136h.009Z"></path><path fill="#003583" d="m202.002 120.966 67.41 11.969c4.08.727 7.737-2.599 7.434-6.73l-2.775-37.17a7.54 7.54 0 0 0-6.198-6.868l-34.647-6.148-19.286 38.911a11.152 11.152 0 0 1-11.938 6.036Z"></path><path fill="#FEFEFE" d="m201.449 70.372-13.312 75.233c-1.159 6.538 3.189 12.757 9.707 13.917l37.543 6.669c6.518 1.16 12.734-3.196 13.892-9.726l13.312-75.233-61.142-10.86Z"></path><path fill="#D8DADB" d="M245.229 123.041c2.468-13.95-2.734-26.537-11.619-28.115-8.885-1.577-18.088 8.452-20.555 22.402-2.468 13.95 2.734 26.538 11.619 28.115 8.884 1.578 18.087-8.452 20.555-22.402Z"></path><path fill="#D8DADB" d="m233.614 94.937-8.935 50.508 15.551 2.761 8.935-50.508-15.551-2.761Z"></path><path fill="#1FCE00" d="M256.689 99.099c.172-1.468-.653-2.772-1.843-2.912-1.19-.14-2.295.937-2.467 2.405-.172 1.467.653 2.771 1.843 2.911 1.191.14 2.295-.936 2.467-2.404Z"></path><path fill="#FEFEFE" d="M260.255 125.702c2.467-13.95-2.494-26.494-11.083-28.02-8.589-1.524-17.552 8.548-20.019 22.498-2.468 13.95 2.494 26.495 11.082 28.02 8.589 1.525 17.552-8.548 20.02-22.498Z"></path><path fill="#474747" d="M254.889 124.749c1.732-9.791-1.185-18.496-6.516-19.442-5.331-.947-11.057 6.223-12.789 16.014-1.732 9.792 1.186 18.496 6.516 19.443 5.331.946 11.057-6.224 12.789-16.015Z"></path><path fill="#F5F5F5" d="m72.915 185.564 2.187 13.242 31.69-5.223 3.968-.658 6.423-1.048-2.178-13.259-6.406 1.057-3.976.658-31.708 5.231Z"></path><path fill="#F5F5F5" d="m124.048 189.897 30.827-29.544-9.268-9.706-30.827 29.544 9.268 9.706Z"></path><path fill="#424242" d="M104.277 181.831a15.913 15.913 0 0 0 2.515 11.752l3.968-.658a12.353 12.353 0 0 1-2.991-10.47 12.29 12.29 0 0 1 .839-2.78l-3.977.658c-.147.494-.25.996-.346 1.498h-.008Z" opacity=".08"></path><path fill="#FEFEFE" d="M107.769 182.455a12.394 12.394 0 0 0 2.991 10.47 12.285 12.285 0 0 0 7.037 3.923c6.751 1.195 13.174-3.299 14.376-10.063 1.201-6.764-3.303-13.19-10.045-14.385-5.757-1.022-11.299 2.122-13.529 7.275a12.34 12.34 0 0 0-.838 2.78h.008Z"></path><path fill="#E5E5E5" d="M119.967 189.677a5.044 5.044 0 0 0 5.039-5.049 5.044 5.044 0 0 0-5.039-5.049 5.045 5.045 0 0 0-5.04 5.049 5.044 5.044 0 0 0 5.04 5.049Z"></path><path fill="#AFAFAF" d="M69.777 224.787h10.892v-61.125H69.777v61.125Z"></path><path fill="#F5F5F5" d="m87.204 218.239-6.535 6.548v-61.125l6.535 6.547v48.03ZM73.796 47.708l-12.785 72.271c-1.443 8.158 3.994 15.952 12.137 17.398l124.705 22.145c-6.518-1.16-10.866-7.379-9.708-13.917l13.313-75.233L73.796 47.708Z"></path><path fill="#E5E5E5" d="m53.145 100.848 145.771 25.886c4.815.857 9.613-1.576 11.791-5.967l1.842-3.716a11.087 11.087 0 0 1-10.538 3.915L54.433 94.76c-3.173-.563-5.446-2.997-6.051-5.872l-.709 1.559c-2.014 4.434.691 9.552 5.472 10.401ZM105.402 119.277l80.973 14.377.95-5.373-80.973-14.377-.95 5.373ZM129.643 132.449l55.208 9.803.95-5.373-55.207-9.802-.951 5.372Z"></path><path fill="#FEFEFE" d="m162.99 167.741 17.168 3.048a4.556 4.556 0 0 0 5.29-3.706l1.677-9.466-17.168-3.049-1.677 9.466a4.556 4.556 0 0 1-5.29 3.707Z"></path><path fill="#F5F5F5" d="m112.031 144.28-1.677 9.466a4.563 4.563 0 0 0 3.7 5.3l48.936 8.686a4.555 4.555 0 0 0 5.29-3.707l1.677-9.465-57.926-10.289v.009Z"></path><path fill="#E5E5E5" d="m111.461 147.512 75.091 13.333.57-3.223-75.091-13.333-.57 3.223Z"></path><path fill="#0052CC" d="M48.373 88.88c.605 2.874 2.879 5.308 6.051 5.87l147.578 26.207c4.02.71 8.048-.84 10.538-3.914.052-.044.095-.104.138-.156.484-.598.908-1.256 1.254-1.975l19.286-38.91 3.561-7.198-160.19-28.432a9.526 9.526 0 0 0-10.34 5.448l-1.598 3.516L48.89 84.22a7.52 7.52 0 0 0-.518 4.668v-.009Z"></path></g><defs><linearGradient id="a" x1="22.255" x2="22.255" y1="57.822" y2="126.912" gradientUnits="userSpaceOnUse"><stop stop-color="#fff"></stop><stop offset="1" stop-color="#B9BABC" stop-opacity="0"></stop></linearGradient><linearGradient id="b" x1="52.418" x2="52.418" y1="129.178" y2="198.287" gradientUnits="userSpaceOnUse"><stop stop-color="#fff"></stop><stop offset="1" stop-color="#B9BABC" stop-opacity="0"></stop></linearGradient><linearGradient id="c" x1="85.228" x2="85.228" y1="121.943" y2="191.052" gradientUnits="userSpaceOnUse"><stop stop-color="#fff"></stop><stop offset="1" stop-color="#B9BABC" stop-opacity="0"></stop></linearGradient><linearGradient id="d" x1="85.228" x2="85.228" y1="104.829" y2="136.949" gradientUnits="userSpaceOnUse"><stop stop-color="#fff"></stop><stop offset="1" stop-color="#B9BABC" stop-opacity="0"></stop></linearGradient><linearGradient id="e" x1="85.228" x2="85.228" y1="61.161" y2="93.261" gradientUnits="userSpaceOnUse"><stop stop-color="#fff"></stop><stop offset="1" stop-color="#B9BABC" stop-opacity="0"></stop></linearGradient><linearGradient id="f" x1="181.994" x2="181.994" y1="198.029" y2="128.919" gradientUnits="userSpaceOnUse"><stop stop-color="#fff"></stop><stop offset="1" stop-color="#B9BABC" stop-opacity="0"></stop></linearGradient><linearGradient id="g" x1="151.831" x2="151.831" y1="126.653" y2="57.544" gradientUnits="userSpaceOnUse"><stop stop-color="#fff"></stop><stop offset="1" stop-color="#B9BABC" stop-opacity="0"></stop></linearGradient><linearGradient id="h" x1="119.032" x2="119.032" y1="133.908" y2="64.799" gradientUnits="userSpaceOnUse"><stop stop-color="#fff"></stop><stop offset="1" stop-color="#B9BABC" stop-opacity="0"></stop></linearGradient><linearGradient id="i" x1="119.032" x2="119.032" y1="151.002" y2="118.902" gradientUnits="userSpaceOnUse"><stop stop-color="#fff"></stop><stop offset="1" stop-color="#B9BABC" stop-opacity="0"></stop></linearGradient><linearGradient id="j" x1="119.032" x2="119.032" y1="194.67" y2="162.57" gradientUnits="userSpaceOnUse"><stop stop-color="#fff"></stop><stop offset="1" stop-color="#B9BABC" stop-opacity="0"></stop></linearGradient><linearGradient id="k" x1="212.729" x2="212.729" y1="121.943" y2="191.052" gradientUnits="userSpaceOnUse"><stop stop-color="#fff"></stop><stop offset="1" stop-color="#B9BABC" stop-opacity="0"></stop></linearGradient><linearGradient id="l" x1="212.729" x2="212.729" y1="104.829" y2="136.949" gradientUnits="userSpaceOnUse"><stop stop-color="#fff"></stop><stop offset="1" stop-color="#B9BABC" stop-opacity="0"></stop></linearGradient><linearGradient id="m" x1="212.729" x2="212.729" y1="61.161" y2="93.261" gradientUnits="userSpaceOnUse"><stop stop-color="#fff"></stop><stop offset="1" stop-color="#B9BABC" stop-opacity="0"></stop></linearGradient><linearGradient id="n" x1="309.485" x2="309.485" y1="198.029" y2="128.919" gradientUnits="userSpaceOnUse"><stop stop-color="#fff"></stop><stop offset="1" stop-color="#B9BABC" stop-opacity="0"></stop></linearGradient><linearGradient id="o" x1="279.332" x2="279.332" y1="126.653" y2="57.544" gradientUnits="userSpaceOnUse"><stop stop-color="#fff"></stop><stop offset="1" stop-color="#B9BABC" stop-opacity="0"></stop></linearGradient><linearGradient id="p" x1="246.523" x2="246.523" y1="133.908" y2="64.799" gradientUnits="userSpaceOnUse"><stop stop-color="#fff"></stop><stop offset="1" stop-color="#B9BABC" stop-opacity="0"></stop></linearGradient><linearGradient id="q" x1="246.523" x2="246.523" y1="151.002" y2="118.902" gradientUnits="userSpaceOnUse"><stop stop-color="#fff"></stop><stop offset="1" stop-color="#B9BABC" stop-opacity="0"></stop></linearGradient><linearGradient id="r" x1="246.523" x2="246.523" y1="194.67" y2="162.57" gradientUnits="userSpaceOnUse"><stop stop-color="#fff"></stop><stop offset="1" stop-color="#B9BABC" stop-opacity="0"></stop></linearGradient><filter id="s" width="317.006" height="264.562" x="7" y=".225" color-interpolation-filters="sRGB" filterUnits="userSpaceOnUse"><feFlood flood-opacity="0" result="BackgroundImageFix"></feFlood><feColorMatrix in="SourceAlpha" result="hardAlpha" values="0 0 0 0 0 0 0 0 0 0 0 0 0 0 0 0 0 0 127 0"></feColorMatrix><feMorphology in="SourceAlpha" operator="dilate" radius="10" result="effect1_dropShadow_1078_178"></feMorphology><feOffset></feOffset><feGaussianBlur stdDeviation="15"></feGaussianBlur><feComposite in2="hardAlpha" operator="out"></feComposite><feColorMatrix values="0 0 0 0 0.570833 0 0 0 0 0.570833 0 0 0 0 0.570833 0 0 0 0.14 0"></feColorMatrix><feBlend in2="BackgroundImageFix" result="effect1_dropShadow_1078_178"></feBlend><feBlend in="SourceGraphic" in2="effect1_dropShadow_1078_178" result="shape"></feBlend></filter></defs></svg>