<svg xmlns="http://www.w3.org/2000/svg" fill="none" viewBox="0 0 707 437" class="icon"><path fill="#7879F1" d="M665.983 333.965c17.242-31.832 19.789-68.195 15.743-103.294-3.586-31.135-9-66.851-24.144-94.948-38.36-71.193-135.329-104.598-214.066-83.195-32.836 8.925-55.872 29.631-82.244 49.322-19.49 14.561-40.887 28.784-66.071 31.692-60.327 6.972-128.985-49.8-186.195-44.82-57.21 4.98-101.943 55.776-104.021 99.6-2.078 43.823 41.606 88.642 37.45 118.522-4.165 29.88-31.207 109.559 75.931 112.547 107.138 2.988 163.309-56.771 204.916-43.824 41.606 12.948 133.14 50.796 210.12 40.836 50.217-6.494 99.316-31.085 126.837-72.847a129.747 129.747 0 0 0 5.744-9.581v-.01Z"></path><path fill="#fff" d="M665.983 333.965c17.242-31.832 19.789-68.195 15.743-103.294-3.586-31.135-9-66.851-24.144-94.948-38.36-71.193-135.329-104.598-214.066-83.195-32.836 8.925-55.872 29.631-82.244 49.322-19.49 14.561-40.887 28.784-66.071 31.692-60.327 6.972-128.985-49.8-186.195-44.82-57.21 4.98-101.943 55.776-104.021 99.6-2.078 43.823 41.606 88.642 37.45 118.522-4.165 29.88-31.207 109.559 75.931 112.547 107.138 2.988 163.309-56.771 204.916-43.824 41.606 12.948 133.14 50.796 210.12 40.836 50.217-6.494 99.316-31.085 126.837-72.847a129.747 129.747 0 0 0 5.744-9.581v-.01Z" opacity=".8"></path><path stroke="#263238" stroke-linecap="round" stroke-linejoin="round" d="M1.718 436.502h698.449"></path><path stroke="#263238" stroke-linecap="round" stroke-miterlimit="10" d="M275.472 11.125S272.215 2.46 264.603.837c-7.602-1.624-10.599 2.978-12.227 6.772-1.629 3.795-6.523.817-10.599.27-4.076-.549-6.254 3.525-7.063 6.503-.819 2.978-5.974-1.354-10.599 1.355-4.615 2.709-5.434 6.234-6.523 7.041-1.089.807-4.076-.538-5.704 1.624l-1.628 2.171h85.031s2.717-6.235-2.448-10.836c-5.164-4.602-14.125 2.44-17.391-4.602l.02-.01ZM510.206 19.143s-5.714-15.209-19.06-18.057c-13.346-2.849-18.591 5.229-21.448 11.882-2.857 6.653-11.438 1.424-18.59.478-7.153-.946-10.959 6.175-12.387 11.404-1.429 5.229-10.489-2.38-18.591 2.38-8.101 4.751-9.53 10.926-11.438 12.35-1.908 1.425-7.152-.945-10.009 2.85l-2.857 3.804H544.99s4.765-10.926-4.286-19.004c-9.05-8.077-24.784 4.273-30.498-8.077v-.01ZM128.705 44.92s-2.247-5.977-7.492-7.092c-5.245-1.116-7.302 2.051-8.431 4.67-1.119 2.61-4.495.559-7.303.19-2.807-.369-4.305 2.43-4.864 4.482-.56 2.052-4.116-.936-7.303.936-3.186 1.863-3.746 4.293-4.495 4.85-.75.558-2.807-.368-3.936 1.116l-1.119 1.494h58.609s1.868-4.293-1.688-7.47c-3.557-3.177-9.74 1.684-11.988-3.177h.01ZM555.309 70.377s-2.248-5.976-7.492-7.092c-5.245-1.115-7.303 2.052-8.432 4.671-1.118 2.61-4.495.558-7.302.19-2.807-.379-4.305 2.43-4.865 4.481-.559 2.052-4.116-.936-7.302.937-3.187 1.862-3.746 4.293-4.496 4.85-.749.558-2.807-.368-3.935 1.116l-1.119 1.494h58.608s1.868-4.293-1.688-7.47c-3.556-3.177-9.74 1.683-11.987-3.177h.01Z"></path><path stroke="#263238" stroke-linecap="round" stroke-miterlimit="10" d="M46.521 270.122h29.55v-89.31h26.022V139.08h49.239v82.727h12.666V61.363h54.164v70.396h33.764V70.994h57.68v136.899h78.787v-81.801h51.457v82.538h31.547v9.511h19.689v-63.823h13.366v63.823h9.15v-67.348h14.775v64.42h18.281V106.87h33.065v71.014h18.99V71.731h46.432v214.496"></path><path stroke="#263238" stroke-linecap="round" stroke-miterlimit="10" d="M89.426 195.453h-5.624v7.32h5.624v-7.32ZM98.577 195.453h-5.624v7.32h5.624v-7.32ZM107.717 195.453h-5.624v7.32h5.624v-7.32ZM116.868 195.453h-5.625v7.32h5.625v-7.32ZM126.008 195.453h-5.624v7.32h5.624v-7.32ZM135.149 195.453h-5.625v7.32h5.625v-7.32ZM178.064 141.281h-5.625v7.321h5.625v-7.321ZM187.204 141.281h-5.624v7.321h5.624v-7.321ZM196.354 141.281h-5.624v7.321h5.624v-7.321ZM205.495 141.281h-5.624v7.321h5.624v-7.321ZM178.064 128.094h-5.625v7.321h5.625v-7.321ZM187.204 128.094h-5.624v7.321h5.624v-7.321ZM196.354 128.094h-5.624v7.321h5.624v-7.321ZM205.495 128.094h-5.624v7.321h5.624v-7.321ZM178.064 114.917h-5.625v7.321h5.625v-7.321ZM187.204 114.917h-5.624v7.321h5.624v-7.321ZM196.354 114.917h-5.624v7.321h5.624v-7.321ZM205.495 114.917h-5.624v7.321h5.624v-7.321ZM178.064 101.74h-5.625v7.321h5.625v-7.321ZM187.204 101.74h-5.624v7.321h5.624v-7.321ZM196.354 101.74h-5.624v7.321h5.624v-7.321ZM205.495 101.74h-5.624v7.321h5.624v-7.321ZM178.064 88.563h-5.625v7.32h5.625v-7.32ZM187.204 88.563h-5.624v7.32h5.624v-7.32ZM196.354 88.563h-5.624v7.32h5.624v-7.32ZM205.495 88.563h-5.624v7.32h5.624v-7.32ZM214.635 141.281h-5.624v7.321h5.624v-7.321ZM223.786 141.281h-5.624v7.321h5.624v-7.321ZM178.064 155.922h-5.625v7.32h5.625v-7.32ZM187.204 155.922h-5.624v7.32h5.624v-7.32ZM196.354 155.922h-5.624v7.32h5.624v-7.32ZM205.495 155.922h-5.624v7.32h5.624v-7.32ZM214.635 155.922h-5.624v7.32h5.624v-7.32ZM223.786 155.922h-5.624v7.32h5.624v-7.32ZM89.426 210.821h-5.624v7.32h5.624v-7.32ZM98.577 210.821h-5.624v7.32h5.624v-7.32ZM107.717 210.821h-5.624v7.32h5.624v-7.32ZM116.868 210.821h-5.625v7.32h5.625v-7.32ZM126.008 210.821h-5.624v7.32h5.624v-7.32ZM135.149 210.821h-5.625v7.32h5.625v-7.32ZM89.426 226.199h-5.624v7.32h5.624v-7.32ZM98.577 226.199h-5.624v7.32h5.624v-7.32ZM107.717 226.199h-5.624v7.32h5.624v-7.32ZM116.868 226.199h-5.625v7.32h5.625v-7.32ZM126.008 226.199h-5.624v7.32h5.624v-7.32ZM135.149 226.199h-5.625v7.32h5.625v-7.32ZM89.426 241.567h-5.624v7.32h5.624v-7.32ZM98.577 241.567h-5.624v7.32h5.624v-7.32ZM107.717 241.567h-5.624v7.32h5.624v-7.32ZM116.868 241.567h-5.625v7.32h5.625v-7.32ZM126.008 241.567h-5.624v7.32h5.624v-7.32ZM135.149 241.567h-5.625v7.32h5.625v-7.32ZM89.426 256.945h-5.624v7.321h5.624v-7.321ZM98.577 256.945h-5.624v7.321h5.624v-7.321ZM107.717 256.945h-5.624v7.321h5.624v-7.321ZM116.868 256.945h-5.625v7.321h5.625v-7.321ZM126.008 256.945h-5.624v7.321h5.624v-7.321ZM135.149 256.945h-5.625v7.321h5.625v-7.321ZM621.929 87.1h-5.624v7.32h5.624V87.1ZM631.069 87.1h-5.624v7.32h5.624V87.1ZM640.21 87.1h-5.624v7.32h5.624V87.1ZM621.929 105.406h-5.624v7.32h5.624v-7.32ZM631.069 105.406h-5.624v7.32h5.624v-7.32ZM640.21 105.406h-5.624v7.32h5.624v-7.32ZM621.929 123.702h-5.624v7.32h5.624v-7.32ZM631.069 123.702h-5.624v7.32h5.624v-7.32ZM640.21 123.702h-5.624v7.32h5.624v-7.32ZM621.929 142.008h-5.624v7.321h5.624v-7.321ZM631.069 142.008h-5.624v7.321h5.624v-7.321ZM640.21 142.008h-5.624v7.321h5.624v-7.321ZM621.929 160.314h-5.624v7.321h5.624v-7.321ZM631.069 160.314h-5.624v7.321h5.624v-7.321ZM640.21 160.314h-5.624v7.321h5.624v-7.321ZM621.929 178.611h-5.624v7.32h5.624v-7.32ZM631.069 178.611h-5.624v7.32h5.624v-7.32ZM640.21 178.611h-5.624v7.32h5.624v-7.32ZM621.929 196.917h-5.624v7.32h5.624v-7.32ZM631.069 196.917h-5.624v7.32h5.624v-7.32ZM640.21 196.917h-5.624v7.32h5.624v-7.32ZM621.929 215.213h-5.624v7.321h5.624v-7.321ZM631.069 215.213h-5.624v7.321h5.624v-7.321ZM640.21 215.213h-5.624v7.321h5.624v-7.321ZM621.929 233.52h-5.624v7.32h5.624v-7.32ZM631.069 233.52h-5.624v7.32h5.624v-7.32ZM562.052 123.702h-5.625v7.32h5.625v-7.32ZM571.202 123.702h-5.624v7.32h5.624v-7.32ZM562.052 142.008h-5.625v7.321h5.625v-7.321ZM571.202 142.008h-5.624v7.321h5.624v-7.321ZM562.052 160.314h-5.625v7.321h5.625v-7.321ZM571.202 160.314h-5.624v7.321h5.624v-7.321ZM562.052 178.611h-5.625v7.32h5.625v-7.32ZM571.202 178.611h-5.624v7.32h5.624v-7.32ZM562.052 196.917h-5.625v7.32h5.625v-7.32ZM571.202 196.917h-5.624v7.32h5.624v-7.32ZM562.052 215.213h-5.625v7.321h5.625v-7.321ZM571.202 215.213h-5.624v7.321h5.624v-7.321ZM562.052 233.52h-5.625v7.32h5.625v-7.32ZM571.202 233.52h-5.624v7.32h5.624v-7.32ZM400.89 142.008h-5.624v7.321h5.624v-7.321ZM410.031 142.008h-5.624v7.321h5.624v-7.321ZM400.89 160.314h-5.624v7.321h5.624v-7.321ZM410.031 160.314h-5.624v7.321h5.624v-7.321ZM400.89 178.611h-5.624v7.32h5.624v-7.32ZM410.031 178.611h-5.624v7.32h5.624v-7.32ZM400.89 196.917h-5.624v7.32h5.624v-7.32ZM410.031 196.917h-5.624v7.32h5.624v-7.32ZM400.89 215.213h-5.624v7.321h5.624v-7.321ZM410.031 215.213h-5.624v7.321h5.624v-7.321ZM400.89 233.52h-5.624v7.32h5.624v-7.32ZM410.031 233.52h-5.624v7.32h5.624v-7.32ZM421.599 142.008h-5.624v7.321h5.624v-7.321ZM430.739 142.008h-5.624v7.321h5.624v-7.321ZM421.599 160.314h-5.624v7.321h5.624v-7.321ZM430.739 160.314h-5.624v7.321h5.624v-7.321ZM421.599 178.611h-5.624v7.32h5.624v-7.32ZM430.739 178.611h-5.624v7.32h5.624v-7.32ZM421.599 196.917h-5.624v7.32h5.624v-7.32ZM430.739 196.917h-5.624v7.32h5.624v-7.32ZM421.599 215.213h-5.624v7.321h5.624v-7.321ZM430.739 215.213h-5.624v7.321h5.624v-7.321ZM421.599 233.52h-5.624v7.32h5.624v-7.32ZM430.739 233.52h-5.624v7.32h5.624v-7.32ZM277.849 87.1h-5.624v7.32h5.624V87.1ZM287 87.1h-5.625v7.32H287V87.1ZM277.849 105.406h-5.624v7.32h5.624v-7.32ZM287 105.406h-5.625v7.32H287v-7.32ZM277.849 123.702h-5.624v7.32h5.624v-7.32ZM287 123.702h-5.625v7.32H287v-7.32ZM277.849 142.008h-5.624v7.321h5.624v-7.321ZM287 142.008h-5.625v7.321H287v-7.321ZM277.849 160.314h-5.624v7.321h5.624v-7.321ZM287 160.314h-5.625v7.321H287v-7.321ZM277.849 178.611h-5.624v7.32h5.624v-7.32ZM287 178.611h-5.625v7.32H287v-7.32ZM277.849 196.917h-5.624v7.32h5.624v-7.32ZM287 196.917h-5.625v7.32H287v-7.32ZM277.849 215.213h-5.624v7.321h5.624v-7.321ZM287 215.213h-5.625v7.321H287v-7.321ZM277.849 233.52h-5.624v7.32h5.624v-7.32ZM287 233.52h-5.625v7.32H287v-7.32ZM640.21 233.52h-5.624v7.32h5.624v-7.32Z"></path><path fill="#7879F1" d="M620.541 352.202c0 27.937-15.714 30.049-35.104 30.049-19.389 0-35.103-2.112-35.103-30.049 0-27.938 15.714-86.343 35.103-86.343 19.39 0 35.104 58.405 35.104 86.343Z"></path><path fill="#fff" d="M620.541 352.202c0 27.937-15.714 30.049-35.104 30.049-19.389 0-35.103-2.112-35.103-30.049 0-27.938 15.714-86.343 35.103-86.343 19.39 0 35.104 58.405 35.104 86.343Z" opacity=".58"></path><path fill="#263238" d="m597.305 364.881-5.804.398 15.124-10.159-10.799 5.438 1.479-4.253-4.935 5.996-5.794 2.918-.459-20.069 3.066-7.42-3.136 4.173-.27-11.633 9.62-12.788-9.69 9.89-.579-25.607-.52 16.394-6.173-6.863 6.073 10.01-.819 25.956-5.374-3.506-4.895-8.645 1.958 6.742-9.6-6.264 17.791 15.298-2.697 85.207h7.332l-1.548-67.558 1.688-1.135 8.961-2.52Z"></path><path fill="#7879F1" d="M707 301.197c0 44.929-25.274 48.325-56.441 48.325s-56.441-3.396-56.441-48.325 25.274-138.841 56.441-138.841S707 256.278 707 301.197Z"></path><path fill="#fff" d="M707 301.197c0 44.929-25.274 48.325-56.441 48.325s-56.441-3.396-56.441-48.325 25.274-138.841 56.441-138.841S707 256.278 707 301.197Z" opacity=".31"></path><path fill="#263238" d="m669.639 321.585-9.33.637 24.314-16.344-17.371 8.755 2.387-6.842-7.942 9.641-9.31 4.691-.739-32.26 4.935-11.942-5.055 6.713-.43-18.705 15.464-20.557-15.573 15.896-.939-41.174-.84 26.354-9.919-11.036 9.76 16.095-1.319 41.742-8.631-5.627-7.872-13.914 3.157 10.836-15.454-10.069 28.62 24.611-4.335 137.008h11.787l-2.497-108.633 2.727-1.822 14.405-4.054Z"></path><path fill="#7879F1" d="M86.08 352.202c0 27.937 15.713 30.049 35.103 30.049s35.103-2.112 35.103-30.049c0-27.938-15.713-86.343-35.103-86.343S86.08 324.264 86.08 352.202Z"></path><path fill="#fff" d="M86.08 352.202c0 27.937 15.713 30.049 35.103 30.049s35.103-2.112 35.103-30.049c0-27.938-15.713-86.343-35.103-86.343S86.08 324.264 86.08 352.202Z" opacity=".58"></path><path fill="#263238" d="m109.316 364.881 5.804.398-15.125-10.159 10.799 5.438-1.478-4.253 4.934 5.996 5.794 2.918.46-20.069-3.067-7.42 3.137 4.173.27-11.633-9.62-12.788 9.679 9.89.59-25.607.519 16.394 6.174-6.863-6.074 10.01.819 25.956 5.375-3.506 4.895-8.645-1.968 6.742 9.61-6.264-17.792 15.298 2.687 85.207h-7.322l1.548-67.558-1.688-1.135-8.96-2.52Z"></path><path fill="#7879F1" d="M0 301.645c0 44.78 25.184 48.156 56.251 48.156 31.068 0 56.251-3.376 56.251-48.156s-25.183-138.383-56.25-138.383C25.183 163.262 0 256.865 0 301.645Z"></path><path fill="#fff" d="M0 301.645c0 44.78 25.184 48.156 56.251 48.156 31.068 0 56.251-3.376 56.251-48.156s-25.183-138.383-56.25-138.383C25.183 163.262 0 256.865 0 301.645Z" opacity=".31"></path><path fill="#263238" d="m37.231 321.963 9.3.638-24.234-16.285 17.311 8.725-2.377-6.812 7.912 9.601 9.28 4.671.74-32.15-4.916-11.902 5.035 6.693.43-18.645-15.414-20.488 15.514 15.837.949-41.035.829 26.264 9.89-10.996-9.73 16.046 1.308 41.602 8.611-5.607 7.842-13.864-3.137 10.796 15.394-10.04-28.52 24.532 4.315 136.55H51.826l2.477-108.264-2.707-1.823-14.365-4.044Z"></path><path fill="#3D4039" d="M304.441 438.38c16.307 0 29.525-18.093 29.525-40.412 0-22.32-13.218-40.413-29.525-40.413-16.306 0-29.525 18.093-29.525 40.413 0 22.319 13.219 40.412 29.525 40.412Z"></path><path fill="#D6E3DD" d="M333.074 397.831c0 17.936-6.775 32.471-15.152 32.471-8.377 0-15.151-14.535-15.151-32.471 0-17.936 6.774-32.472 15.151-32.472 8.377 0 15.152 14.536 15.152 32.472Z"></path><path fill="#3D4039" d="M545.403 384.778c0 33.339-10.323 60.357-23.048 60.357-12.726 0-23.048-27.018-23.048-60.357 0-33.338 10.322-60.356 23.048-60.356 12.725 0 23.048 27.018 23.048 60.356Z"></path><path fill="#D6E3DD" d="M541.1 386.056c0 22.294-4.051 40.367-9.064 40.367-5.012 0-9.063-18.073-9.063-40.367 0-22.294 4.051-40.367 9.063-40.367 5.013 0 9.064 18.073 9.064 40.367Z"></path><path fill="#3D4039" d="M540.528 387.403c0 14.946-2.724 27.063-6.089 27.063-3.364 0-6.088-12.117-6.088-27.063 0-14.947 2.724-27.064 6.088-27.064 3.365 0 6.089 12.117 6.089 27.064Z"></path><path fill="#3D4039" d="M538.216 389.296c0 8.17-1.488 14.81-3.319 14.81s-3.319-6.618-3.319-14.81 1.488-14.809 3.319-14.809 3.319 6.617 3.319 14.809Z"></path><path fill="#3D4039" d="M540.413 383.113c0 9.857-2.861 17.844-6.408 17.844-3.548 0-6.409-7.987-6.409-17.844 0-9.858 2.861-17.845 6.409-17.845 3.547 0 6.408 7.987 6.408 17.845ZM169.839 454.901c23.208 0 42.022-25.745 42.022-57.504 0-31.758-18.814-57.504-42.022-57.504s-42.022 25.746-42.022 57.504c0 31.759 18.814 57.504 42.022 57.504Z"></path><path fill="#D6E3DD" d="M205.178 399.793c0 26.904-11.307 48.719-25.268 48.719-13.962 0-25.268-21.815-25.268-48.719 0-26.903 11.306-48.718 25.268-48.718 13.961 0 25.268 21.815 25.268 48.718Z"></path><path fill="#3D4039" d="M199.204 402.691c0 18.233-6.569 32.997-14.671 32.997s-14.671-14.764-14.671-32.997c0-18.232 6.569-32.996 14.671-32.996s14.671 14.764 14.671 32.996ZM442.797 454.126c21.148 0 38.291-25.746 38.291-57.505 0-31.758-17.143-57.504-38.291-57.504-21.147 0-38.291 25.746-38.291 57.504 0 31.759 17.144 57.505 38.291 57.505Z"></path><path fill="#D6E3DD" d="M475.229 396.348c0 22.568-8.308 40.869-18.562 40.869-10.254 0-18.562-18.301-18.562-40.869s8.308-40.869 18.562-40.869c10.254 0 18.562 18.301 18.562 40.869Z"></path><path fill="#3D4039" d="M472.849 396.256c0 17.959-6.615 32.54-14.786 32.54s-14.785-14.558-14.785-32.54c0-17.981 6.614-32.54 14.785-32.54s14.786 14.559 14.786 32.54Z"></path><path fill="#D6E3DD" d="m467.287 398.903 7.026 2.145-.183-10.953-5.744-.935 4.852-6.299-2.129-10.063-4.966 7.348c-1.03-3.217-2.472-5.728-4.166-7.188l-.961-14.81-8.858.183 2.632 14.992c-1.739 1.712-3.181 4.564-4.165 8.147l-8.057-8.489-2.128 11.295 8.857 7.531v.114c0 .639 0 1.278.046 1.894l-9.247-.731v9.356l10.346-.707c.045.205.114.388.16.57l-9.796 8.421 3.548 9.013 9.132-10.793c.412.593.847 1.118 1.281 1.551l-2.838 19.556 10.712.411-.321-19.944c.641-.639 1.236-1.415 1.808-2.35l7.141 8.557 2.472-11.113-6.82-5.02c.114-.548.229-1.141.32-1.712l.046.023ZM537.644 395.412l2.884 2.031.32-12.779-2.792 2.259 2.54-10.884-1.053-12.163-2.472 8.9c-.503-3.88-1.762-23.846-1.762-23.846l-4.669.251s-.778 20.856-1.259 25.169l-3.982-10.246-1.053 13.669s5.745 11.729 5.768 12.482l-5.951-1.826v11.319l5.127-.845c1.19-1.46-4.029 11.022-4.029 11.022l2.655 9.63 4.738-17.206c.206.708-1.831 20.286-1.831 20.286l4.486-1.072.481-18.37c.32-.753 1.945 11.41 1.945 11.41l2.129-11.569s-2.266-6.892-2.22-7.599v-.023Z"></path><path fill="#EEBB2D" d="M545.288 391.328s3.113-59.49-5.264-53.443c0 0-10.391 9.698-9.819 36.807 0 0 .595 32.472-12.954 35.073l-37.948 3.788s6.569-24.097-5.951-51.685c0 0-.961-47.555-14.785-28.273-.87 1.21-.961 1.917-2.403 5.408-4.189 10.292-12.337 34.297-11.17 63.46l-.068.251c-.138.594-.572 2.214-1.282 4.222v.091c-1.19 3.286-3.158 7.622-5.951 10.383 0 0-20.026.707-49.986 1.483-68.663 1.757-189.533 3.788-241.282-1.94-4.944-.525-9.247-1.163-12.817-1.848 0 0-4.257-6.777-6.111-14.057-.641-2.51-1.007-5.065-.801-7.393 0 0 .183-52.324 13.435-73.591 0 0-1.145-31.057 27.694-39.66 0 0 6.5-6.138 16.113-14.969 23.62-21.724 66.076-59.627 76.719-62.091 0 0 84.776-24.713 183.948-8.626 0 0 30.738-2.692 55.755 29.893 0 0 5.378 7.006 10.505 17.32 3.8 7.667 7.462 17.16 8.697 26.949l.206.206c1.58 1.688 12.474 13.554 14.397 18.004 2.243 5.157 7.69 31.399 10.185 42.717 0 0 13.938 43.95.938 61.498v.023Z"></path><path fill="#E59C0A" d="M519.288 269.04c-2.953 1.369-30.83 14.034-57.723 17.297-.046 0-.091 0-.137.046-.71.365-23.185 2.578-36.346-6.572a.405.405 0 0 1 0-.662c2.609-1.575 14.282-9.105 13.023-15.837a.419.419 0 0 0-.412-.319l-252.794 2.442a.387.387 0 0 1-.275-.662c23.758-21.815 65.436-58.965 75.987-61.406 0 0 84.731-24.713 183.903-8.626.023 0 31.036-2.693 55.8 29.893 0 0 16.204 21.108 19.18 43.972 0 .16-.069.343-.229.411l.023.023Z"></path><path fill="#111" d="m183.388 265.435-7.118 6.343-4.623-1.551 1.144-6.116c9.133-15.06 22.682-9.972 22.682-9.972l-12.085 11.296Z"></path><path fill="#000" d="m183.068 265.663-6.798 6.115s-4.646-.319-4.623-1.551c.092-4.336 1.19-6.07 1.19-6.07 2.06-1.963 10.231 1.483 10.231 1.483v.023Z"></path><path fill="#434443" d="M481.5 208.456s-30.28-22.317-29.685 2.396c0 0 5.333 64.258 15.907 74.595 0 0 44.86-8.785 51.451-16.042 2.381-2.624-18.31-49.951-37.65-60.949h-.023Z"></path><path fill="#D6E3DD" d="M457.285 228.947s-3.456-20.4 4.326-22.431c0 0 6.157-1.187 7.209.296 8.354 11.775 19.226 31.514 25.085 56.637 0 0-16.433 10.337-23.643 4.884-7.209-5.454-12.977-39.386-12.977-39.386Z"></path><path fill="#D6E3DD" d="M477.449 211.217s25.749 14.17 32.684 46.186c0 0-12.68 4.792-14.03 3.651-1.351-1.141-10.758-34.297-19.615-46.939 0 0-2.312-3.446.961-2.875v-.023Z"></path><path fill="#434443" d="M262.42 206.927c7.598-1.484 116.177-22.135 179.073-.092 1.899.662 3.158 2.465 3.204 4.473.275 12.505.481 55.792-9.888 51.868 0 0-181.293-.89-231.394.821-4.417.16-6.752-5.157-3.639-8.283 14.373-14.468 43.006-41.622 61.843-48.536.274-.092.526-.16.823-.229l-.022-.022Z"></path><path fill="#D6E3DD" d="M218.933 256.695c-3.822.068-5.722-4.564-2.952-7.188 15.449-14.581 34.926-31.011 47.858-35.826 5.355-1.05 53.305-10.04 102.536-10.04 27.695 0 50.72 2.806 68.572 8.329 1.716.524 2.884 2.145 2.907 3.924.183 15.381-.87 29.916-2.632 37.241-.435 1.871-2.152 3.149-4.074 3.149-12.039-.045-52.139-.205-95.831-.205-60.469 0-95.716.274-116.407.662l.023-.046Z"></path><g fill="#fff" opacity=".47"><path d="m386.059 188.906-8.887-7.789-89.039 100.976 8.886 7.79 89.04-100.977ZM428.04 202.804l-23.119-20.265-89.04 100.977 23.12 20.264 89.039-100.976Z"></path></g><mask id="a" width="38" height="64" x="456" y="206" maskUnits="userSpaceOnUse" style="mask-type:luminance;"><path fill="#fff" d="M457.285 228.947s-3.456-20.4 4.326-22.431c0 0 6.157-1.187 7.209.296 8.354 11.775 19.226 31.514 25.085 56.637 0 0-16.433 10.337-23.643 4.884-7.209-5.454-12.977-39.386-12.977-39.386Z"></path></mask><g fill="#fff" mask="url(#a)" opacity=".44"><path d="m479.888 206.585-10.659-4.278-26.113 64.668 10.658 4.278 26.114-64.668ZM493.147 205.846l-5.945-2.387-26.114 64.668 5.945 2.387 26.114-64.668Z"></path></g><mask id="b" width="36" height="51" x="475" y="211" maskUnits="userSpaceOnUse" style="mask-type:luminance;"><path fill="#fff" d="M477.449 211.217s25.749 14.17 32.684 46.186c0 0-12.68 4.792-14.03 3.651-1.351-1.141-10.758-34.297-19.615-46.939 0 0-2.312-3.446.961-2.875v-.023Z"></path></mask><g fill="#fff" mask="url(#b)"><path d="m499.768 215.322-5.116-1.863-13.503 36.868 5.116 1.863 13.503-36.868ZM512.601 221.308l-11.03-3.442-13.106 41.747 11.03 3.442 13.106-41.747Z" opacity=".47"></path></g><path fill="#111" d="m461.954 272.349 2.426 6.891s39.504 4.496 49.781-8.055c0 0 2.701-28.547-39.985-18.963-4.692 1.05-.183 19.169-.183 19.169s-7.805 2.304-12.039.958ZM537.644 340.692s4.211-13.532 7.415 5.979c3.205 19.51.71 39.477-.366 39.477s.595-21.405-7.049-45.456ZM453.967 342.289s9.681 2.419 19.385 19.602c0 0 1.625-33.43-7.965-33.43 0 0-7.507-.479-11.42 13.828Z"></path><path fill="#E59C0A" d="M545.036 391.442s2.953-56.866-5.012-53.557c0 0-4.234 2.967-8.377 17.982 0 0-2.128-14.901 6.249-22.5 2.746-2.487 7.186-1.072 8.102 2.533 3.204 12.687 9.063 42.033-.962 55.564v-.022Z"></path><path fill="#434443" d="M387.684 418.893c-68.663 1.78-189.533 3.788-241.282-1.94l-.503-1.049s-1.42-3.834.572-7.873c1.899-3.765 3.524-9.059 4.921-9.926l.274-.114c1.419-.297 4.326-50.043 28.564-55.496 0 0 47.652-18.872 54.084-15.905 6.431 2.966 65.733.388 65.733.388s56.143 7.667 69.189 29.893c0 0 14.511 27.588 15.381 42.261l3.067 19.761Z"></path><path fill="#3D4039" d="M421.237 345.667s16.434 42.831 0 52.894c0 0-26.229 11.501-27.671-19.556-.504-10.816 12.68-18.392 27.671-33.338Z"></path><path fill="#EF9C07" d="M421.672 345.073s17.578 41.257-.435 53.465c0 0-26.229 11.501-27.671-19.556-.504-10.816 13.114-18.962 28.106-33.909Z"></path><path fill="#3D4039" d="M421.672 345.073s17.166 41.097.709 51.16c0 0-25.176 12.939-26.618-18.118-.503-10.816 11.101-14.285 25.909-33.065v.023Z"></path><path fill="#E59C0A" d="M133.516 347.492c-.824 6.617-5.447 44.725-3.479 47.76 0 0 10.803 8.763 17.441-1.141 6.5-9.721-1.831-34.913-13.138-46.87a.46.46 0 0 0-.801.274l-.023-.023Z"></path><path fill="#3D4039" d="M134.066 355c-1.214 10.359-3.823 34.137-2.77 39.385.115.525.435.959.87 1.278 2.357 1.643 11.146 6.937 16.845-1.597 5.997-8.945-1.03-28.068-11.055-40.253-1.235-1.506-3.684-.753-3.913 1.187h.023Z"></path><path fill="#F7D877" d="M172.036 287.501s248.721-18.461 257.555-11.182c0 0 11.032-7.804 8.469-13.349l-253.619 2.191s-16.914 14.079-16.616 15.243c.297 1.141 2.106 7.005 4.234 7.097h-.023Z"></path><path fill="#E59C0A" d="M530.205 374.692s.595 32.495-12.954 35.073l-37.948 3.788 1.785-14.65 36.735-4.358s5.47-.593 12.108-26.173c.366-1.392.732-2.488 1.121-3.264-.526 3.172-.847 6.413-.847 9.584Z"></path><path fill="#EEBB2D" d="M449.366 360.134s3.136-42.946 20.164-34.457c3.548 1.78 7.461 10.04 3.914 35.758 0 0-1.671-34.936-9.842-32.267 0 0-4.738-1.186-14.236 30.966Z" style="mix-blend-mode:multiply;"></path><mask id="c" width="243" height="95" x="145" y="326" maskUnits="userSpaceOnUse" style="mask-type:luminance;"><path fill="#fff" d="M387.684 418.893c-68.663 1.78-189.533 3.788-241.282-1.94l-.503-1.049s-1.42-3.834.572-7.873c1.899-3.765 3.524-9.059 4.921-9.926l.274-.114c1.419-.297 4.326-50.043 28.564-55.496 0 0 47.652-18.872 54.084-15.905 6.431 2.966 65.733.388 65.733.388s56.143 7.667 69.189 29.893c0 0 14.511 27.588 15.381 42.261l3.067 19.761Z"></path></mask><g stroke="#4B4C4B" stroke-miterlimit="10" mask="url(#c)"><path d="m129.03 328.256 298.364 2.806M129.03 334.303l298.364 2.806M129.03 340.327l298.364 2.807M129.03 346.374l298.364 2.807M129.03 352.421l298.364 2.807M129.03 358.445l298.364 2.807M129.03 364.492l298.364 2.807M129.03 370.539l298.364 2.807M129.03 376.586l298.364 2.807M129.03 382.611l298.364 2.806M129.03 388.658l298.364 2.806M129.03 394.705l298.364 2.807M129.03 400.729l298.364 2.807"></path></g><path fill="#E59C0A" d="M387.684 418.893c-68.663 1.78-189.533 3.788-241.282-1.94l-.503-1.049s-1.42-3.834.572-7.873c1.899-3.765 3.524-9.059 4.921-9.926l.274-.114 30.555 8.899s154.538 3.446 158.566 2.305c4.028-1.141 43.83-10.041 43.83-10.041l1.739 10.634 1.328 9.128v-.023Z"></path><path fill="#EEBB2D" d="m444.972 402.463-.069.251-1.282 4.222v.091c-1.19 3.286-3.158 7.622-5.951 10.383 0 0-20.026.707-49.986 1.46-68.663 1.78-189.533 3.788-241.282-1.939-4.944-.525-9.224-1.141-12.794-1.849 0 0-4.257-6.777-6.111-14.056 7.667 3.126 51.817 19.67 118.741 14.444 0 0 143.002.844 159.161-7.667 5.539-2.921 22.682-10.748 22.682-10.748s2.975 6.412 5.012 7.279c2.769 1.187 11.924-1.939 11.924-1.939l-.045.068Z" style="mix-blend-mode:multiply;"></path><path fill="#BFC4C1" d="M305.426 376.792h-85.715c-7.644 0-13.847-6.184-13.847-13.806 0-7.621 6.203-13.805 13.847-13.805h85.715c7.644 0 13.847 6.184 13.847 13.805 0 7.622-6.203 13.806-13.847 13.806Z"></path><path fill="#F7D877" d="M534.142 287.136s-15.014 25.74-95.899 7.074c0 0-1.374-6.595-3.639-9.607 0 0 29.753 9.241 84.547-15.198.206-.091.412-.182.595-.274 1.579 1.689 12.473 13.555 14.396 18.005Z"></path><path fill="#E59C0A" d="M140.131 320.086s-4.99 21.838 29.594 27.223c0 0 49.963-20.309 59.576-20.309 0 0-67.267-14.558-89.193-6.891l.023-.023Z"></path><path fill="#2A2B2A" d="M146.471 409.537c1.899-3.765 3.524-9.059 4.921-9.926l.274-.114c1.419-.297 4.326-50.042 28.564-55.496 0 0 47.652-18.872 54.084-15.905 6.431 2.966 65.733.388 65.733.388s56.143 7.667 69.189 29.893c0 0 14.511 27.588 15.381 42.261l3.067 18.255 4.303.046-2.792-18.803c-1.053-15.517-15.289-42.74-15.999-44.064-14.03-23.891-70.174-31.81-72.554-32.129l-.412-.046h-.412c-.229.023-23.986 1.05-42.777 1.05-17.143 0-20.416-.867-20.828-1.004-1.075-.502-2.38-.73-3.959-.73-11.398 0-47.881 14.239-53.443 16.429-22.178 5.363-28.037 39.386-30.555 53.945a132.543 132.543 0 0 1-.572 3.171c-1.373 1.461-2.312 3.674-3.571 6.686-.595 1.415-1.19 2.876-1.808 4.085-2.815 5.636-1.327 8.9-1.327 8.9l5.31.524s-1.854-3.354.16-7.37l.023-.046Z"></path><path fill="#E59C0A" d="M347.722 339.619s51.886-3.057 75.346-16.087c0 0-53.443-24.143-123.021 3.446l47.675 12.641Z"></path><path fill="#434443" d="M185.838 303.041s54.632 2.373 58.958.935c0 0 19.02-18.118 45.547-.296 0 0 72.943-.571 79.42-1.735 0 0-15.861 13.281-18.173 21.701 0 0-42.708-1.3-51.566 3.309-8.835 4.609-37.856 34.822-67.084.73 0 0-34.789-7.233-41.335-6.458 0 0-1.968-6.686-5.813-18.186h.046Z"></path><path fill="#D6E3DD" d="m189.431 314.473 46.622 6.366s25.749 40.253 61.499.388l58.913-5.887 3.799-4.267s-65.298 5.568-68.479 7.279c0 0-26.527 35.461-48.431.297l-55.64-10.109 1.74 5.933h-.023Z"></path><path fill="#D6E3DD" d="M281.989 321.798c0 6.252-7.05 11.295-15.77 11.295-8.72 0-15.77-5.066-15.77-11.295 0-6.23 7.05-11.296 15.77-11.296 8.72 0 15.77 5.066 15.77 11.296ZM192.017 326.59s-36.506-7.667-44.219-4.222c0 0-6.157-.388-7.69-2.304 0 0-.595-16.065 9.819-28.296 4.051-4.769 9.773-8.945 17.875-11.364 0 0 6.065 10.679 11.924 17.023 2.472 2.693 4.944 4.632 6.89 4.632 0 0 9.223 21.861 5.378 24.531h.023ZM438.243 294.21s-5.768 36.784-25.955 28.158c0 0-43.235.571-62.277 2.876 0 0 5.264-17.662 26.504-28.365 5.035-2.555 10.94-4.7 17.898-6.138 0 0 28.06-8.238 30.166-11.318 0 0 11.558 2.373 13.572 10.154.366 1.369.435 2.898.069 4.61l.023.023Z"></path><path fill="#fff" d="M179.749 297.45c-.755.045-20.667 1.323-29.799-5.659 4.051-4.77 9.773-8.945 17.875-11.364 0 0 6.065 10.679 11.924 17.023Z" opacity=".62"></path><path fill="#fff" d="m438.174 289.6-.16.297s-29.159 17.137-61.476 6.982c5.035-2.555 10.94-4.7 17.898-6.138 0 0 28.06-8.238 30.166-11.318 0 0 11.558 2.373 13.572 10.154v.023Z" opacity=".57"></path><path stroke="#E59C0A" stroke-linecap="round" stroke-miterlimit="10" stroke-width=".5" d="M502.26 277.529s22.498 44.565 2.883 120.439"></path><path fill="#EEBB2D" d="M529.381 387.699c-1.258 9.356-4.371 20.583-12.13 22.044l-37.948 3.787s2.541-15.06 1.488-20.925l9.933-9.903s32.02 17.251 35.751 4.609c.641-2.19 1.671-1.802 2.906.365v.023Z" style="mix-blend-mode:multiply;"></path></svg>