<svg xmlns="http://www.w3.org/2000/svg" fill="none" viewBox="0 0 668 293" class="icon"><path fill="url(#a)" d="M121.601 124.575c-.246-12.99-10.832-23.453-23.876-23.453-.71 0-1.407.041-2.104.109-7.048-8.933-17.962-14.684-30.214-14.684-18.125 0-33.328 12.553-37.398 29.436a23.397 23.397 0 0 0-3.538-.287c-13.209 0-23.904 10.709-23.904 23.905 0 13.195 10.695 23.904 23.904 23.904h92.95c10.873 0 19.697-8.824 19.697-19.697 0-9.439-6.639-17.321-15.504-19.233h-.013Z"></path><path fill="url(#b)" d="M206.424 258.056h-17.456l4.234-43.451h8.988l4.234 43.451Z"></path><path fill="url(#c)" d="m205.454 248.112-3.264-33.507h-8.988l-2.759 28.33 15.011 5.177Z"></path><path fill="url(#d)" d="m159.314 239.588 38.382-138.835 38.382 138.835h-76.764Z"></path><path fill="url(#e)" d="M502.007 272.439h-17.443l4.221-43.464h8.988l4.234 43.464Z"></path><path fill="url(#f)" d="m501.037 262.495-3.264-33.52h-8.988l-2.759 28.343 15.011 5.177Z"></path><path fill="url(#g)" d="m454.897 253.972 38.382-138.836 38.382 138.836h-76.764Z"></path><path fill="url(#h)" d="M92.33 49.133H58.454v221.749h33.874V49.133Z"></path><path fill="#FFEAA8" d="M92.33 49.133h-1.093v221.749h1.092V49.133Z"></path><path fill="url(#i)" d="M226.298 49.133v40.678h-95.354v46.538h60.509v40.514h-60.509v94.019H92.329V49.133h133.969Z"></path><path fill="url(#j)" d="m92.33 183.106 46.754-46.757h-8.14V89.811h54.677l40.677-40.678H92.329v133.973Z" style="mix-blend-mode:overlay;"></path><path fill="url(#k)" d="M555.387 142.77a104.966 104.966 0 0 0-3.415-16.856c-1.584-5.423-3.633-10.518-6.146-15.313-2.5-4.808-5.519-8.974-9.056-12.54-3.538-3.55-7.65-6.365-12.335-8.427-4.698-2.063-10.012-3.1-15.967-3.1h-33.875c5.956 0 11.283 1.024 15.968 3.1 4.685 2.063 8.796 4.876 12.334 8.428 3.524 3.565 6.556 7.731 9.056 12.539 2.513 4.795 4.562 9.89 6.147 15.313a104.965 104.965 0 0 1 3.414 16.856c.683 5.818 1.038 11.556 1.038 17.238 0 8.045-.833 16.364-2.513 24.97-1.68 8.619-4.384 16.528-8.154 23.74-3.77 7.226-8.688 13.14-14.78 17.785-6.092 4.63-13.59 6.952-22.523 6.952h33.874c8.92 0 16.432-2.322 22.524-6.952 6.078-4.645 11.009-10.559 14.779-17.785 3.757-7.212 6.475-15.121 8.155-23.74 1.68-8.606 2.513-16.925 2.513-24.97 0-5.682-.355-11.42-1.038-17.238Z"></path><path fill="url(#l)" d="M508.468 274.761h-33.875c-10.777 0-20.434-1.584-28.984-4.712-8.537-3.142-16.104-7.417-22.647-12.826-6.557-5.423-12.143-11.816-16.801-19.178-4.658-7.363-8.441-15.313-11.364-23.823-2.937-8.51-5.068-17.375-6.406-26.608a189.971 189.971 0 0 1-2.036-27.606c0-9.18.67-18.222 2.036-27.442 1.338-9.221 3.483-18.099 6.406-26.609 2.923-8.51 6.706-16.446 11.364-23.809 4.644-7.362 10.244-13.755 16.801-19.178 6.543-5.409 14.096-9.684 22.647-12.826 8.55-3.142 18.221-4.713 28.984-4.713h33.875c-10.777 0-20.434 1.571-28.985 4.713-8.537 3.142-16.104 7.417-22.647 12.826-6.556 5.423-12.143 11.816-16.8 19.178-4.658 7.363-8.442 15.313-11.365 23.809-2.936 8.51-5.067 17.375-6.406 26.609-1.352 9.22-2.035 18.372-2.035 27.442s.669 18.385 2.035 27.606c1.352 9.22 3.483 18.098 6.406 26.608 2.923 8.51 6.707 16.446 11.365 23.823 4.644 7.362 10.244 13.755 16.8 19.178 6.543 5.409 14.11 9.684 22.647 12.826 8.551 3.142 18.221 4.712 28.985 4.712Z"></path><path fill="#FF8D73" d="M555.387 142.77a104.966 104.966 0 0 0-3.415-16.856c-1.584-5.423-3.633-10.518-6.146-15.313-2.5-4.808-5.519-8.974-9.056-12.54-3.538-3.55-7.65-6.365-12.335-8.427-4.698-2.063-10.012-3.1-15.967-3.1h-1.557c5.955 0 11.269 1.024 15.967 3.1 4.685 2.063 8.797 4.876 12.348 8.428 3.524 3.565 6.543 7.731 9.042 12.539 2.514 4.795 4.563 9.89 6.147 15.313a104.966 104.966 0 0 1 3.415 16.856c.683 5.818 1.038 11.556 1.038 17.238 0 8.045-.833 16.364-2.513 24.97-1.68 8.619-4.399 16.528-8.141 23.74-3.77 7.226-8.701 13.14-14.779 17.785-6.092 4.63-13.591 6.952-22.524 6.952h1.557c8.919 0 16.432-2.322 22.524-6.952 6.078-4.645 11.009-10.559 14.779-17.785 3.756-7.212 6.474-15.121 8.154-23.74 1.68-8.606 2.514-16.925 2.514-24.97 0-5.682-.355-11.42-1.038-17.238h-.014Z"></path><path fill="#FF8D73" d="M456.836 257.209c-6.556-5.423-12.143-11.815-16.8-19.178-4.658-7.362-8.442-15.312-11.365-23.822-2.936-8.51-5.067-17.375-6.406-26.609a190.1 190.1 0 0 1-2.035-27.606c0-9.179.669-18.222 2.035-27.442 1.352-9.22 3.483-18.099 6.406-26.609 2.923-8.51 6.707-16.446 11.365-23.808 4.644-7.363 10.244-13.755 16.8-19.178 6.543-5.41 14.11-9.685 22.647-12.827 8.551-3.141 18.221-4.712 28.985-4.712h-1.557c-10.777 0-20.434 1.57-28.999 4.712-8.537 3.142-16.09 7.418-22.646 12.827-6.557 5.423-12.143 11.815-16.787 19.178-4.658 7.362-8.442 15.312-11.365 23.808-2.937 8.51-5.067 17.375-6.406 26.609-1.352 9.22-2.035 18.372-2.035 27.442s.669 18.386 2.035 27.606c1.352 9.22 3.483 18.099 6.406 26.609 2.923 8.51 6.707 16.446 11.365 23.822 4.644 7.363 10.244 13.755 16.787 19.178 6.542 5.409 14.109 9.685 22.646 12.826 8.551 3.142 18.222 4.713 28.999 4.713h1.557c-10.777 0-20.434-1.585-28.985-4.713-8.537-3.141-16.104-7.417-22.647-12.826Z"></path><path fill="#992929" d="M596.433 274.762h-33.875c-18.426 0-31.047-7.049-39.502-15.203h33.874c8.455 8.154 21.076 15.203 39.503 15.203Z"></path><path fill="#FF8D73" d="M556.93 259.545h-1.953c8.455 8.154 21.076 15.203 39.502 15.203h1.954c-18.427 0-31.048-7.049-39.503-15.203Z"></path><path fill="url(#m)" d="M581.175 230.136c8.496 7.007 20.257 13.441 36.129 15.749l-20.871 28.89c-18.427 0-31.048-7.048-39.503-15.203-5.791 4.303-12.293 7.814-19.518 10.491-8.51 3.141-18.14 4.712-28.93 4.712-10.791 0-20.435-1.584-28.985-4.712-8.537-3.142-16.104-7.417-22.647-12.827-6.556-5.422-12.143-11.815-16.801-19.178-4.657-7.362-8.441-15.312-11.364-23.822-2.937-8.51-5.068-17.375-6.406-26.609a190.086 190.086 0 0 1-2.035-27.605c0-9.18.669-18.222 2.035-27.442 1.352-9.221 3.483-18.099 6.406-26.609 2.923-8.51 6.707-16.446 11.364-23.809 4.644-7.362 10.245-13.755 16.801-19.178 6.543-5.409 14.11-9.684 22.647-12.826 8.55-3.142 18.221-4.713 28.985-4.713 10.763 0 20.42 1.571 28.93 4.713 8.509 3.142 16.008 7.417 22.51 12.826 6.515 5.423 12.088 11.816 16.732 19.178 4.644 7.363 8.428 15.313 11.364 23.809 2.937 8.51 5.068 17.375 6.42 26.609 1.339 9.22 2.022 18.372 2.022 27.442 0 9.069-.669 18.385-2.022 27.605-1.352 9.221-3.483 18.099-6.42 26.609a113.813 113.813 0 0 1-6.829 15.914l-.014-.014Zm-27.25-45.145c1.68-8.605 2.514-16.924 2.514-24.969 0-5.683-.355-11.42-1.038-17.239a105.01 105.01 0 0 0-3.415-16.856c-1.585-5.423-3.634-10.518-6.147-15.312-2.499-4.808-5.518-8.974-9.056-12.54-3.538-3.551-7.649-6.365-12.334-8.427-4.699-2.063-10.012-3.101-15.967-3.101-5.956 0-11.392 1.079-16.091 3.25-4.699 2.159-8.837 5.069-12.402 8.73-3.579 3.66-6.625 7.908-9.138 12.757-2.5 4.849-4.549 9.999-6.133 15.463a108.172 108.172 0 0 0-3.415 16.706 135.543 135.543 0 0 0-1.038 16.541c0 8.455.833 17.047 2.513 25.748 1.667 8.715 4.385 16.61 8.155 23.659 3.756 7.062 8.714 12.84 14.847 17.32 6.147 4.494 13.714 6.734 22.715 6.734 9.002 0 16.432-2.322 22.524-6.952 6.078-4.645 11.009-10.559 14.779-17.785 3.756-7.212 6.475-15.121 8.155-23.74"></path><path fill="url(#n)" d="M576.64 82.148c-4.644-7.362-10.217-13.755-16.732-19.178-6.502-5.409-14.001-9.684-22.51-12.826-8.51-3.142-18.139-4.713-28.93-4.713s-20.434 1.571-28.985 4.713c-8.537 3.142-16.104 7.417-22.647 12.826-6.556 5.423-12.143 11.816-16.8 19.178-4.658 7.363-8.442 15.313-11.365 23.809-2.936 8.51-5.067 17.375-6.406 26.609-1.352 9.22-2.035 18.372-2.035 27.442s.669 18.385 2.035 27.606c1.352 9.22 3.483 18.098 6.406 26.608 2.855 8.333 6.557 16.119 11.092 23.344l30.132-30.132c-3.238-6.543-5.628-13.769-7.144-21.678-1.667-8.701-2.513-17.293-2.513-25.748 0-5.369.341-10.873 1.038-16.542a108.17 108.17 0 0 1 3.414-16.706c1.585-5.464 3.634-10.613 6.133-15.462 2.514-4.849 5.56-9.098 9.138-12.758 3.565-3.661 7.704-6.57 12.403-8.729 4.698-2.172 10.053-3.25 16.09-3.25 6.037 0 11.269 1.024 15.968 3.1 4.685 2.063 8.796 4.876 12.334 8.428 3.524 3.565 6.556 7.731 9.056 12.539 2.445 4.658 4.439 9.617 6.01 14.876l31.348-31.349a111.815 111.815 0 0 0-6.543-11.993l.013-.014Z" style="mix-blend-mode:overlay;"></path><path fill="url(#o)" d="M237.894 224.959h31.813l-15.531 45.923H222.35l15.544-45.923Z"></path><path fill="url(#p)" d="M277.014 108.347h31.826l-26.417 77.641h-31.826l26.417-77.641Z"></path><path fill="#30A2FF" d="m237.894 224.959-15.544 45.923h.984l15.53-45.923h-.97ZM277.014 108.347l-26.417 77.641h.984l26.417-77.641h-.984ZM296.096 49.133h31.812l77.57 221.749h-31.826L296.096 49.133Z"></path><path fill="#6BCEFF" d="m296.096 49.133 77.556 221.749h1.831l-77.57-221.749h-1.817Z"></path><path fill="url(#q)" d="m296.096 49.133 77.57 221.749h-41.961l-15.68-45.923h-78.117l-15.544 45.923h-41.961L257.96 49.133h38.15-.014Zm-45.485 136.855h52.697l-26.28-77.641-26.417 77.641Z"></path><path fill="url(#r)" d="M296.096 49.133h-38.15l-55.92 159.885 61.752-61.755 13.236-38.916 6.488 19.192 29.641-29.641-17.047-48.765Z" style="mix-blend-mode:overlay;"></path><path fill="url(#s)" d="M59.957 274.762h-11.72l2.842-37.059h6.037l2.841 37.059Z"></path><path fill="url(#t)" d="m59.315 266.279-2.199-28.576H51.08l-1.858 24.164 10.094 4.412Z"></path><path fill="url(#u)" d="m28.295 259.012 25.802-118.387L79.9 259.012H28.295Z"></path><path fill="#316648" d="M51.461 259.012H79.9l-14.22-65.224-14.219 65.224Z"></path><path fill="url(#v)" d="M75.76 274.762h-7.566l1.844-23.905h3.892l1.83 23.905Z"></path><path fill="url(#w)" d="m75.337 269.284-1.407-18.427h-3.892l-1.202 15.586 6.501 2.841Z"></path><path fill="url(#x)" d="m55.34 264.599 16.637-76.343 16.65 76.343H55.342Z"></path><path fill="url(#y)" d="M609.887 274.762h-11.733l2.841-37.059h6.051l2.841 37.059Z"></path><path fill="url(#z)" d="m609.231 266.279-2.185-28.576h-6.051l-1.844 24.164 10.08 4.412Z"></path><path fill="url(#A)" d="m578.211 259.012 25.802-118.387 25.816 118.387h-51.618Z"></path><path fill="#316648" d="M601.391 259.012h28.438l-14.219-65.224-14.219 65.224Z"></path><path fill="url(#B)" d="M625.69 274.762h-7.567l1.831-23.905h3.906l1.83 23.905Z"></path><path fill="url(#C)" d="m625.267 269.284-1.407-18.427h-3.906l-1.189 15.586 6.502 2.841Z"></path><path fill="url(#D)" d="m605.27 264.599 16.637-76.343 16.637 76.343H605.27Z"></path><path fill="url(#E)" d="M651.916 106.845c-.246-12.99-10.832-23.453-23.876-23.453-.711 0-1.407.04-2.104.109-7.048-8.933-17.961-14.684-30.214-14.684-18.125 0-33.328 12.553-37.398 29.436a23.323 23.323 0 0 0-3.538-.287c-13.208 0-23.904 10.709-23.904 23.905 0 13.195 10.696 23.904 23.904 23.904h92.95c10.873 0 19.697-8.824 19.697-19.697 0-9.439-6.639-17.321-15.503-19.233h-.014Z"></path><path fill="url(#F)" d="M448.941 34.682c0 19.15-15.53 34.681-34.68 34.681s-34.681-15.53-34.681-34.681C379.58 15.53 395.111 0 414.275 0c19.163 0 34.68 15.53 34.68 34.682h-.014Z"></path><path fill="url(#G)" d="M423.057 59.337c-.245-12.99-10.831-23.453-23.876-23.453-.71 0-1.407.04-2.103.109-7.048-8.934-17.962-14.684-30.214-14.684-18.126 0-33.328 12.553-37.399 29.436a23.336 23.336 0 0 0-3.538-.287c-13.208 0-23.903 10.71-23.903 23.904 0 13.196 10.695 23.905 23.903 23.905h92.951c10.872 0 19.696-8.824 19.696-19.697 0-9.44-6.638-17.32-15.503-19.233h-.014Z"></path><path stroke="#5AC75C" stroke-linecap="round" stroke-linejoin="round" d="m131.668 23.563 5.012 5M136.68 23.563l-5.012 5M517.251 281.469l4.999 5.013M522.25 281.469l-4.999 5.013"></path><path stroke="#FFBC12" stroke-linecap="round" stroke-linejoin="round" d="m513.358 15.53 8.482 1.353-5.395 6.68-3.087-8.032ZM107.655 283.982l8.496 1.339-5.409 6.679-3.087-8.018Z"></path><path stroke="#F03E7C" stroke-linecap="round" stroke-linejoin="round" d="M452.807 95.44c2.814 0 2.814 2.103 5.628 2.103 2.813 0 2.813-2.104 5.641-2.104 2.827 0 2.827 2.104 5.641 2.104s2.814-2.104 5.641-2.104c2.828 0 2.828 2.104 5.655 2.104 2.827 0 2.827-2.104 5.641-2.104M296.219 282.916c2.814 0 2.814 2.104 5.627 2.104 2.814 0 2.814-2.104 5.642-2.104 2.827 0 2.827 2.104 5.641 2.104s2.814-2.104 5.641-2.104c2.828 0 2.828 2.104 5.655 2.104 2.827 0 2.827-2.104 5.641-2.104"></path><path stroke="#4D9DFF" stroke-linecap="round" stroke-linejoin="round" d="M617.249 128.017c2.814 0 2.814 2.104 5.628 2.104 2.813 0 2.813-2.104 5.641-2.104 2.827 0 2.814 2.104 5.641 2.104s2.814-2.104 5.641-2.104c2.828 0 2.828 2.104 5.655 2.104 2.828 0 2.828-2.104 5.641-2.104"></path><path stroke="#5AC75C" stroke-linecap="round" stroke-linejoin="round" d="M32.297 107.296c2.814 0 2.814 2.103 5.628 2.103s2.814-2.103 5.641-2.103c2.828 0 2.814 2.103 5.642 2.103 2.827 0 2.813-2.103 5.64-2.103 2.828 0 2.828 2.103 5.656 2.103 2.827 0 2.827-2.103 5.64-2.103"></path><path stroke="#F03E7C" stroke-linecap="round" stroke-linejoin="round" d="m338.234 130.134-1.325-.847c-3.155-2.035-3.155-3.524-3.155-4.07a2.43 2.43 0 0 1 2.431-2.445c.847 0 1.599.437 2.036 1.092a2.425 2.425 0 0 1 2.021-1.092 2.45 2.45 0 0 1 2.445 2.445c0 .56 0 2.049-3.128 4.07l-1.311.847h-.014Z"></path><path fill="#82555E" d="M495.806 174.76c.177 5.683-9.275 15.531-.847 20.189h13.891s4.33-1.817 4.617-8.879c.287-7.062-3.688-11.31-3.688-11.31h-13.973Z"></path><path fill="#919DD4" d="m527.427 268.41 5.723 13.154s-1.175.997-2.582.492c-1.407-.505-9.288-8.005-9.684-8.524-.396-.519-.724-1.01-.191-1.912.532-.902 2.458-4.18 2.458-4.18l4.276.943v.027Z"></path><path fill="#282C3B" d="M516.185 220.451s13.878 12.991 15.763 14.739c1.885 1.748 1.42 5.122.792 8.046-.628 2.923-4.111 27.264-4.111 27.264s-3.374-.287-6.311-2.308l.656-25.708s-21.213-9.357-22.005-11.911c-.792-2.554.656-7.267.656-7.267l14.574-2.855h-.014Z"></path><path fill="#919DD4" d="m514.423 269.749 4.412 13.659s-1.27.874-2.622.246c-1.353-.642-8.455-8.865-8.811-9.425-.355-.56-.628-1.079 0-1.912.615-.834 2.842-3.921 2.842-3.921l4.166 1.353h.013Z"></path><path fill="#383D52" d="M509.765 222.336s10.696 12.868 12.403 14.794c1.707 1.926.915 5.231 0 8.086-.915 2.855-6.748 26.732-6.748 26.732s-3.332-.615-6.064-2.91l3.155-25.529s-20.202-11.379-20.748-14.001c-.547-2.623 1.366-7.172 1.366-7.172H509.765Z"></path><path fill="#FFD2BA" d="m518.234 207.024.861 6.147 6.665 13.55h-2.322s-9.097-10.627-9.22-11.501c-.123-.874-1.092-8.196-1.092-8.196h5.122-.014Z"></path><path fill="url(#H)" d="M502.758 186.084s-7.963 5.751-9.903 7.349c-1.939 1.598-1.939 5.068-1.939 7.799 0 2.732.232 23.386.314 25.667.082 2.281.546 2.622.546 2.622s5.464-4.207 10.982-4.726c5.519-.519 11.843-.232 14.233-3.756 0 0-1.311-25.325-1.598-27.715-.287-2.391-6.993-7.226-6.993-7.226h-5.642v-.014Z"></path><path fill="url(#I)" d="m515.393 193.31 4.617 14.001s-2.759 1.871-5.792 1.994l1.189-15.995h-.014Z"></path><path fill="#69444C" d="M515.393 167.78c4.617 4.494 3.183 8.906-1.229 9.644h-3.989v-9.644h5.218Z"></path><path fill="#FFB1A4" d="M501.188 180.47s.314 6.01.368 7.089c.055 1.079 2.281 5.437 5.751 5.437 2.308 0 2.499-1.339 2.445-2.527-.055-1.189-.451-9.985-.451-9.985h-8.113v-.014Z"></path><path fill="#FFD2BA" d="M514.847 177.26s.109 1.912.205 3.019c.081 1.106-2.445 5.941-4.576 6.31-2.131.369-8.25-.792-9.48-6.31-2.445-.656-4.125-7.049-1.338-11.188 2.609-3.865 10.353-4.466 13.372-.942s1.871 6.065 1.817 9.111Z"></path><path fill="#82555E" d="M515.393 167.78s-4.125 8.988-15.366 11.898h-2.965s-2.212-3.825-.846-9.74c1.652-7.171 13.427-10.927 19.177-2.158Z"></path><path fill="#FFD2BA" d="M502.376 179.2s-.342-1.639-1.257-2.473c-1.174-1.065-2.049-.683-2.158.711-.109 1.379.874 3.387 2.65 3.865l.765-2.09v-.013Z"></path><path fill="#9098B8" d="m532.016 230.833-25.215 1.721-11.61-7.254 25.215-1.721 11.61 7.254Z"></path><path fill="#FFD2BA" d="M488.935 208.609s-.164 8.154.519 8.824c5.3 5.3 15.421 10.627 15.421 10.627s2.213 1.407 2.992 1.871c.778.465 5.75-.833 5.75-1.352 0-.519-6.939-2.158-6.939-2.158s-9.93-11.092-9.998-11.556c-.068-.465.164-5.983.164-5.983l-7.909-.287v.014Z"></path><path fill="url(#J)" d="M492.746 194.334c-1.106.205-1.079.683-1.816 2.842-.738 2.158-4.262 13.14-4.262 13.14s6.147 2.623 12.006 2.841c0 0 .752-7.69.997-11.214.246-3.524-4.412-8.087-6.925-7.622v.013Z"></path><path fill="#F2F5FF" d="m532.016 230.833-25.215 1.721 8.046-20.107 25.214-1.721-8.045 20.107Z"></path><path fill="#FFD2BA" d="M259.79 213.157s.56 15.299.874 16.719c.314 1.421-.314 2.391 0 2.678.314.287 3.333 1.366 3.333 1.366l-1.257-20.763h-2.964.014Z"></path><path fill="url(#K)" d="M261.825 180.688s-2.609 26.09-2.718 26.882c-.109.793-.669 1.476-.451 2.104.219.628.738.97.738.97s-.232 2.24.055 2.8c.286.56 2.376 0 2.376 0l2.172-32.756h-2.172Z"></path><path fill="#919DD4" d="m268.587 278.982-10.299 7.09s.341 1.284 1.584 1.557c1.243.273 10.531-1.626 11.064-1.817.546-.205 1.011-.41 1.079-1.325.068-.915-.137-4.385-.137-4.385l-3.291-1.12Z"></path><path fill="#282C3B" d="m261.074 214.496-.41 6.693 4.972 59.706h6.488l4.453-58.286v-9.165l-15.503 1.052Z"></path><path fill="#919DD4" d="m280.443 280.567-10.299 7.089s.341 1.284 1.584 1.557c1.243.274 10.531-1.625 11.064-1.816.546-.205 1.011-.41 1.079-1.325.068-.916-.137-4.385-.137-4.385l-3.291-1.12Z"></path><path fill="#383D52" d="m269.83 214.496 7.662 67.983h6.488l2.322-59.87-.819-9.165-15.653 1.052Z"></path><path fill="#82555E" d="M281.412 161.497c-.177 5.682 9.275 15.53.847 20.188h-13.891s-4.33-1.816-4.617-8.878c-.287-7.062 3.688-11.31 3.688-11.31h13.973Z"></path><path fill="url(#L)" d="M274.46 173.462s7.663 2.732 9.602 4.317c1.94 1.584 1.94 5.067 1.94 7.799s.3 37.031.3 37.031-16.35.943-26.184.41c0 0 1.434-39.954 1.707-42.344.273-2.391 6.994-7.226 6.994-7.226h5.641v.013Z"></path><path fill="#69444C" d="M261.825 154.503c-4.603 4.494-3.182 8.906 1.23 9.644h3.988v-9.644h-5.218Z"></path><path fill="#FFB1A4" d="M276.017 167.206s-.314 6.01-.369 7.09c-.054 1.079-2.281 5.436-5.75 5.436-2.309 0-2.5-1.339-2.445-2.527l.451-9.985h8.113v-.014Z"></path><path fill="#FFD2BA" d="M262.358 163.983s-.109 1.912-.205 3.018c-.096 1.107 2.445 5.942 4.576 6.311 2.131.369 8.25-.792 9.479-6.311 2.445-.655 4.125-7.048 1.339-11.187-2.609-3.865-10.354-4.466-13.372-.942-3.019 3.524-1.872 6.065-1.817 9.111Z"></path><path fill="#82555E" d="M261.825 154.503s4.125 8.988 15.367 11.897h2.95s2.213-3.824.847-9.739c-1.653-7.171-13.427-10.928-19.177-2.158h.013Z"></path><path fill="#FFD2BA" d="M274.829 165.922s.341-1.639 1.256-2.472c1.175-1.065 2.049-.683 2.159.71.109 1.38-.875 3.388-2.65 3.866l-.765-2.09v-.014Z"></path><path fill="url(#M)" d="M284.841 178.448s-1.339-1.065-3.101 1.243c-1.762 2.322-4.658 7.062-4.726 10.627-.054 3.565.178 7.732.178 7.732s-.67-.287-.751-.178c-.082.109-.465.751-.465.751s.437 3.975.178 6.898c0 0 1.338 1.038 1.994 1.134.669.082 1.229-.669 1.653-.574.423.082 3.36 0 4.029-.437s1.83-3.565 2.09-9.958c.259-6.406.068-15.203-1.065-17.238h-.014Z"></path><path fill="#FFD2BA" d="M272.998 199.101s-7.608-.109-9.192-.464c-1.598-.355-2.363-1.708-2.623-2.432-.259-.723-.601-1.434-1.106-2.308-.505-.874-.451-1.462-.56-1.858-.109-.382-1.257.574-1.216 1.38.041.806.328 1.216.383 1.516.054.314.013.97-.506.915-.519-.054-1.775.082-2.131.26-.341.177-.587.669-.491.942.095.274.655.574.724.998.054.423.888 3.278 1.243 3.797.341.519.847.751 1.516.847.683.095 3.114-.123 4.043.082.929.191 10.272 1.584 10.272 1.584l-.369-5.259h.013Z"></path><path fill="url(#N)" d="M275.976 198.637s-2.814.027-3.196 0c-.383-.027-.546.492-.465.983.082.492.383 4.781.424 4.932.041.15 3.415.969 3.415.969s.669-3.537-.178-6.898v.014Z"></path><path fill="#FFD2BA" d="M215.548 193.078s4.262 3.182 4.822 3.401c.56.218 1.256.191 1.543-.027.301-.233-.888-6.817-.888-6.817s-.86-1.516-1.543-2.008l-3.947 5.451h.013ZM230.368 175.266s.697-1.544.902-2.077c.205-.532.655-1.024.833-1.215.178-.192.874-.902 1.079-1.339.205-.437.26-.41.369-.369.109.028.369.711 0 1.475-.369.765-.792.998-.915 1.366-.123.369-1.189 2.705-1.189 2.705l-1.079-.546Z"></path><path fill="#FFD2BA" d="M231.283 175.73s1.121-1.421 1.476-1.912c.355-.492.942-.888 1.174-1.039.233-.15 1.134-.71 1.462-1.106.328-.396.369-.355.478-.287.109.055.205.833-.383 1.516-.573.683-1.079.834-1.311 1.189-.232.355-1.926 2.486-1.926 2.486l-.983-.833.013-.014Z"></path><path fill="#FFD2BA" d="M232.144 176.481s1.27-1.106 1.694-1.516c.41-.396 1.024-.656 1.27-.751.246-.096 1.175-.465 1.544-.765.368-.314.396-.26.491-.178.096.082.041.806-.614 1.339-.656.533-1.134.587-1.407.86-.273.287-2.213 1.954-2.213 1.954l-.765-.943Z"></path><path fill="#FFD2BA" d="M232.335 177.656s1.325-.792 1.762-1.079c.437-.287 1.025-.424 1.257-.465.232-.054 1.12-.218 1.502-.437.383-.218.41-.164.478-.082.069.082-.095.724-.764 1.093-.67.369-1.12.342-1.407.547-.287.218-2.295 1.393-2.295 1.393l-.533-.97Z"></path><path fill="#FFDBE9" d="M218.512 185.442s1.434 1.339 1.571 1.475c.137.123.232.547.178.738-.055.205-2.281 3.729-4.481 5.969 0 0-.532.355-.86.123-.328-.232-1.612-1.571-1.612-1.571l5.204-6.734Z"></path><path fill="#F57DAC" d="M209.579 176.905c.519-.26 2.022.696 2.541 1.489.519.792 3.387 3.292 4.589 4.002 1.202.724 1.762 2.486 1.803 3.046 0 0-2.213 4.371-5.013 6.816 0 0-1.666.574-2.308.068-.642-.519-1.339-2.185-2.063-2.854-.724-.656-1.953-2.691-2.349-4.932-.396-2.24.546-6.461 2.786-7.622l.014-.013Z"></path><path fill="#FFD2BA" d="M230.846 174.309c-1.106 1.489-.778 4.317-1.734 5.546-4.317 5.573-9.289 8.947-8.783 10.873-.328 2.951.765 6.106 1.584 5.723 5.437-4.002 6.12-10.9 9.89-15.271 2.062-.464 1.693-1.83 2.294-3.265-.901-1.734-2.144-2.991-3.237-3.592l-.014-.014Z"></path><path fill="#FFD2BA" d="M228.798 180.265c.423-.56.081-3.415.136-3.961.055-.547.232-1.735.246-2.022.014-.287.273-.983.273-1.475 0-.492.068-.642.273-.669.205-.014.793.847.642 1.666-.15.82-.205 1.079-.205 1.175 0 .095.028.614.069.737.027.123.888.683 1.133 2.063.246 1.393-.191 2.554-2.554 2.459l-.013.027Z"></path><path fill="#69444C" d="M194.964 153.97s-5.86-1.68-6.092 3.948c-.232 5.614 0 10.914 0 13.127 0 2.213 0 3.524 1.598 3.579 1.598.054 5.013-.342 5.013-7.431s-.505-13.236-.505-13.236l-.014.013Z"></path><path fill="#F57DAC" d="m207.271 278.982 10.299 7.09s-.342 1.284-1.585 1.557c-1.243.273-10.531-1.626-11.064-1.817-.546-.205-1.01-.41-1.079-1.325-.068-.915.137-4.385.137-4.385l3.292-1.12Z"></path><path fill="#FF9DC3" d="m195.415 280.567 10.299 7.089s-.342 1.284-1.585 1.557c-1.243.274-10.531-1.625-11.064-1.816-.546-.205-1.011-.41-1.079-1.325-.068-.916.137-4.385.137-4.385l3.292-1.12Z"></path><path fill="#FFD2BA" d="m203.433 214.496-6.106 67.423-5.204.041-2.568-59.351.819-9.165 13.059 1.052Z"></path><path fill="#FFB1A4" d="m215.453 214.496-6.215 66.044-5.204.04-2.459-57.971.806-9.165 13.072 1.052Z"></path><path fill="#23283B" d="m215.507 221.776-.328 33.33s-9.452 3.415-27.55 0l1.926-32.496 25.952-.834Z"></path><path fill="#FF9DC3" d="M199.171 173.462s-5.436 2.732-7.376 4.317c-1.94 1.598-1.94 5.068-1.94 7.799 0 2.732-.3 37.031-.3 37.031s16.35.943 26.184.41c0 0 .752-27.333-2.841-43.301-.532-2.349-8.1-6.256-8.1-6.256h-5.641.014Z"></path><path fill="#F57DAC" d="m197.423 189.144-7.568-.984c-.054 8.592-.286 34.45-.286 34.45s3.319.191 7.867.355v-33.821h-.013Z"></path><path fill="#69444C" d="M211.915 154.503c4.603 4.494 3.182 8.906-1.229 9.644h-3.989v-9.644h5.218Z"></path><path fill="#FFB1A4" d="M197.709 167.206s.315 6.01.369 7.09c.055 1.079 2.281 5.436 5.751 5.436 2.308 0 2.499-1.339 2.445-2.527-.055-1.188-.451-9.985-.451-9.985h-8.114v-.014Z"></path><path fill="#FFD2BA" d="M211.369 163.983s.109 1.912.204 3.018c.096 1.107-2.445 5.942-4.575 6.311-2.131.369-8.251-.792-9.48-6.311-2.445-.655-4.125-7.048-1.338-11.187 2.608-3.865 10.353-4.466 13.372-.942s1.871 6.065 1.817 9.111Z"></path><path fill="#82555E" d="M211.915 154.503s-2.828 8.387-14.069 11.297l.109 5.982s-7.362-5.381-5.218-15.121c1.585-7.185 13.427-10.927 19.178-2.158Z"></path><path fill="#FFD2BA" d="M198.898 165.922s-.342-1.639-1.257-2.472c-1.175-1.065-2.049-.683-2.158.71-.109 1.38.874 3.388 2.65 3.866l.765-2.09v-.014ZM198.638 211.859c1.12 1.298 5.136 3.675 5.314 3.825 0 0 .969 1.421 1.215 1.967.191.423.205.738.246.997.041.26.082.929.123 1.189.055.259.027.519-.219.464-.273-.041-.805-.492-.833-1.175 0-.683-.191-.874-.341-1.243-.082-.218-.355-.533-.56-.751.259.546.573 1.243.696 1.584.151.492.137.847.151 1.134 0 .301-.028 1.038 0 1.339.027.287-.014.574-.301.492-.287-.082-.833-.642-.778-1.394.054-.751-.055-1.024-.233-1.407a24.612 24.612 0 0 0-.71-1.489c.205.52.506 1.339.601 1.722.109.45.068.765.055 1.024 0 .273-.096.929-.082 1.202 0 .26-.055.505-.301.41-.246-.082-.71-.628-.601-1.311.096-.683-.041-.902-.109-1.284-.055-.356-.519-1.23-.574-1.339.055.451.151 1.093.205 1.352.082.396-.041.67-.082.888-.041.232-.328.792-.355 1.025-.027.232-.123.437-.328.314-.205-.11-.437-.629-.246-1.189.178-.56.082-.778.069-1.12-.055-.56-.287-1.093-.287-1.093-1.298-.382-3.06-1.57-3.347-3.278-3.551-4.562-10.736-7.554-13.713-12.758-.205-.874 3.578-1.789 6.392-.888 1.994-.109 4.303 5.423 8.92 10.764l.013.027Z"></path><path fill="#FFD2BA" d="M186.905 191.958s-3.333 7.362-3.579 10.012l7.39-.519 2.868-6.106-6.679-3.387Z"></path><path fill="#FFDBE9" d="m187.001 190.4-.793 2.008c-.068.178.014.588.164.752.137.15 3.661 2.39 6.611 3.469 0 0 .629.096.834-.259.191-.342.778-2.104.778-2.104l-7.594-3.852v-.014Z"></path><path fill="#FF9DC3" d="M191.399 178.858c-.574-.014-1.53 1.502-1.653 2.431-.123.943-1.653 4.426-2.418 5.587-.778 1.161-.519 3.005-.327 3.524 0 0 3.879 3.005 7.444 4.002 0 0 1.762-.191 2.117-.942.355-.738.273-2.554.642-3.456.369-.901.601-3.265 0-5.464-.601-2.185-3.265-5.614-5.791-5.696l-.014.014Z"></path><defs><linearGradient id="a" x1="59.766" x2="90.282" y1="109.782" y2="218.142" gradientUnits="userSpaceOnUse"><stop stop-color="#C2EAFF"></stop><stop offset="1" stop-color="#70C8FF"></stop></linearGradient><linearGradient id="b" x1="197.313" x2="200.196" y1="243.959" y2="256.717" gradientUnits="userSpaceOnUse"><stop stop-color="#9F7052"></stop><stop offset="1" stop-color="#835C44"></stop></linearGradient><linearGradient id="c" x1="198.024" x2="197.955" y1="218.908" y2="242.102" gradientUnits="userSpaceOnUse"><stop stop-color="#9F7052"></stop><stop offset="1" stop-color="#835C44"></stop></linearGradient><linearGradient id="d" x1="197.19" x2="185.47" y1="234.384" y2="114.549" gradientUnits="userSpaceOnUse"><stop stop-color="#346D4D"></stop><stop offset="1" stop-color="#83C556"></stop></linearGradient><linearGradient id="e" x1="492.896" x2="495.792" y1="258.343" y2="271.087" gradientUnits="userSpaceOnUse"><stop stop-color="#9F7052"></stop><stop offset="1" stop-color="#835C44"></stop></linearGradient><linearGradient id="f" x1="493.62" x2="493.552" y1="233.278" y2="256.485" gradientUnits="userSpaceOnUse"><stop stop-color="#9F7052"></stop><stop offset="1" stop-color="#835C44"></stop></linearGradient><linearGradient id="g" x1="492.774" x2="481.053" y1="248.767" y2="128.932" gradientUnits="userSpaceOnUse"><stop stop-color="#346D4D"></stop><stop offset="1" stop-color="#83C556"></stop></linearGradient><linearGradient id="h" x1="65.995" x2="83.602" y1="52.206" y2="254.067" gradientUnits="userSpaceOnUse"><stop stop-color="#FFC000"></stop><stop offset="1" stop-color="#FC880B"></stop></linearGradient><linearGradient id="i" x1="132.965" x2="171.705" y1="39.735" y2="216.558" gradientUnits="userSpaceOnUse"><stop stop-color="#FD0"></stop><stop offset="1" stop-color="#FFB300"></stop></linearGradient><linearGradient id="j" x1="182.862" x2="119.495" y1="151.593" y2="56.142" gradientUnits="userSpaceOnUse"><stop stop-color="#F7F7FF" stop-opacity=".5"></stop><stop offset="1" stop-color="#F7F7FF" stop-opacity="0"></stop></linearGradient><linearGradient id="k" x1="515.543" x2="510.844" y1="196.014" y2="88.049" gradientUnits="userSpaceOnUse"><stop stop-color="#D43939"></stop><stop offset="1" stop-color="#AB2E2E"></stop></linearGradient><linearGradient id="l" x1="451.496" x2="445.759" y1="91.942" y2="266.156" gradientUnits="userSpaceOnUse"><stop stop-color="#D43939"></stop><stop offset="1" stop-color="#AB2E2E"></stop></linearGradient><linearGradient id="m" x1="531.483" x2="497.047" y1="272.986" y2="105.029" gradientUnits="userSpaceOnUse"><stop stop-color="#D43939"></stop><stop offset="1" stop-color="#FF7A45"></stop></linearGradient><linearGradient id="n" x1="516.936" x2="492.075" y1="210.848" y2="89.566" gradientUnits="userSpaceOnUse"><stop stop-color="#F7F7FF" stop-opacity=".5"></stop><stop offset="1" stop-color="#F7F7FF" stop-opacity="0"></stop></linearGradient><linearGradient id="o" x1="238.181" x2="257.483" y1="230.86" y2="272.849" gradientUnits="userSpaceOnUse"><stop stop-color="#094DA3"></stop><stop offset="1" stop-color="#0969E6"></stop></linearGradient><linearGradient id="p" x1="276.427" x2="284.514" y1="126.679" y2="177.014" gradientUnits="userSpaceOnUse"><stop stop-color="#094DA3"></stop><stop offset="1" stop-color="#0969E6"></stop></linearGradient><linearGradient id="q" x1="230.846" x2="281.702" y1="75.551" y2="290.701" gradientUnits="userSpaceOnUse"><stop stop-color="#2EAFFF"></stop><stop offset="1" stop-color="#0969E6"></stop></linearGradient><linearGradient id="r" x1="236.884" x2="266.826" y1="65.893" y2="192.571" gradientUnits="userSpaceOnUse"><stop stop-color="#F7F7FF" stop-opacity=".5"></stop><stop offset="1" stop-color="#F7F7FF" stop-opacity="0"></stop></linearGradient><linearGradient id="s" x1="54.097" x2="56.529" y1="262.495" y2="273.218" gradientUnits="userSpaceOnUse"><stop stop-color="#9F7052"></stop><stop offset="1" stop-color="#835C44"></stop></linearGradient><linearGradient id="t" x1="54.33" x2="54.275" y1="241.378" y2="261.157" gradientUnits="userSpaceOnUse"><stop stop-color="#9F7052"></stop><stop offset="1" stop-color="#835C44"></stop></linearGradient><linearGradient id="u" x1="53.606" x2="43.661" y1="253.945" y2="152.331" gradientUnits="userSpaceOnUse"><stop stop-color="#346D4D"></stop><stop offset="1" stop-color="#83C556"></stop></linearGradient><linearGradient id="v" x1="71.977" x2="73.548" y1="266.853" y2="273.764" gradientUnits="userSpaceOnUse"><stop stop-color="#9F7052"></stop><stop offset="1" stop-color="#835C44"></stop></linearGradient><linearGradient id="w" x1="72.141" x2="72.1" y1="253.234" y2="265.992" gradientUnits="userSpaceOnUse"><stop stop-color="#9F7052"></stop><stop offset="1" stop-color="#835C44"></stop></linearGradient><linearGradient id="x" x1="71.663" x2="65.257" y1="261.334" y2="195.81" gradientUnits="userSpaceOnUse"><stop stop-color="#346D4D"></stop><stop offset="1" stop-color="#83C556"></stop></linearGradient><linearGradient id="y" x1="604.013" x2="606.445" y1="262.495" y2="273.218" gradientUnits="userSpaceOnUse"><stop stop-color="#9F7052"></stop><stop offset="1" stop-color="#835C44"></stop></linearGradient><linearGradient id="z" x1="604.259" x2="604.205" y1="241.378" y2="261.157" gradientUnits="userSpaceOnUse"><stop stop-color="#9F7052"></stop><stop offset="1" stop-color="#835C44"></stop></linearGradient><linearGradient id="A" x1="603.522" x2="593.591" y1="253.945" y2="152.331" gradientUnits="userSpaceOnUse"><stop stop-color="#346D4D"></stop><stop offset="1" stop-color="#83C556"></stop></linearGradient><linearGradient id="B" x1="621.907" x2="623.464" y1="266.853" y2="273.764" gradientUnits="userSpaceOnUse"><stop stop-color="#9F7052"></stop><stop offset="1" stop-color="#835C44"></stop></linearGradient><linearGradient id="C" x1="622.057" x2="622.016" y1="253.234" y2="265.992" gradientUnits="userSpaceOnUse"><stop stop-color="#9F7052"></stop><stop offset="1" stop-color="#835C44"></stop></linearGradient><linearGradient id="D" x1="621.579" x2="615.172" y1="261.334" y2="195.81" gradientUnits="userSpaceOnUse"><stop stop-color="#346D4D"></stop><stop offset="1" stop-color="#83C556"></stop></linearGradient><linearGradient id="E" x1="592.949" x2="619.368" y1="95.371" y2="218.307" gradientUnits="userSpaceOnUse"><stop stop-color="#C2EAFF"></stop><stop offset="1" stop-color="#70C8FF"></stop></linearGradient><linearGradient id="F" x1="421.118" x2="403.701" y1="11.72" y2="70.114" gradientUnits="userSpaceOnUse"><stop stop-color="#FFD000"></stop><stop offset="1" stop-color="#FC880B"></stop></linearGradient><linearGradient id="G" x1="359.693" x2="399.771" y1="46.005" y2="162.561" gradientUnits="userSpaceOnUse"><stop stop-color="#C2EAFF"></stop><stop offset="1" stop-color="#70C8FF"></stop></linearGradient><linearGradient id="H" x1="498.155" x2="505.067" y1="186.999" y2="218.498" gradientUnits="userSpaceOnUse"><stop stop-color="#FD0"></stop><stop offset="1" stop-color="#FFB300"></stop></linearGradient><linearGradient id="I" x1="513.891" x2="516.554" y1="193.597" y2="205.795" gradientUnits="userSpaceOnUse"><stop stop-color="#FD0"></stop><stop offset="1" stop-color="#FFB300"></stop></linearGradient><linearGradient id="J" x1="490.738" x2="494.126" y1="194.717" y2="210.193" gradientUnits="userSpaceOnUse"><stop stop-color="#FD0"></stop><stop offset="1" stop-color="#FFB300"></stop></linearGradient><linearGradient id="K" x1="258.889" x2="247.278" y1="200.686" y2="215.028" gradientUnits="userSpaceOnUse"><stop stop-color="#D43939"></stop><stop offset="1" stop-color="#FF7A45"></stop></linearGradient><linearGradient id="L" x1="279.992" x2="271.127" y1="174.555" y2="215.042" gradientUnits="userSpaceOnUse"><stop stop-color="#D43939"></stop><stop offset="1" stop-color="#FF7A45"></stop></linearGradient><linearGradient id="M" x1="278.64" x2="283.134" y1="183.639" y2="203.049" gradientUnits="userSpaceOnUse"><stop stop-color="#D43939"></stop><stop offset="1" stop-color="#FF7A45"></stop></linearGradient><linearGradient id="N" x1="276.919" x2="270.608" y1="202.079" y2="202.079" gradientUnits="userSpaceOnUse"><stop stop-color="#D43939"></stop><stop offset="1" stop-color="#FF7A45"></stop></linearGradient></defs></svg>