<svg xmlns="http://www.w3.org/2000/svg" width="55" height="52" fill="none" class="icon"><g clip-path="url(#a)"><path fill="#fff" fill-rule="evenodd" d="M27.208 2.734c3.138 2.564 6.964 4.284 12.673 3.694.882 2.135 2.198 3.605 4.447 4.654-2.365 2.77-4.366 6.344-4.724 10.281-.06.672-.987 1.354-.947 2.044.03.497 1.002.998 1.09 1.502.16.923.423 1.856.801 2.796 2.56 6.364 3.83 8.273 1.631 11.822-3.767 4.1-10.536 2.88-14.97 8.274-4.434-5.394-11.203-4.174-14.971-8.274-2.198-3.549-.93-5.459 1.63-11.822.393-.977.66-1.947.82-2.903.106-.636 2.066-.502 2.08-1.124.008-.372-1.902-1.505-1.923-1.872-.241-4.111-2.303-7.852-4.756-10.724 2.312-1.079 3.703-2.59 4.446-4.654 5.709.59 9.535-1.13 12.674-3.694h-.001Z" clip-rule="evenodd"></path><path fill="#0052CC" d="M27.34 2.572c1.55 1.266 3.27 2.325 5.305 2.992 2.037.668 4.391.947 7.214.656l.155-.016.06.145c.432 1.043.967 1.925 1.67 2.67.702.747 1.571 1.361 2.672 1.875l.248.116-.178.208c-1.252 1.467-2.403 3.163-3.254 5.017-.74 1.61-1.256 3.341-1.42 5.149-.034.37-.268.708-.503 1.05-.229.333-.46.667-.442.963.01.174.244.402.48.632.275.267.552.535.606.847.08.458.186.921.32 1.388.131.455.287.911.47 1.367.304.756.58 1.424.835 2.043 2 4.855 2.778 6.738.779 9.965l-.025.032c-1.772 1.93-4.169 2.698-6.682 3.504-2.886.924-5.928 1.9-8.28 4.762l-.162.197-.162-.197c-2.353-2.863-5.395-3.838-8.28-4.762-2.513-.806-4.91-1.574-6.682-3.504l-.024-.032c-1.999-3.227-1.223-5.11.78-9.965.254-.619.53-1.287.835-2.043a13.857 13.857 0 0 0 .807-2.86c.075-.453.655-.595 1.224-.735.429-.105.849-.208.852-.36.002-.085-.45-.44-.899-.791-.506-.398-1.007-.79-1.023-1.065-.11-1.88-.608-3.683-1.352-5.36-.862-1.945-2.053-3.715-3.355-5.24l-.178-.208.248-.116c1.13-.528 2.036-1.16 2.748-1.913.71-.75 1.23-1.619 1.59-2.623l.056-.155.163.018c2.822.29 5.177.012 7.213-.656 2.036-.668 3.756-1.726 5.306-2.992l.133-.108.133.108v-.003Zm5.174 3.39c-2.03-.665-3.753-1.709-5.306-2.96-1.554 1.251-3.277 2.294-5.306 2.96-2.05.673-4.411.962-7.227.69a7.73 7.73 0 0 1-1.623 2.616c-.695.734-1.562 1.359-2.63 1.886 1.258 1.508 2.406 3.24 3.245 5.134.763 1.719 1.273 3.57 1.386 5.507.005.084.432.42.864.758.53.415 1.065.835 1.059 1.129-.012.473-.586.614-1.171.757-.437.107-.882.215-.912.396a13.858 13.858 0 0 1-.832 2.948c-.29.721-.575 1.41-.837 2.048-1.94 4.704-2.694 6.534-.82 9.57 1.695 1.836 4.035 2.587 6.488 3.373 2.877.922 5.908 1.895 8.314 4.704 2.407-2.808 5.436-3.782 8.315-4.703 2.452-.787 4.792-1.538 6.486-3.374 1.874-3.037 1.121-4.866-.82-9.57-.262-.637-.545-1.326-.835-2.048a14.19 14.19 0 0 1-.814-2.838c-.031-.178-.259-.4-.484-.619-.294-.285-.587-.57-.607-.906-.027-.438.246-.832.517-1.224.203-.297.407-.59.43-.851.17-1.857.698-3.633 1.456-5.284.83-1.805 1.933-3.461 3.143-4.908-1.036-.512-1.871-1.12-2.556-1.849-.705-.75-1.25-1.626-1.69-2.654-2.82.273-5.183-.016-7.234-.688Z"></path><path fill="#fff" fill-rule="evenodd" d="m27.245 46.077-.023.014c-4.026-4.211-10.594-3.948-13.416-6.625-2.822-2.678-.64-6.437 1.334-11.539 1.976-5.101 1.213-11.117-3.162-16.316 1.527-1.15 2.71-2.346 3.249-3.693 4.6.057 8.566-1.164 11.982-3.467v-.005l.004.003.003-.003v.005c3.415 2.304 7.374 3.524 11.974 3.467.538 1.347 1.722 2.544 3.249 3.693-4.508 5.088-5.234 11.097-3.163 16.316 2.07 5.22 4.157 8.86 1.334 11.539-2.821 2.677-9.339 2.4-13.364 6.61h-.001Z" clip-rule="evenodd"></path><mask id="b" width="32" height="43" x="11" y="4" maskUnits="userSpaceOnUse" style="mask-type:luminance;"><path fill="#fff" d="m27.245 46.077-.023.014c-4.026-4.211-10.594-3.948-13.416-6.625-2.822-2.678-.64-6.437 1.334-11.539 1.976-5.101 1.213-11.117-3.162-16.316 1.527-1.15 2.71-2.346 3.249-3.693 4.6.057 8.566-1.164 11.982-3.467v-.005l.004.003.003-.003v.005c3.415 2.304 7.374 3.524 11.974 3.467.538 1.347 1.722 2.544 3.249 3.693-4.508 5.088-5.234 11.097-3.163 16.316 2.07 5.22 4.157 8.86 1.334 11.539-2.821 2.677-9.339 2.4-13.364 6.61h-.001Z"></path></mask><g fill="#0052CC" fill-rule="evenodd" clip-rule="evenodd" mask="url(#b)"><path d="M16.803 0h-1.601v50.536h1.6V0ZM20.004 0h-1.6v50.536h1.6V0ZM23.206 0h-1.601v50.536h1.601V0ZM26.407 0h-1.6v50.536h1.6V0ZM29.61 0h-1.602v50.536h1.601V0ZM32.81 0h-1.6v50.536h1.6V0ZM36.011 0H34.41v50.536h1.601V0ZM39.213 0h-1.6v50.536h1.6V0ZM42.415 0h-1.601v50.536h1.601V0ZM13.601 0H12v50.536h1.601V0Z"></path></g><path fill="#0052CC" d="m27.345 46.261-.015.009a.21.21 0 0 1-.27-.044c-2.223-2.32-5.254-3.263-7.977-4.11-2.171-.676-4.15-1.292-5.422-2.5-2.525-2.397-1.239-5.546.447-9.677.278-.68.566-1.39.837-2.087a14.922 14.922 0 0 0 .74-8.273c-.516-2.67-1.774-5.345-3.867-7.833a.208.208 0 0 1 .025-.294c.007-.005.012-.01.019-.013.75-.567 1.416-1.142 1.956-1.74.538-.592.955-1.209 1.215-1.857l.194.077-.196-.078a.21.21 0 0 1 .217-.13c2.27.026 4.385-.263 6.355-.842a19.668 19.668 0 0 0 5.455-2.57.21.21 0 0 1 .151-.062h.006c.055 0 .111.02.152.063a19.654 19.654 0 0 0 5.45 2.57c1.974.58 4.093.868 6.37.84a.207.207 0 0 1 .203.149c.26.642.676 1.252 1.208 1.84.542.6 1.211 1.178 1.966 1.747a.209.209 0 0 1 .019.318c-2.147 2.426-3.421 5.062-3.936 7.718-.551 2.842-.231 5.71.824 8.37.282.71.542 1.337.79 1.94 1.767 4.276 3.055 7.396.494 9.826-1.273 1.207-3.241 1.82-5.4 2.493-2.713.845-5.734 1.786-7.958 4.112a.23.23 0 0 1-.052.04v-.002Zm-8.137-4.545c2.716.845 5.736 1.785 8.018 4.08 2.283-2.305 5.293-3.242 8.003-4.086 2.11-.657 4.035-1.256 5.236-2.395 2.355-2.235 1.112-5.241-.592-9.364-.264-.642-.54-1.31-.793-1.946-1.083-2.732-1.411-5.68-.846-8.601.518-2.671 1.783-5.319 3.898-7.76-.699-.54-1.323-1.09-1.844-1.665-.534-.59-.957-1.202-1.238-1.85-2.267.014-4.382-.279-6.351-.859a20.088 20.088 0 0 1-5.487-2.57 20.092 20.092 0 0 1-5.492 2.57c-1.971.58-4.086.873-6.355.858-.28.649-.704 1.262-1.238 1.85-.521.577-1.148 1.129-1.849 1.668 2.058 2.498 3.3 5.178 3.82 7.855a15.337 15.337 0 0 1-.763 8.502c-.29.75-.57 1.434-.84 2.094-1.624 3.981-2.863 7.018-.545 9.219 1.2 1.14 3.135 1.741 5.257 2.402v-.002ZM39.39 7.858a.162.162 0 0 1 .009.057l-.009-.057Z"></path><path fill="#fff" d="m31.683 39.41.01-.014a.192.192 0 0 1 .036-.053.211.211 0 0 1 .298-.006l-.147.15.147-.15a1.168 1.168 0 0 0 .436.267.85.85 0 0 0 .256.044.429.429 0 0 0 .175-.031c.02-.01.041-.02.061-.034.005-.004.009-.008.014-.01l.116.175-.115-.175a.713.713 0 0 0 .168-.16.233.233 0 0 1 .059-.062.611.611 0 0 0 .21-.258c.019-.049.031-.1.035-.15a.418.418 0 0 0-.013-.137.21.21 0 0 1 .028-.185c.007-.008.011-.016.018-.026l.005-.008a.714.714 0 0 1 .013-.021l.003-.01h.001v-.003h.001l.004-.01.003-.003a.21.21 0 0 1 .33-.087l-.135.16.135-.159c.084.07.17.125.255.166.093.046.186.076.275.095.1.02.194.023.278.013a.431.431 0 0 0 .168-.05l.011-.008a.748.748 0 0 0 .13-.114.953.953 0 0 0 .048-.063.365.365 0 0 0 .032-.057.216.216 0 0 1 .049-.07l.146.149-.145-.15a.648.648 0 0 0 .108-.141.519.519 0 0 0 .067-.304.446.446 0 0 0-.032-.123.209.209 0 0 1-.002-.19l.015-.03c0-.005.004-.01.004-.016l.008.003-.007-.003a.381.381 0 0 0 .012-.035l.003-.012.003-.01.003-.01.004-.016a.21.21 0 0 1 .305-.149 1.224 1.224 0 0 0 .548.148.93.93 0 0 0 .3-.04.413.413 0 0 0 .178-.099.83.83 0 0 0 .052-.064c.015-.02.028-.043.042-.067l.008-.016a.517.517 0 0 0 .028-.062l.019-.06a.214.214 0 0 1 .03-.083h.002a.642.642 0 0 0 .073-.16.527.527 0 0 0-.006-.308.394.394 0 0 0-.057-.11.212.212 0 0 1-.05-.188h.001a.833.833 0 0 0 .011-.075c.003-.023.003-.043.003-.064l-.002-.012h.007-.007c0-.01 0-.02-.002-.03l-.003-.011c-.002-.011-.003-.024-.007-.036a.21.21 0 0 1 .231-.261c.102.013.199.015.29.006.097-.007.187-.027.27-.055a.91.91 0 0 0 .266-.139.393.393 0 0 0 .153-.226.56.56 0 0 0 .015-.084.627.627 0 0 0 0-.14.189.189 0 0 1-.001-.089.56.56 0 0 0-.03-.335.476.476 0 0 0-.175-.213.212.212 0 0 1-.113-.157l.208-.03-.208.03a.533.533 0 0 0-.095-.233.439.439 0 0 0-.207-.156.466.466 0 0 0-.264-.02.592.592 0 0 0-.227.104.21.21 0 0 1-.18.052.498.498 0 0 0-.301.04.614.614 0 0 0-.258.226.228.228 0 0 1-.053.06l-.129-.166.128.165a.567.567 0 0 0-.113.114c-.015.019-.028.04-.042.06l-.005.011c-.012.019-.022.04-.032.062l-.005.012a.35.35 0 0 0-.017.142l.002.008a.7.7 0 0 0 .055.22.967.967 0 0 0 .182.281c.059.057.081.145.05.227a.211.211 0 0 1-.272.119.453.453 0 0 0-.111-.03.598.598 0 0 0-.297.036.687.687 0 0 0-.147.078.207.207 0 0 1-.076.043.672.672 0 0 0-.291.186.345.345 0 0 0-.057.105c0 .004-.002.008-.004.014a.684.684 0 0 0-.031.209.994.994 0 0 0 .076.373.21.21 0 0 1-.174.3h-.006l-.008.001h-.011a.206.206 0 0 1-.168-.053l.125-.134-.124.133a.46.46 0 0 0-.121-.08.602.602 0 0 0-.33-.041.63.63 0 0 0-.167.048.216.216 0 0 1-.078.022l-.019-.209.019.208a.695.695 0 0 0-.319.114.35.35 0 0 0-.097.112.839.839 0 0 0-.102.39.991.991 0 0 0 .012.194.21.21 0 0 1-.233.254h.001l-.027-.004h-.019a.209.209 0 0 1-.163-.08.452.452 0 0 0-.108-.096.55.55 0 0 0-.32-.09.684.684 0 0 0-.175.024.212.212 0 0 1-.078.01.618.618 0 0 0-.155.009l-.011.003-.038-.206.038.205a.673.673 0 0 0-.167.055.393.393 0 0 0-.127.11.722.722 0 0 0-.113.215 1.001 1.001 0 0 0-.053.428.21.21 0 0 1-.248.242.21.21 0 0 1-.156-.105.437.437 0 0 0-.09-.11.554.554 0 0 0-.29-.13l-.011-.003a.652.652 0 0 0-.172-.003.22.22 0 0 1-.085 0 .555.555 0 0 0-.08-.013l-.072-.002h-.013l-.009-.208.008.208a.538.538 0 0 0-.089.01.583.583 0 0 0-.072.016l-.012.004a.426.426 0 0 0-.17.116.814.814 0 0 0-.16.249 1.007 1.007 0 0 0-.072.28 1.2 1.2 0 0 0 0 .291.21.21 0 0 1-.116.233l-.09-.19.09.19a3.316 3.316 0 0 0-1.467 1.322c-.136.219-.26.469-.373.752v.554c.063-.128.129-.25.198-.365.175-.294.366-.549.57-.771.199-.215.411-.4.634-.56.212-.154.438-.288.671-.405a.214.214 0 0 1 .261.028c.05.052.104.096.158.132l.014.009c.064.043.126.075.187.099.07.029.14.045.203.051a.38.38 0 0 0 .228-.04.885.885 0 0 0 .078-.043l.068-.048.05-.045a.203.203 0 0 1 .065-.052l.096.186-.096-.185a.62.62 0 0 0 .249-.227l.005-.011a.448.448 0 0 0 .061-.27.216.216 0 0 1 .056-.176l.004.004-.003-.004.018-.019.008-.01.027-.033.012-.018.004-.008-.004.005Zm.29.417a.897.897 0 0 1-.11.324.997.997 0 0 1-.396.384 1.049 1.049 0 0 1-.442.263.788.788 0 0 1-.31.026c-.1-.01-.21-.035-.319-.078a1.453 1.453 0 0 1-.263-.14l.116-.172-.117.173a1.828 1.828 0 0 1-.12-.088 4.464 4.464 0 0 0-.504.315c-.2.144-.39.31-.57.504-.185.2-.359.431-.518.7-.161.27-.306.58-.436.932l-.197-.07.198.071a.211.211 0 0 1-.242.133l-.127-.022a.208.208 0 0 1-.174-.21v-1.264c0-.017.002-.035.007-.052l.002-.011a.192.192 0 0 1 .016-.05c.123-.31.26-.585.41-.83.154-.25.321-.467.499-.656.173-.183.356-.34.549-.477.15-.106.306-.2.467-.283a1.469 1.469 0 0 1 .116-.654c.061-.15.146-.275.24-.373a.853.853 0 0 1 .348-.23l.017-.004a1.07 1.07 0 0 1 .263-.042c.006-.002.012-.002.018-.002a1.18 1.18 0 0 1 .215.015 1.145 1.145 0 0 1 .282.008c.094.015.185.042.27.08l.061.032c.013-.056.029-.11.046-.16.045-.128.108-.241.18-.332a.782.782 0 0 1 .407-.283c.044-.015.09-.026.137-.036l.012-.003.121-.015c.034-.002.066-.002.098-.002a1.096 1.096 0 0 1 .56.009.982.982 0 0 1 .151.057 1.114 1.114 0 0 1 .153-.464.773.773 0 0 1 .346-.313 1.02 1.02 0 0 1 .262-.092 1.51 1.51 0 0 1 .096-.016l-1.818 3.4v-.002Zm2.073-3.471a1.052 1.052 0 0 1 .391.015 1.192 1.192 0 0 1 .047-.438l.007-.017a.726.726 0 0 1 .154-.266l.154.142-.154-.143a.946.946 0 0 1 .22-.178 1.4 1.4 0 0 1 .12-.064.835.835 0 0 1 .093-.038 1.04 1.04 0 0 1 .452-.18l-.008-.022c-.052-.12-.081-.24-.09-.35v-.012a.734.734 0 0 1 .046-.328l.006-.014a.952.952 0 0 1 .056-.11l.034.019-.035-.02.01-.014a.965.965 0 0 1 .16-.205 1.14 1.14 0 0 1 .069-.064 1.036 1.036 0 0 1 .695-.437c.062-.008.124-.01.187-.007a.84.84 0 0 1 .123-.068.893.893 0 0 1 .218-.073.91.91 0 0 1 .715.156c.067.051.127.111.176.18a.874.874 0 0 1 .155.328.9.9 0 0 1 .275.362c.04.09.065.186.073.284.008.084.005.172-.01.259a1.03 1.03 0 0 1-.067.5.82.82 0 0 1-.256.321 1.293 1.293 0 0 1-.392.206 1.59 1.59 0 0 1-.493.082v.019c-.003.013-.004.027-.005.04a.918.918 0 0 1 .087.724c-.024.083-.06.164-.104.24a1.134 1.134 0 0 1-.082.212l-.008.01a1.025 1.025 0 0 1-.156.219.84.84 0 0 1-.355.21 1.344 1.344 0 0 1-.44.062 1.683 1.683 0 0 1-.374-.055c-.023-.005-.047-.013-.07-.02a.855.855 0 0 1-.007.334.944.944 0 0 1-.104.274 1.104 1.104 0 0 1-.157.21 1.46 1.46 0 0 1-.13.189.988.988 0 0 1-.1.1.978.978 0 0 1-.112.088c-.007.005-.014.008-.022.012a.839.839 0 0 1-.342.114c-.123.015-.263.01-.41-.02a1.594 1.594 0 0 1-.378-.128l-.046-.025a.94.94 0 0 1-.21.522 1.015 1.015 0 0 1-.182.177 1.133 1.133 0 0 1-.394.321.84.84 0 0 1-.357.072c-.12 0-.25-.02-.383-.064a1.516 1.516 0 0 1-.317-.146l-.044-.027 2.074-3.471h-.003Z"></path><path fill="#0052CC" d="M31.88 39.488a.544.544 0 0 1-.043.07.902.902 0 0 1-.072.085.654.654 0 0 1-.086.404.829.829 0 0 1-.341.32.875.875 0 0 1-.376.232c-.127.039-.304.026-.49-.048a1.29 1.29 0 0 1-.428-.285c-.457.23-.883.522-1.262.931-.39.421-.728.97-.997 1.704l-.135-.024v-1.268l.004-.025c.239-.609.535-1.073.872-1.431a3.55 3.55 0 0 1 1.083-.78 1.34 1.34 0 0 1 .086-.696c.11-.258.293-.433.46-.484a.942.942 0 0 1 .444-.023.864.864 0 0 1 .471.068c.134.06.246.156.317.279l.016.003c-.02-.199.006-.38.059-.533.077-.219.21-.379.349-.444a.911.911 0 0 1 .436-.086.864.864 0 0 1 .475-.002c.142.04.267.12.356.23.026 0 .05.004.074.006a1.184 1.184 0 0 1 .01-.477c.048-.202.148-.358.264-.436a.877.877 0 0 1 .418-.15.873.873 0 0 1 .47-.07c.148.02.283.08.388.178a.226.226 0 0 1 .036-.003 1.23 1.23 0 0 1-.097-.463c0-.207.062-.379.156-.48a.875.875 0 0 1 .374-.234c.133-.1.29-.158.444-.169a.74.74 0 0 1 .326.046 1.249 1.249 0 0 1-.229-.35c-.085-.204-.096-.398-.042-.53a.856.856 0 0 1 .264-.346.827.827 0 0 1 .352-.31.722.722 0 0 1 .425-.057.788.788 0 0 1 .33-.154.684.684 0 0 1 .379.028.66.66 0 0 1 .301.227c.07.094.116.207.133.327a.67.67 0 0 1 .272.319.773.773 0 0 1 .044.456.78.78 0 0 1 .003.21.76.76 0 0 1-.054.217c-.063.155-.252.319-.522.409a1.458 1.458 0 0 1-.65.057.726.726 0 0 1-.003.329.66.66 0 0 1 .138.391.784.784 0 0 1-.128.443.83.83 0 0 1-.204.382c-.116.123-.353.212-.636.205a1.462 1.462 0 0 1-.64-.172.72.72 0 0 1-.063.186c.059.128.072.272.043.411a.8.8 0 0 1-.229.404.858.858 0 0 1-.286.329c-.133.089-.36.126-.616.075a1.407 1.407 0 0 1-.623-.305.63.63 0 0 1-.073.127.652.652 0 0 1-.028.43.805.805 0 0 1-.28.35.872.872 0 0 1-.336.283c-.139.066-.356.071-.587-.004a1.38 1.38 0 0 1-.518-.314l.002.002Z"></path><path fill="#fff" fill-rule="evenodd" d="M19.053 37.974a12.896 12.896 0 0 1-.645-.57 2.304 2.304 0 0 1-1.18-.407 2.449 2.449 0 0 1-.863-1.054c-.239-.555-.292-1.02-.295-1.612 0-.104 0-.21-.01-.315l-.013-.128.37-.136.075.106c.256.367.578.59.946.831.427.281.797.533 1.007 1.021.187.433.3.748.318 1.217.218.172.442.337.675.492a2.065 2.065 0 0 1-.34-.82c-.095-.573-.032-1.02.106-1.574.024-.097.05-.196.064-.296l.02-.126.391-.044.047.12c.16.405.439.736.719 1.065.332.392.672.789.758 1.31.075.446.084.749-.05 1.178l-.013.04.083.026c.091.029.183.056.276.078.192.048.386.09.58.127a1.623 1.623 0 0 1-.359-.432c-.27-.482-.353-.895-.396-1.433-.008-.092-.015-.188-.03-.278l-.023-.125.35-.168.084.095c.283.317.654.532 1.019.742.427.246.884.505 1.133.949.215.38.313.652.31 1.086v.006c.546.165 1.052.397 1.5.76.593.481.986 1.114 1.263 1.817l.005.015.012.056v1.423l-.414.073-.048-.132c-.252-.69-.609-1.326-1.147-1.834-.399-.376-.855-.643-1.352-.857-.21.293-.502.544-.811.72-.352.2-.768.326-1.176.281-.566-.062-.988-.248-1.48-.513-.09-.049-.183-.1-.277-.142l-.117-.052.058-.386.128-.015c.376-.043.69-.185 1.029-.346.2-.093.388-.181.582-.243a13.428 13.428 0 0 1-.564-.197 5.863 5.863 0 0 1-.425-.18c-.087-.041-.173-.082-.258-.127a2.288 2.288 0 0 1-.924.598 2.217 2.217 0 0 1-1.29.069c-.589-.152-1.01-.404-1.495-.75-.09-.064-.18-.13-.273-.188l-.112-.067.115-.378.131.006c.42.02.763-.077 1.156-.2.376-.116.704-.212 1.071-.184v.002Z" clip-rule="evenodd"></path><path fill="#0052CC" d="M23.92 40.058a2.345 2.345 0 0 1-.83.781c-.337.191-.718.3-1.074.26-.63-.067-1.079-.31-1.419-.494a4.355 4.355 0 0 0-.288-.148l.02-.133c.421-.049.762-.209 1.081-.36.394-.186.758-.359 1.22-.309.073.008.14.016.203.025l-.24-.075c-.39-.12-.785-.242-1.177-.39a5.743 5.743 0 0 1-.783-.362 2.072 2.072 0 0 1-.939.652 2.048 2.048 0 0 1-1.192.065c-.668-.172-1.106-.486-1.439-.724-.104-.075-.197-.143-.286-.195l.04-.13c.476.024.858-.095 1.214-.206.424-.132.813-.252 1.295-.128.186.049.34.097.472.143a12.001 12.001 0 0 1-1.321-1.093 2.123 2.123 0 0 1-1.154-.38 2.294 2.294 0 0 1-.805-.983c-.275-.637-.28-1.153-.282-1.546 0-.122-.002-.232-.011-.328l.127-.047c.29.412.653.652.991.875.391.256.75.493.945.947.286.662.295.889.305 1.158l.003.078c.343.275.716.54 1.106.774.21.126.424.243.642.347-.486-.406-.973-.902-1.082-1.562-.109-.653.011-1.136.102-1.504.029-.114.054-.219.069-.311l.134-.015c.173.436.468.784.747 1.113.332.39.642.756.721 1.227.105.625.028.866-.045 1.102-.02.062-.04.126-.055.196a5.024 5.024 0 0 0 .521.16c.39.096.782.167 1.168.238.12.022.238.042.356.065-.445-.198-.88-.43-1.116-.852-.31-.55-.348-1.013-.376-1.365a3.746 3.746 0 0 0-.032-.294l.121-.059c.301.339.691.563 1.06.776.437.253.848.49 1.07.885.293.52.291.77.29 1.005 0 .044 0 .087.002.133.564.159 1.093.386 1.562.764.48.39.895.941 1.211 1.747l.005.025v1.268l-.136.024c-.31-.852-.717-1.454-1.19-1.9-.456-.43-.976-.717-1.53-.943l-.001.003Z"></path><path fill="#fff" fill-rule="evenodd" d="M18.389 36.929c-.64.018-1.304-.374-1.627-1.032-.323-.658-.263-1.156-.313-1.481.542.708 1.306.766 1.629 1.425.323.657.262.763.312 1.088h-.001ZM20.784 38.047c-.483-.347-1.14-.775-1.285-1.444-.146-.669.033-1.124.065-1.436.34.752 1.113 1.128 1.259 1.796.145.669-.006.773-.038 1.084ZM20.353 38.734c-.3.496-1.079.84-1.79.653-.711-.185-1.101-.555-1.398-.73.86.054 1.335-.416 2.045-.23.712.185.845.37 1.143.306v.001ZM23.744 38.883c-.513-.302-1.336-.415-1.67-.96-.336-.543-.289-.982-.346-1.26.552.57 1.423.707 1.759 1.252.335.544.201.69.258.968ZM26.616 42.4v-.539c-1.05-2.68-3.196-2.64-5.269-3.15-.639-.159-1.274-.485-1.865-.848.632.494 1.32.919 2.012 1.18 1.98.743 4.026.84 5.122 3.357Z" clip-rule="evenodd"></path><path fill="#fff" fill-rule="evenodd" d="M23.747 39.882c-.23.538-1.062 1.098-1.715 1.026-.653-.07-1.032-.374-1.313-.5.777-.084 1.256-.59 1.909-.52.653.072.754.165 1.12-.007ZM27.811 42.4c.535-1.23 1.297-1.881 2.168-2.313a1.454 1.454 0 0 1-.232-.44 1.786 1.786 0 0 1-.038-.128c-.777.374-1.44.996-1.898 2.163v.718ZM31.688 39.049a.509.509 0 0 1-.117.515.522.522 0 0 1-.325.584c.07-.083.103-.165.084-.221-.042-.127-.137-.2-.267-.246a.593.593 0 0 0 .034-.448.626.626 0 0 0-.302-.346c.08-.109.112-.223.07-.35-.02-.056-.098-.104-.206-.132a.553.553 0 0 1 .62.29.539.539 0 0 1 .41.353l-.002.001ZM36.081 36.312a.629.629 0 0 1 .212.418.446.446 0 0 1 .372.086c.094.08.069.357-.11.548-.16.17-.652.242-1.125-.066a.524.524 0 0 0-.1-.263.599.599 0 0 0-.364-.225c-.194-.35-.156-.697-.024-.838.177-.189.463-.243.557-.163a.411.411 0 0 1 .128.346c.17 0 .331.05.456.158l-.002-.001ZM34.563 37.558a.632.632 0 0 1 .11.458.445.445 0 0 1 .348.164c.074.099-.016.368-.237.518-.197.133-.69.099-1.083-.294a.53.53 0 0 0-.054-.328.59.59 0 0 0-.302-.267c-.11-.39.01-.724.171-.833.22-.15.515-.142.588-.041.075.1.089.236.046.368a.683.683 0 0 1 .414.254h-.001ZM32.807 38.48a.612.612 0 0 1 .037.46c.14.026.255.1.31.207.058.108-.072.354-.309.468-.194.093-.618.011-.932-.352a.524.524 0 0 0-.012-.289.573.573 0 0 0-.294-.324c-.09-.439.09-.79.278-.88.236-.114.519-.065.576.043a.4.4 0 0 1-.014.364.643.643 0 0 1 .36.303Z" clip-rule="evenodd"></path><path fill="#fff" fill-rule="evenodd" d="M30.99 39.266a.586.586 0 0 1-.035.448c.13.045.23.134.27.245.037.112-.126.333-.372.409-.246.076-.776-.143-.982-.756-.207-.614.09-1.089.336-1.165.246-.075.513.012.55.124.038.112.01.24-.07.349a.628.628 0 0 1 .303.344v.002ZM36.588 35.771a.527.527 0 0 1 .174.518.527.527 0 0 1 .025.682c.019-.109.004-.198-.043-.24-.107-.09-.232-.11-.372-.085a.629.629 0 0 0-.212-.418.682.682 0 0 0-.456-.157c.011-.137-.02-.254-.128-.346-.046-.04-.142-.045-.254-.017a.585.585 0 0 1 .71-.048.586.586 0 0 1 .556.11v.001ZM35.188 37.134a.527.527 0 0 1 .05.55.534.534 0 0 1-.135.678c.044-.104.05-.196.012-.245-.082-.113-.203-.158-.347-.165a.623.623 0 0 0-.111-.458.67.67 0 0 0-.413-.254c.042-.133.038-.257-.046-.37-.036-.05-.128-.075-.246-.071a.59.59 0 0 1 .712.106.58.58 0 0 1 .522.23h.002ZM33.478 38.159a.518.518 0 0 1-.036.539.526.526 0 0 1-.235.637c.058-.094.078-.183.05-.236-.062-.121-.171-.182-.31-.208a.611.611 0 0 0-.036-.46.651.651 0 0 0-.36-.303c.061-.123.074-.242.012-.363-.028-.053-.113-.091-.227-.103a.572.572 0 0 1 .672.203.56.56 0 0 1 .47.295v-.001ZM37.07 34.608c.162.054.286.17.365.318a.469.469 0 0 1 .39-.063c.12.043.204.319.107.569-.087.225-.53.485-1.102.371a.56.56 0 0 0-.2-.214.607.607 0 0 0-.435-.075c-.324-.26-.42-.608-.35-.792.098-.251.35-.413.471-.372a.423.423 0 0 1 .257.282.702.702 0 0 1 .497-.025Z" clip-rule="evenodd"></path><path fill="#fff" fill-rule="evenodd" d="M37.346 33.895a.543.543 0 0 1 .366.429.543.543 0 0 1 .29.643c-.026-.112-.074-.192-.135-.213-.138-.047-.266-.016-.39.062a.655.655 0 0 0-.364-.319.705.705 0 0 0-.499.025c-.043-.134-.119-.235-.256-.282-.061-.02-.154.012-.25.082a.604.604 0 0 1 .662-.32.6.6 0 0 1 .576-.107ZM27.208 16.562c5.115 0 9.26 4.133 9.26 9.232 0 5.1-4.145 9.232-9.26 9.232s-9.262-4.133-9.262-9.232c0-5.099 4.146-9.232 9.262-9.232Z" clip-rule="evenodd"></path><path fill="#0052CC" fill-rule="evenodd" d="M33.752 31.635c2.223.262 4.43-1.102 5.155-3.121 1.464.415 2.557-.469 3.35-1.596l-.298.009a3.27 3.27 0 0 0 1.4-.957l.444-.503-.143.008c.694-.283 1.238-.795 1.67-1.6l.293-.543-.601.141c-.867.203-1.73.32-2.61.363-1.09.055-2.08-.04-3.156-.093.031-.139-.003-.274-.028-.38v-.006l-.019-.07.436.053c1.5.183 2.808.228 3.856.073 1.097-.164 1.918-.549 2.387-1.226l.337-.487c.688-.156 1.534-.374 2.569-1.69 1.517-.312 1.976-.861 2.726-1.866 1.271-.357 2.28-1.11 2.767-2.38l.19-.493-.515.123c-.984.232-2.04.36-3.163.425-1.083.06-2.224.062-3.416.04.096-.136.186-.283.264-.44l.223-.437-.49.034a42.34 42.34 0 0 1-2.638.11c-.627.004-1.3-.015-1.93-.065.271-.221.46-.282.67-.371-5.384-.842-5.67 1.117-5.783 3.162-.077 1.382-.012 2.886-2.135 3.655l-.53.227c1.206 2.391 1.678 7.281-1.28 9.902h-.002Z" clip-rule="evenodd"></path><path fill="#fff" fill-rule="evenodd" d="M35.194 29.752c.463-.767 1.581-3.845.47-6.73.307.364 2.42.629 3.222.418.026.105.078.235-.016.337-1.816 1.26-1.695 5.107-3.675 5.975h-.001ZM45.833 17.088a2.08 2.08 0 0 0 1.219-.925c2.523.055 4.82.005 6.818-.467-.7 1.82-3.021 3.027-8.819 2.426.291-.267.556-.602.782-1.033v-.001Z" clip-rule="evenodd"></path><path fill="#fff" fill-rule="evenodd" d="M50.869 18.306c-2.024.358-4.417.373-5.95.062a2.793 2.793 0 0 1-.808.602c-.14.422-.546.871-.778 1.034 2.549.128 6.254.338 7.536-1.7v.002Z" clip-rule="evenodd"></path><path fill="#fff" fill-rule="evenodd" d="M41.492 21.64c.698-.413 1.102-.786 1.495-1.305 1.752.2 3.614.076 5.194-.185-1.193 1.516-3.651 1.879-6.689 1.49ZM39.732 23.032c.535-.21 1.141-.632 1.428-1.01a9.598 9.598 0 0 0 4.44-.062c-.841 1.216-2.917 1.431-5.868 1.072ZM40.054 16.678c3.226.984 6.108.905 7.188-1.355-1.815.122-3.734.207-5.46-.024-.54-.033-1.934.919-1.73 1.379h.002Z" clip-rule="evenodd"></path><path fill="#fff" fill-rule="evenodd" d="M45.192 17.49c-1.778.18-3.673.019-5.187-.59-.214.463-.214 1.383-.347 1.872 2.437.54 4.415.15 5.534-1.28v-.001Z" clip-rule="evenodd"></path><path fill="#fff" fill-rule="evenodd" d="M39.128 20.557c.231-.267.439-.977.506-1.429 1.3.338 2.843.175 4.077-.11-.827 1.312-2.63 1.836-4.583 1.539ZM38.053 21.948c.44-.352.774-.717.982-1.146.817.298 2.21.112 3.183-.174-1.103 1.24-2.761 1.424-4.165 1.32ZM36.448 23.032c.526-.225 1.036-.491 1.3-.831.77.232 2.185.032 2.826-.154-.82.934-2.745 1.375-4.126.985Z" clip-rule="evenodd"></path><path fill="#fff" fill-rule="evenodd" d="M36.079 22.858c-.378-.219-.635-.555-.847-.937 5.793-1.68-.814-7.964 7.701-7.124-6.394.628-.735 5.063-6.854 8.06ZM39.445 25.198c.035-.376.037-.752.006-1.127 1.914.18 3.713.117 5.478-.295-1.005 1.871-2.651 2.014-5.484 1.422ZM39.306 26.684c.082-.356.137-.84.128-1.151 1.064.315 2.248.363 3.558.284-.92 1.041-2.116 1.26-3.686.868ZM38.986 28.134c.108-.338.202-.688.26-1.06.754.17 1.465.2 2.217.173-.716.81-1.513 1.16-2.477.887ZM39.058 24.042c.221 5.058-1.842 7.268-4.916 7.333.174-.242.511-.664.83-1.206 2.766-.704 2.521-5.093 4.086-6.127Z" clip-rule="evenodd"></path><path fill="#0052CC" fill-rule="evenodd" d="M35.841 28.807c.447-.71.983-3.792.328-5.294.527.288 1.818.327 2.232.199.02.081-.032.143-.105.222-1.24 1.055-1.51 3.918-2.454 4.873ZM20.724 31.635c-2.223.262-4.43-1.102-5.155-3.121-1.464.415-2.557-.469-3.351-1.596l.3.009a3.272 3.272 0 0 1-1.4-.957l-.446-.503.143.008c-.692-.283-1.238-.795-1.67-1.6l-.291-.543.601.141c.869.203 1.73.32 2.609.363 1.092.055 2.08-.04 3.157-.093a.818.818 0 0 1 .028-.38l.002-.006.017-.07-.436.053c-1.498.183-2.807.228-3.854.073-1.097-.164-1.917-.549-2.387-1.226l-.338-.487c-.687-.156-1.533-.374-2.569-1.69-1.516-.312-1.976-.861-2.726-1.866-1.271-.357-2.28-1.11-2.768-2.38L0 15.271l.515.123c.983.232 2.04.36 3.162.425a45.95 45.95 0 0 0 3.417.04 3.55 3.55 0 0 1-.265-.44l-.222-.437.49.034c.91.06 1.784.107 2.64.11.626.004 1.299-.015 1.928-.065-.271-.221-.458-.282-.67-.371 5.384-.842 5.67 1.117 5.784 3.162.077 1.382.012 2.886 2.135 3.655l.53.227c-1.206 2.391-1.678 7.281 1.282 9.902h-.003Z" clip-rule="evenodd"></path><path fill="#fff" fill-rule="evenodd" d="M19.282 29.752c-.463-.767-1.58-3.845-.47-6.73-.307.364-2.42.629-3.22.418-.027.105-.08.235.014.337 1.817 1.26 1.696 5.107 3.676 5.975ZM8.643 17.088a2.081 2.081 0 0 1-1.218-.925c-2.524.055-4.822.005-6.819-.467.7 1.82 3.021 3.027 8.82 2.426a3.718 3.718 0 0 1-.783-1.033v-.001Z" clip-rule="evenodd"></path><path fill="#fff" fill-rule="evenodd" d="M3.607 18.306c2.025.358 4.416.373 5.95.062.167.188.504.463.808.602.14.422.547.871.778 1.034-2.549.128-6.253.338-7.536-1.7v.002Z" clip-rule="evenodd"></path><path fill="#fff" fill-rule="evenodd" d="M12.983 21.64c-.697-.413-1.1-.786-1.495-1.305-1.753.2-3.614.076-5.194-.185 1.193 1.516 3.652 1.879 6.689 1.49ZM14.743 23.032c-.535-.21-1.142-.632-1.427-1.01a9.602 9.602 0 0 1-4.44-.062c.841 1.216 2.916 1.431 5.867 1.072ZM14.422 16.678c-3.226.984-6.11.905-7.19-1.355 1.816.122 3.735.207 5.46-.024.54-.033 1.934.919 1.73 1.379Z" clip-rule="evenodd"></path><path fill="#fff" fill-rule="evenodd" d="M9.284 17.49c1.779.18 3.672.019 5.188-.59.215.463.215 1.383.346 1.872-2.437.54-4.416.15-5.534-1.28v-.001Z" clip-rule="evenodd"></path><path fill="#fff" fill-rule="evenodd" d="M15.348 20.557c-.231-.267-.44-.977-.507-1.429-1.3.338-2.842.175-4.076-.11.826 1.312 2.63 1.836 4.583 1.539ZM16.422 21.948c-.439-.352-.774-.717-.98-1.146-.819.298-2.211.112-3.184-.174 1.103 1.24 2.761 1.424 4.164 1.32ZM18.028 23.032c-.526-.225-1.036-.491-1.3-.831-.77.232-2.185.032-2.826-.154.818.934 2.745 1.375 4.126.985Z" clip-rule="evenodd"></path><path fill="#fff" fill-rule="evenodd" d="M18.398 22.858c.377-.219.634-.555.846-.937-5.793-1.68.815-7.964-7.7-7.124 6.393.628.734 5.063 6.854 8.06ZM15.031 25.198a6.457 6.457 0 0 1-.005-1.127c-1.913.18-3.713.117-5.479-.295 1.006 1.871 2.652 2.014 5.484 1.422ZM15.17 26.684a5.292 5.292 0 0 1-.13-1.151c-1.063.315-2.247.363-3.557.284.921 1.041 2.118 1.26 3.688.868ZM15.488 28.134a7.126 7.126 0 0 1-.26-1.06c-.753.17-1.462.2-2.216.173.716.81 1.513 1.16 2.476.887ZM15.419 24.042c-.222 5.058 1.842 7.268 4.915 7.333-.175-.242-.512-.664-.829-1.206-2.766-.704-2.522-5.093-4.086-6.127Z" clip-rule="evenodd"></path><path fill="#0052CC" fill-rule="evenodd" d="M18.634 28.807c-.447-.71-.983-3.792-.327-5.294-.528.288-1.817.327-2.23.199-.02.081.031.143.104.222 1.24 1.055 1.51 3.918 2.454 4.873Z" clip-rule="evenodd"></path><path fill="#0052CC" d="M27.208 16.896c2.465 0 4.697.996 6.312 2.606a8.857 8.857 0 0 1 2.614 6.292 8.858 8.858 0 0 1-2.614 6.293 8.917 8.917 0 0 1-6.312 2.607 8.91 8.91 0 0 1-6.312-2.607 8.854 8.854 0 0 1-2.615-6.293c0-2.457.999-4.682 2.615-6.292a8.912 8.912 0 0 1 6.312-2.606Zm6.055 2.863a8.55 8.55 0 0 0-6.055-2.502 8.552 8.552 0 0 0-6.055 2.502 8.496 8.496 0 0 0-2.508 6.035 8.5 8.5 0 0 0 2.508 6.037 8.553 8.553 0 0 0 6.055 2.5 8.55 8.55 0 0 0 6.055-2.5 8.493 8.493 0 0 0 2.509-6.037 8.49 8.49 0 0 0-2.51-6.035Z"></path><path fill="#fff" fill-rule="evenodd" d="M27.208 19.878c3.278 0 5.935 2.649 5.935 5.916 0 3.268-2.657 5.917-5.935 5.917-3.278 0-5.936-2.65-5.936-5.917s2.657-5.916 5.936-5.916Z" clip-rule="evenodd"></path><path fill="#0052CC" d="M27.208 19.668c1.696 0 3.233.686 4.345 1.795a6.097 6.097 0 0 1 1.802 4.331c0 1.691-.69 3.224-1.802 4.333a6.135 6.135 0 0 1-4.345 1.794 6.137 6.137 0 0 1-4.346-1.794 6.098 6.098 0 0 1-1.8-4.333c0-1.691.687-3.223 1.8-4.331a6.133 6.133 0 0 1 4.346-1.795Zm4.048 2.09a5.719 5.719 0 0 0-4.048-1.67c-1.58 0-3.013.638-4.05 1.67a5.68 5.68 0 0 0-1.675 4.037c0 1.577.64 3.004 1.676 4.037a5.72 5.72 0 0 0 4.05 1.671 5.718 5.718 0 0 0 5.724-5.708 5.68 5.68 0 0 0-1.677-4.036Z"></path><path fill="#0052CC" fill-rule="evenodd" d="M27.208 21.43a4.37 4.37 0 0 1 4.377 4.364 4.37 4.37 0 0 1-4.377 4.364 4.371 4.371 0 0 1-4.377-4.364 4.37 4.37 0 0 1 4.377-4.363Z" clip-rule="evenodd"></path><path fill="#fff" fill-rule="evenodd" d="M27.208 24.658a1.138 1.138 0 1 1 0 2.275c-.63 0-1.14-.51-1.14-1.138 0-.627.51-1.137 1.14-1.137Z" clip-rule="evenodd"></path><path fill="#0052CC" fill-rule="evenodd" d="M34.007 23.322a.328.328 0 0 1-.119.08c-.274.11-.658-.176-.857-.636-.198-.46-.136-.923.14-1.032a.342.342 0 0 1 .138-.023c.035.104.047.194.028.25a.106.106 0 0 0-.069.002c-.123.049-.105.36.038.693.143.333.36.564.484.515a.116.116 0 0 0 .058-.062c.053.05.107.122.158.212v.001ZM34.028 22.37c.085.193.12.387.116.555a.838.838 0 0 0-.305-.196 1.619 1.619 0 0 0-.21-.487.575.575 0 0 0 .079-.339c.125.115.24.276.32.466v.001Z" clip-rule="evenodd"></path><path fill="#0052CC" fill-rule="evenodd" d="M33.608 24.265a1.42 1.42 0 0 1-.26-.98c.091.078.187.137.28.173a1.65 1.65 0 0 0 .14.527.954.954 0 0 0-.16.282v-.002ZM34.432 23.538c.128.483-.002.934-.289 1.006a.383.383 0 0 1-.226-.02.935.935 0 0 1 .063-.246c.034.022.067.032.098.024.129-.032.159-.342.066-.691-.092-.35-.273-.608-.402-.577-.032.008-.058.033-.077.072a1.032 1.032 0 0 1-.178-.187.347.347 0 0 1 .192-.126c.286-.071.626.264.753.745Z" clip-rule="evenodd"></path><path fill="#0052CC" fill-rule="evenodd" d="M34.36 25.663a.333.333 0 0 1-.135.045c-.295.032-.581-.346-.636-.841-.055-.494.14-.923.435-.956.05-.004.097.001.145.018.001.103-.01.191-.032.26a.123.123 0 0 0-.085-.03c-.132.015-.208.317-.166.677.039.358.179.638.31.625a.12.12 0 0 0 .075-.043.906.906 0 0 1 .088.245ZM34.66 24.753c.023.21.003.41-.054.57a.78.78 0 0 0-.233-.267 1.706 1.706 0 0 0-.062-.547.746.746 0 0 0 .167-.308c.093.146.158.337.182.552Z" clip-rule="evenodd"></path><path fill="#0052CC" fill-rule="evenodd" d="M33.701 26.458a1.372 1.372 0 0 1-.072-.503c.007-.185.046-.356.109-.498.065.098.139.18.218.242a1.728 1.728 0 0 0-.02.531 1.06 1.06 0 0 0-.236.229l.001-.001ZM34.706 25.985c-.019.498-.275.896-.572.889a.35.35 0 0 1-.21-.08c.04-.09.086-.163.132-.22.027.032.056.05.088.05.133.004.252-.286.266-.647.013-.36-.085-.658-.217-.66-.03-.001-.06.013-.088.04a1.037 1.037 0 0 1-.116-.224.37.37 0 0 1 .213-.066c.295.008.523.421.504.918ZM33.15 28.597a1.377 1.377 0 0 1 .079-.504c.06-.178.15-.332.252-.452.034.111.081.209.139.288a1.787 1.787 0 0 0-.176.513c-.097.03-.197.084-.293.155ZM34.251 28.41c-.163.473-.526.789-.808.7a.344.344 0 0 1-.182-.138c.065-.075.13-.136.19-.176.017.041.042.068.074.079.127.039.325-.21.444-.551.118-.343.112-.655-.015-.695-.028-.008-.062-.002-.097.017a.95.95 0 0 1-.046-.246.37.37 0 0 1 .225-.008c.282.088.379.546.214 1.019l.001-.001Z" clip-rule="evenodd"></path><path fill="#0052CC" fill-rule="evenodd" d="M34.011 28.008a.324.324 0 0 1-.14.008c-.29-.05-.455-.489-.363-.978.092-.491.406-.852.697-.803.046.007.09.026.129.051a.9.9 0 0 1-.106.24.107.107 0 0 0-.069-.046c-.132-.021-.291.25-.359.605-.067.355-.014.662.117.684a.115.115 0 0 0 .078-.02.82.82 0 0 1 .016.258v.001ZM34.568 27.213a1.34 1.34 0 0 1-.216.529.738.738 0 0 0-.147-.318 1.619 1.619 0 0 0 .099-.521.812.812 0 0 0 .254-.255c.042.163.05.359.009.566v-.001ZM33.76 29.555c-.231.446-.637.71-.903.585s-.294-.591-.062-1.037c.232-.448.638-.711.904-.586.042.02.079.05.109.085a.873.873 0 0 1-.173.201.103.103 0 0 0-.054-.063c-.12-.055-.352.164-.52.488-.169.323-.208.633-.09.69.12.055.355-.164.522-.488a1.63 1.63 0 0 0 .109-.259.817.817 0 0 0 .314-.176c-.005.17-.058.368-.157.56h.002ZM33.454 21.268c.264.428.27.895.015 1.04a.358.358 0 0 1-.224.039.473.473 0 0 1 .006-.246c.034.007.063.005.087-.009.113-.064.051-.37-.14-.68-.191-.31-.44-.51-.555-.445-.115.065-.053.371.138.681.052.083.108.158.164.222a.753.753 0 0 0-.07.312 1.415 1.415 0 0 1-.35-.39c-.263-.427-.27-.895-.014-1.04.255-.144.68.087.943.515ZM20.112 23.322a.325.325 0 0 0 .118.08c.274.11.66-.176.857-.636.198-.46.135-.923-.14-1.032a.344.344 0 0 0-.137-.023c-.036.104-.047.194-.029.25a.103.103 0 0 1 .068.002c.123.049.106.36-.037.693-.143.333-.36.564-.484.515a.115.115 0 0 1-.059-.062.906.906 0 0 0-.157.212v.001ZM20.09 22.37c-.084.193-.12.387-.116.555.097-.093.2-.16.305-.196a1.732 1.732 0 0 1 .21-.487.589.589 0 0 1-.079-.339 1.383 1.383 0 0 0-.32.466v.001Z" clip-rule="evenodd"></path><path fill="#0052CC" fill-rule="evenodd" d="M20.51 24.265a1.38 1.38 0 0 0 .22-.467 1.36 1.36 0 0 0 .04-.512 1.01 1.01 0 0 1-.28.172 1.638 1.638 0 0 1-.14.527c.063.076.117.17.159.282v-.002ZM19.686 23.538c-.128.483.003.934.29 1.006.073.017.15.008.226-.02a.972.972 0 0 0-.063-.246c-.035.022-.069.032-.099.024-.129-.032-.158-.342-.066-.691.092-.35.274-.608.402-.577.032.008.058.033.077.072.058-.044.118-.109.178-.187a.346.346 0 0 0-.19-.126c-.288-.071-.627.264-.755.745Z" clip-rule="evenodd"></path><path fill="#0052CC" fill-rule="evenodd" d="M19.759 25.663c.042.025.087.04.134.045.295.032.581-.346.636-.841.056-.494-.14-.923-.434-.956a.337.337 0 0 0-.146.018c0 .103.011.191.033.26a.12.12 0 0 1 .084-.03c.132.015.208.317.168.677-.04.358-.18.638-.313.625a.118.118 0 0 1-.074-.043.872.872 0 0 0-.089.245h.001ZM19.458 24.753c-.023.21-.002.41.055.57a.782.782 0 0 1 .233-.267 1.697 1.697 0 0 1 .063-.547.76.76 0 0 1-.167-.308 1.325 1.325 0 0 0-.183.552Z" clip-rule="evenodd"></path><path fill="#0052CC" fill-rule="evenodd" d="M20.417 26.458c.051-.146.079-.319.072-.503a1.373 1.373 0 0 0-.109-.498c-.065.098-.139.18-.218.242a1.716 1.716 0 0 1 .02.531c.084.057.163.134.236.229l-.001-.001ZM19.412 25.985c.019.498.276.896.573.889a.35.35 0 0 0 .209-.08 1.003 1.003 0 0 0-.131-.22c-.027.032-.056.05-.088.05-.132.004-.253-.286-.266-.647-.013-.36.084-.658.217-.66.03-.001.06.013.088.04a.998.998 0 0 0 .115-.224.367.367 0 0 0-.212-.066c-.296.008-.524.421-.505.918ZM20.968 28.597a1.356 1.356 0 0 0-.078-.504 1.401 1.401 0 0 0-.252-.452.958.958 0 0 1-.14.288 1.688 1.688 0 0 1 .178.513c.097.03.196.084.292.155ZM19.867 28.41c.164.473.526.789.808.7a.344.344 0 0 0 .183-.138 1.011 1.011 0 0 0-.192-.176c-.017.041-.04.068-.073.079-.126.039-.326-.21-.444-.551-.118-.343-.112-.655.014-.695.03-.008.062-.002.098.017a.946.946 0 0 0 .046-.246.37.37 0 0 0-.225-.008c-.282.088-.378.546-.215 1.019v-.001Z" clip-rule="evenodd"></path><path fill="#0052CC" fill-rule="evenodd" d="M20.106 28.008a.328.328 0 0 0 .14.008c.293-.05.457-.489.364-.978-.092-.491-.405-.852-.697-.803a.34.34 0 0 0-.13.051c.03.098.066.18.107.24a.107.107 0 0 1 .07-.046c.13-.021.291.25.357.605.067.355.014.662-.116.684a.118.118 0 0 1-.08-.02.844.844 0 0 0-.015.258v.001ZM19.55 27.213c.039.207.117.39.217.529a.76.76 0 0 1 .146-.318 1.718 1.718 0 0 1-.099-.521.813.813 0 0 1-.254-.255 1.306 1.306 0 0 0-.01.566v-.001ZM20.358 29.555c.232.446.637.71.903.585s.293-.591.062-1.037c-.231-.448-.637-.711-.903-.586a.317.317 0 0 0-.11.085.896.896 0 0 0 .173.201.107.107 0 0 1 .053-.063c.12-.055.354.164.52.488.169.323.209.633.09.69-.12.055-.354-.164-.521-.488a1.718 1.718 0 0 1-.11-.259.816.816 0 0 1-.313-.176c.005.17.056.368.156.56ZM20.664 21.268c-.264.428-.27.895-.015 1.04.066.037.143.05.224.039a.486.486 0 0 0-.006-.246c-.034.007-.063.005-.087-.009-.114-.064-.051-.37.14-.68.19-.31.44-.51.555-.445.114.065.051.371-.14.681-.05.083-.106.158-.162.222a.753.753 0 0 1 .07.312 1.43 1.43 0 0 0 .35-.39c.263-.427.27-.895.014-1.04-.255-.144-.679.087-.943.515Z" clip-rule="evenodd"></path><path fill="#fff" fill-rule="evenodd" d="m26.372 22.287.553 2.153.097-2.257c-.052-.509-.786-.434-.65.104ZM25.42 22.67l1.147 1.906-.552-2.192c-.195-.473-.877-.192-.593.285h-.001ZM24.584 23.344l1.665 1.478-1.184-1.926c-.328-.393-.896.077-.482.448ZM24.016 24.175l2.014.953-1.678-1.518c-.425-.286-.838.324-.336.565ZM23.706 25.125l2.2.356-2.035-.993c-.487-.155-.713.545-.165.637ZM23.675 26.135l2.212-.276-2.234-.38c-.512-.012-.53.723.022.656ZM26.372 29.303l.553-2.153.097 2.257c-.052.51-.786.434-.65-.104ZM25.42 28.92l1.147-1.907-.552 2.191c-.195.473-.877.194-.593-.284h-.001ZM24.584 28.246l1.665-1.478-1.184 1.926c-.328.393-.896-.077-.482-.448ZM24.016 27.416l2.014-.955-1.678 1.519c-.425.286-.838-.324-.336-.564ZM23.706 26.465l2.2-.356-2.035.992c-.487.156-.713-.543-.165-.636ZM28.043 22.287l-.553 2.153-.097-2.257c.052-.509.786-.434.65.104ZM28.993 22.67l-1.145 1.906.552-2.192c.194-.473.877-.192.593.285ZM29.83 23.344l-1.663 1.478 1.183-1.926c.328-.393.895.077.48.448ZM30.398 24.175l-2.014.953 1.679-1.518c.425-.286.836.324.334.565h.001ZM30.708 25.125l-2.2.356 2.035-.993c.488-.155.714.545.165.637ZM30.74 26.135l-2.213-.276 2.233-.38c.514-.012.531.723-.02.656ZM28.043 29.303l-.553-2.153-.097 2.257c.052.51.786.434.65-.104ZM28.993 28.92l-1.145-1.907.552 2.191c.194.473.877.194.593-.284ZM29.83 28.246l-1.663-1.478 1.183 1.926c.328.393.895-.077.48-.448ZM30.398 27.416l-2.014-.955 1.679 1.519c.425.286.836-.324.334-.564h.001ZM30.708 26.465l-2.2-.356 2.035.992c.488.156.714-.543.165-.636ZM15.031 42.041c-3.4.697-6.669.564-9.753-.71l2.52 2.424-3.469.945c3.355 1.491 5.604.63 7.234 1.39 1.156-1.262 2.313-2.789 3.468-4.05v.001Z" clip-rule="evenodd"></path><path fill="#0052CC" d="M14.649 42.258c-1.57.293-3.112.403-4.62.307a15.11 15.11 0 0 1-4.155-.855l2.022 1.945.177.17-.237.064-3.081.84c1.763.71 3.21.775 4.414.829.905.039 1.677.074 2.36.365a58.594 58.594 0 0 0 1.66-1.946c.484-.584.968-1.168 1.459-1.719Zm-4.604.028c1.616.105 3.271-.034 4.96-.38l.13.23c-.57.62-1.15 1.32-1.73 2.02a54.092 54.092 0 0 1-1.739 2.027l-.07.076-.092-.043c-.655-.305-1.43-.339-2.347-.38-1.312-.058-2.905-.128-4.884-1.007l.02-.261 3.232-.881-2.343-2.254.15-.23c1.529.63 3.102.98 4.714 1.083Z"></path><path fill="#0052CC" fill-rule="evenodd" d="m15.048 41.917-4.625 1.5-.097.03V47.11l.184-.059 4.624-1.499.097-.032V41.857l-.183.06Z" clip-rule="evenodd"></path><path fill="#fff" fill-rule="evenodd" d="M39.383 42.041c3.4.697 6.669.564 9.754-.71l-2.52 2.424 3.469.945c-3.354 1.491-5.602.63-7.233 1.39-1.157-1.262-2.313-2.789-3.47-4.05v.001Z" clip-rule="evenodd"></path><path fill="#0052CC" d="M39.41 41.904c1.689.347 3.343.486 4.96.382a14.786 14.786 0 0 0 4.712-1.083l.15.23-2.343 2.253 3.232.88.02.262c-1.979.879-3.572.949-4.884 1.007-.916.041-1.692.074-2.348.38l-.092.043-.07-.075c-.587-.64-1.163-1.334-1.739-2.029-.58-.7-1.16-1.4-1.729-2.02l.13-.23h.002Zm4.978.66c-1.509.097-3.052-.013-4.622-.306.49.551.974 1.135 1.459 1.72.557.67 1.114 1.342 1.662 1.945.682-.291 1.455-.326 2.358-.365 1.206-.054 2.653-.118 4.416-.828l-3.081-.84-.236-.065.176-.17 2.022-1.945c-1.353.487-2.74.762-4.154.855Z"></path><path fill="#0052CC" fill-rule="evenodd" d="m39.368 41.917 4.623 1.5.097.03V47.11l-.182-.059-4.625-1.499-.097-.032V41.857l.184.06Z" clip-rule="evenodd"></path><path fill="#fff" fill-rule="evenodd" d="M27.229 51.852v-.004c-7.06-.32-8.848-5.774-16.78-4.902v-3.31c9.183-.533 10.342 4.837 16.809 4.73h.03c6.466.107 7.536-5.264 16.719-4.73v3.31c-7.93-.872-9.63 4.583-16.69 4.902v.004h-.089Z" clip-rule="evenodd"></path><path fill="#0052CC" d="m27.235 51.71.039.002.038-.002c3.165-.143 5.25-1.335 7.312-2.515 2.495-1.426 4.959-2.834 9.244-2.403V43.77c-4.94-.258-7.493 1.221-9.853 2.588-1.962 1.137-3.792 2.197-6.727 2.148h-.026c-2.935.05-4.783-1.011-6.765-2.148-2.383-1.366-4.964-2.846-9.906-2.588v3.023c4.287-.431 6.778.98 9.298 2.406 2.081 1.178 4.183 2.37 7.347 2.512Zm-.147.271c-3.157-.173-5.258-1.363-7.338-2.54-2.511-1.422-4.991-2.828-9.285-2.355l-.156.017v-3.597l.133-.007c5.11-.297 7.753 1.218 10.193 2.618 1.915 1.099 3.704 2.125 6.484 2.111v-.002H27.428v.002c2.778.013 4.549-1.014 6.445-2.113 2.415-1.398 5.031-2.914 10.141-2.617l.133.007v3.597l-.155-.017c-4.29-.473-6.745.93-9.23 2.352-2.062 1.178-4.146 2.37-7.303 2.543V52l-.148-.008-.038-.002-.038.003-.147.007v-.019.001Z"></path><path fill="#0052CC" d="m11.653 44.344.626.032c.141.008.247.025.32.05.098.034.18.09.248.168a.722.722 0 0 1 .147.282c.031.11.042.243.034.403-.008.14-.031.258-.071.356a.73.73 0 0 1-.198.289.592.592 0 0 1-.247.122 1.02 1.02 0 0 1-.305.02l-.644-.034.09-1.69v.002Zm.327.303-.058 1.119.256.013a.969.969 0 0 0 .207-.005.322.322 0 0 0 .142-.063.35.35 0 0 0 .098-.158c.027-.074.044-.177.05-.308.007-.13 0-.231-.018-.302a.393.393 0 0 0-.088-.17.334.334 0 0 0-.155-.087 1.582 1.582 0 0 0-.28-.031l-.154-.008Zm1.823-.149-.076.619a.484.484 0 0 1 .592-.07.336.336 0 0 1 .122.121c.025.047.04.096.045.15.005.053 0 .135-.013.244l-.088.713-.322-.04.079-.643a.918.918 0 0 0 .01-.246.158.158 0 0 0-.055-.089.206.206 0 0 0-.112-.045.264.264 0 0 0-.149.022.224.224 0 0 0-.107.106.683.683 0 0 0-.057.228l-.075.61-.324-.04.208-1.68.322.04Zm1.322 1.072-.275-.117a.46.46 0 0 1 .226-.218c.092-.037.216-.038.37-.002a.772.772 0 0 1 .305.122c.061.05.1.103.117.162.016.058.008.155-.024.293l-.089.367a1.268 1.268 0 0 0-.039.236.693.693 0 0 0 .02.173l-.314-.073a1.136 1.136 0 0 1-.01-.1c0-.02 0-.032-.002-.04a.568.568 0 0 1-.201.078.514.514 0 0 1-.207-.005.421.421 0 0 1-.269-.167.341.341 0 0 1-.047-.277.328.328 0 0 1 .254-.26c.064-.015.153-.02.269-.016.154.008.263.005.326-.006l.008-.031c.014-.062.009-.108-.015-.142-.024-.032-.078-.059-.162-.077a.233.233 0 0 0-.14.002.23.23 0 0 0-.103.099l.002-.001Zm.365.354a1.739 1.739 0 0 1-.204.005.577.577 0 0 0-.185.015.136.136 0 0 0-.088.096.16.16 0 0 0 .022.127.176.176 0 0 0 .116.077.278.278 0 0 0 .176-.018.196.196 0 0 0 .1-.088.587.587 0 0 0 .048-.151l.015-.063Zm.794.838-.31-.098.38-1.167.288.093-.054.165a.541.541 0 0 1 .183-.111.259.259 0 0 1 .145.006c.07.022.132.064.186.123l-.184.238a.295.295 0 0 0-.128-.096.169.169 0 0 0-.122 0c-.038.014-.075.05-.112.105a1.945 1.945 0 0 0-.154.384l-.117.358h-.001Zm1.05-.972.274.123-.068.152a.482.482 0 0 1 .43-.023c.071.031.128.074.167.127.04.054.063.117.07.193a.554.554 0 0 1 .22-.063.421.421 0 0 1 .203.036.447.447 0 0 1 .187.143.332.332 0 0 1 .061.204.672.672 0 0 1-.073.245l-.32.717-.296-.131.285-.64c.05-.112.072-.187.065-.23-.008-.054-.041-.093-.098-.118a.226.226 0 0 0-.135-.015.239.239 0 0 0-.129.076.84.84 0 0 0-.127.22l-.24.54-.298-.133.275-.614a.929.929 0 0 0 .078-.217.149.149 0 0 0-.018-.093.179.179 0 0 0-.081-.062.233.233 0 0 0-.14-.02.219.219 0 0 0-.127.073.853.853 0 0 0-.127.22l-.243.544-.297-.132.5-1.12.003-.002Zm2.062 1.415-.232-.19a.453.453 0 0 1 .278-.147c.099-.01.218.022.357.1.127.07.213.138.259.202a.327.327 0 0 1 .067.185c0 .061-.034.153-.103.277l-.187.329a1.346 1.346 0 0 0-.102.216.653.653 0 0 0-.029.171l-.281-.155a1.116 1.116 0 0 1 .027-.14c-.074.022-.147.028-.214.022a.522.522 0 0 1-.198-.063.42.42 0 0 1-.211-.233.341.341 0 0 1 .03-.281.329.329 0 0 1 .316-.18c.066.004.154.023.263.059.146.049.252.075.315.083l.016-.029c.03-.054.038-.1.024-.14-.014-.037-.058-.076-.134-.118a.236.236 0 0 0-.135-.036.238.238 0 0 0-.127.067h.001Zm.253.44a1.773 1.773 0 0 1-.197-.052.663.663 0 0 0-.183-.037.14.14 0 0 0-.11.07.155.155 0 0 0-.013.127.175.175 0 0 0 .09.106c.051.029.11.039.174.031a.196.196 0 0 0 .12-.057c.021-.02.051-.063.089-.131l.032-.057h-.002Zm.24.841.797-1.494.288.152-.423.793.54-.202.354.187-.582.199.031.898-.309-.165-.014-.631-.209.07-.184.346-.287-.152h-.001Zm2.001.616.264.195a.532.532 0 0 1-.3.152.58.58 0 0 1-.342-.07c-.191-.097-.3-.23-.328-.401a.702.702 0 0 1 .083-.432c.092-.18.213-.298.36-.352a.53.53 0 0 1 .439.028.55.55 0 0 1 .303.358c.04.154 0 .343-.117.562l-.726-.37a.326.326 0 0 0-.032.236c.02.07.064.124.13.157.045.025.09.03.134.022a.253.253 0 0 0 .13-.084l.002-.001Zm.166-.284c.04-.085.051-.16.032-.224a.225.225 0 0 0-.117-.142.228.228 0 0 0-.193-.01.3.3 0 0 0-.156.156l.433.22Zm.487 1.018-.297-.131.5-1.12.277.121-.072.16a.516.516 0 0 1 .195-.091.245.245 0 0 1 .144.021.4.4 0 0 1 .17.143l-.207.217a.28.28 0 0 0-.118-.11.185.185 0 0 0-.12-.014c-.04.01-.082.042-.124.095a1.872 1.872 0 0 0-.193.364l-.154.345Zm1.53-.68-.099.24-.205-.082-.186.458a1.293 1.293 0 0 0-.06.165.08.08 0 0 0 .01.049c.01.016.026.027.046.036a.42.42 0 0 0 .133.02l-.068.243a.622.622 0 0 1-.257-.052.42.42 0 0 1-.136-.085.225.225 0 0 1-.067-.11.286.286 0 0 1 .005-.134c.008-.038.033-.111.076-.217l.201-.494-.139-.056.097-.24.139.056.091-.225.374-.055-.162.402.205.084.001-.002Zm.222.476-.267-.136a.471.471 0 0 1 .24-.203c.096-.03.219-.023.37.023a.8.8 0 0 1 .296.144.322.322 0 0 1 .105.169c.012.058-.002.157-.043.291l-.115.36c-.03.104-.05.18-.054.232a.71.71 0 0 0 .007.176l-.308-.094a1.047 1.047 0 0 1-.002-.101v-.04a.596.596 0 0 1-.206.063.499.499 0 0 1-.205-.02.419.419 0 0 1-.256-.185.34.34 0 0 1-.028-.281.35.35 0 0 1 .102-.162.328.328 0 0 1 .17-.079c.065-.011.156-.01.27.003.153.018.262.023.325.016l.01-.031c.018-.059.017-.107-.005-.141-.022-.035-.073-.065-.156-.09a.229.229 0 0 0-.14-.007.236.236 0 0 0-.11.092Zm.34.38c-.045 0-.113-.004-.205-.011a.58.58 0 0 0-.185.003c-.049.016-.08.046-.094.09a.16.16 0 0 0 .014.127c.023.042.06.07.11.085a.282.282 0 0 0 .177-.005.197.197 0 0 0 .105-.08.593.593 0 0 0 .058-.148l.02-.062Zm1.09.894.118-1.688.512.035.226 1.173.385-1.13.513.035-.119 1.688-.317-.022.093-1.33-.43 1.305-.329-.022-.242-1.353-.093 1.33-.318-.023v.002Zm2.114-.79-.3-.017a.453.453 0 0 1 .138-.282c.074-.066.19-.11.348-.129a.812.812 0 0 1 .328.011c.074.026.13.064.165.112.035.05.06.143.078.284l.043.376c.012.107.027.185.045.234.016.05.043.102.078.156l-.32.04c-.01-.02-.025-.05-.042-.092l-.016-.035a.62.62 0 0 1-.163.141.497.497 0 0 1-.195.065.42.42 0 0 1-.31-.065.34.34 0 0 1-.14-.245.332.332 0 0 1 .15-.33c.055-.036.138-.071.247-.107.148-.046.249-.085.303-.118l-.003-.032c-.009-.061-.029-.104-.062-.126-.034-.023-.094-.028-.179-.019a.235.235 0 0 0-.13.05.233.233 0 0 0-.063.128Zm.464.208a1.95 1.95 0 0 1-.191.073.6.6 0 0 0-.17.078c-.038.035-.055.075-.048.12a.159.159 0 0 0 .065.112c.037.028.082.04.134.034a.288.288 0 0 0 .16-.078.193.193 0 0 0 .063-.116.528.528 0 0 0-.007-.157l-.007-.065Zm1.017.414-.316.073-.277-1.194.294-.069.038.17a.529.529 0 0 1 .1-.19.263.263 0 0 1 .129-.07.422.422 0 0 1 .222.013l-.035.298a.274.274 0 0 0-.16-.017.184.184 0 0 0-.104.062c-.026.031-.039.081-.042.148-.004.068.019.204.066.406l.085.37Zm.589-.072.367-.071c.019.04.042.063.069.071.035.012.085.009.148-.012a.368.368 0 0 0 .17-.096.142.142 0 0 0 .036-.097.484.484 0 0 0-.031-.146l-.056-.17a.44.44 0 0 1-.29.303.455.455 0 0 1-.438-.078.717.717 0 0 1-.235-.356c-.065-.196-.065-.36-.004-.494a.487.487 0 0 1 .301-.27.46.46 0 0 1 .42.075l-.053-.163.29-.093.34 1.045c.046.138.067.244.067.32 0 .076-.015.14-.043.193a.457.457 0 0 1-.136.143.845.845 0 0 1-.248.117c-.199.065-.35.076-.454.035a.333.333 0 0 1-.209-.217.51.51 0 0 1-.011-.038v-.001Zm.053-.773c.04.124.094.206.16.248a.239.239 0 0 0 .206.03.26.26 0 0 0 .163-.151c.032-.075.03-.172-.007-.287-.04-.12-.094-.203-.164-.245a.25.25 0 0 0-.217-.027.237.237 0 0 0-.155.145c-.03.074-.025.17.013.288h.001Zm1.156-.679-.29.075a.456.456 0 0 1 .043-.31c.05-.085.147-.162.292-.229a.754.754 0 0 1 .316-.09.32.32 0 0 1 .19.056c.05.034.104.116.163.244l.158.345c.044.097.083.168.116.209a.67.67 0 0 0 .123.124l-.293.135a1.695 1.695 0 0 1-.069-.073c-.013-.016-.023-.024-.027-.03a.598.598 0 0 1-.11.185.542.542 0 0 1-.166.123.42.42 0 0 1-.314.033.344.344 0 0 1-.21-.19.352.352 0 0 1-.034-.188.332.332 0 0 1 .075-.173c.04-.05.108-.11.202-.177.124-.09.21-.16.251-.205l-.013-.03c-.026-.057-.059-.09-.098-.101-.039-.011-.097.001-.174.037a.234.234 0 0 0-.11.089c-.019.033-.026.08-.019.141h-.002Zm.506.054a1.842 1.842 0 0 1-.158.13.555.555 0 0 0-.137.126.131.131 0 0 0-.01.13c.02.041.051.069.097.085.045.016.09.012.138-.01a.282.282 0 0 0 .128-.123.202.202 0 0 0 .025-.13.64.64 0 0 0-.055-.149l-.027-.059h-.001Zm1.417-.047-.874-1.452.618-.37a1.26 1.26 0 0 1 .363-.163.383.383 0 0 1 .254.037.488.488 0 0 1 .2.19.45.45 0 0 1 .067.328.542.542 0 0 1-.207.305c.085 0 .162.009.23.028.07.02.171.064.31.135l.348.176-.352.211-.402-.188a2.258 2.258 0 0 0-.283-.12.264.264 0 0 0-.125-.007.537.537 0 0 0-.158.072l-.059.035.365.605-.294.178h-.001Zm-.21-1.014.216-.13c.142-.085.226-.144.255-.175a.194.194 0 0 0 .01-.238.208.208 0 0 0-.11-.096.201.201 0 0 0-.145.01 2.812 2.812 0 0 0-.218.124l-.229.136.222.369Zm1.477-.743-.285.092a.45.45 0 0 1 .027-.312c.045-.089.136-.17.278-.245a.757.757 0 0 1 .31-.106.335.335 0 0 1 .195.044c.05.033.108.113.175.236l.174.336c.051.095.093.162.127.203.032.04.075.08.128.117l-.284.151a1.142 1.142 0 0 1-.072-.07c-.014-.015-.024-.023-.028-.029a.58.58 0 0 1-.1.191.507.507 0 0 1-.16.131.425.425 0 0 1-.313.05.347.347 0 0 1-.22-.178.328.328 0 0 1 .022-.362 1.12 1.12 0 0 1 .194-.189c.12-.096.2-.17.24-.217l-.015-.028c-.03-.057-.065-.088-.104-.097-.04-.008-.097.006-.173.047a.244.244 0 0 0-.104.093.235.235 0 0 0-.013.142h.001Zm.508.03c-.03.031-.081.077-.152.136a.616.616 0 0 0-.128.132.136.136 0 0 0-.003.131c.02.04.054.067.1.08.045.013.09.008.139-.017a.28.28 0 0 0 .12-.13.207.207 0 0 0 .019-.131.616.616 0 0 0-.063-.145l-.031-.057-.001.001Zm.85.214-.691-1.547.297-.131.367.82.173-.55.364-.161-.2.578.73.529-.32.142-.508-.377-.075.205.16.359-.297.132Zm.963-.828.29-.158a.24.24 0 0 0 .13.106c.05.018.111.012.184-.014a.312.312 0 0 0 .162-.109.102.102 0 0 0 .012-.095.085.085 0 0 0-.044-.05c-.02-.01-.059-.01-.116-.004-.267.036-.44.043-.523.023a.316.316 0 0 1-.232-.21.334.334 0 0 1 .027-.295c.054-.097.165-.175.33-.235.158-.058.285-.074.38-.05.097.023.177.079.242.169l-.267.158a.187.187 0 0 0-.108-.078.292.292 0 0 0-.162.017.36.36 0 0 0-.16.097.08.08 0 0 0-.013.074.072.072 0 0 0 .05.045c.035.01.14.004.317-.018.177-.023.307-.019.391.011.083.031.143.096.179.192a.373.373 0 0 1-.034.322c-.061.108-.178.193-.351.256a.69.69 0 0 1-.41.04.468.468 0 0 1-.274-.194Zm1.013-1.314.336-.089.51.766.05-.916.326-.087-.113 1.253-.018.226a.908.908 0 0 1-.038.18.368.368 0 0 1-.062.11.391.391 0 0 1-.105.085.6.6 0 0 1-.155.063.876.876 0 0 1-.185.027l-.093-.238a.683.683 0 0 0 .137-.02c.073-.02.12-.057.145-.108a.454.454 0 0 0 .037-.185l-.773-1.067h.001Zm1.834-.1-.3-.002a.465.465 0 0 1 .122-.29c.07-.069.184-.118.341-.145a.796.796 0 0 1 .33-.006.334.334 0 0 1 .17.102c.037.047.068.14.092.278l.062.374c.02.106.039.184.058.232.02.049.048.1.086.151l-.317.055a1.909 1.909 0 0 1-.066-.124.573.573 0 0 1-.154.15.5.5 0 0 1-.193.075.417.417 0 0 1-.313-.05.341.341 0 0 1-.152-.237.327.327 0 0 1 .132-.337c.054-.039.135-.078.24-.12.147-.054.245-.098.299-.132l-.007-.032c-.011-.062-.034-.102-.068-.124-.035-.02-.094-.024-.179-.01-.057.011-.1.03-.128.058a.237.237 0 0 0-.057.132l.002.002Zm.473.183c-.038.02-.1.048-.186.082a.595.595 0 0 0-.163.086.134.134 0 0 0-.043.124c.008.045.03.08.07.108.04.026.085.034.136.026a.294.294 0 0 0 .155-.085.204.204 0 0 0 .059-.12.66.66 0 0 0-.016-.158l-.012-.064Zm.72.474-.177-1.684.324-.033.094.892.333-.468.399-.041-.371.489.529.726-.349.036-.365-.515-.134.172.041.392-.324.034Zm1.575-.954-.295-.053a.456.456 0 0 1 .171-.263c.08-.057.201-.086.36-.086.146 0 .255.017.325.052.07.034.121.077.15.13.029.053.044.15.044.29l-.004.379c0 .107.005.188.016.239.01.05.03.105.058.165h-.321a1.102 1.102 0 0 1-.043-.134.526.526 0 0 1-.382.16.418.418 0 0 1-.299-.103.338.338 0 0 1-.109-.26c0-.07.016-.131.05-.184a.327.327 0 0 1 .14-.125 1.11 1.11 0 0 1 .259-.076c.15-.028.256-.055.316-.08v-.032c0-.062-.016-.106-.047-.133-.03-.027-.088-.04-.175-.04a.228.228 0 0 0-.135.034.232.232 0 0 0-.078.12Zm.435.263a2.2 2.2 0 0 1-.198.05.62.62 0 0 0-.178.057.135.135 0 0 0-.063.113c0 .045.018.086.051.118.034.034.077.05.13.05a.282.282 0 0 0 .168-.057.206.206 0 0 0 .077-.108.637.637 0 0 0 .013-.158v-.065ZM22.727 20.732l-.747-1.028.333-.241c.127-.092.213-.146.259-.163a.332.332 0 0 1 .221-.007.395.395 0 0 1 .206.157.412.412 0 0 1 .08.184.345.345 0 0 1-.013.165.385.385 0 0 1-.073.126 1.48 1.48 0 0 1-.204.17l-.136.1.282.386-.208.151Zm-.413-1.004.212.291.114-.082a.63.63 0 0 0 .152-.135c.02-.031.03-.063.028-.098a.18.18 0 0 0-.034-.096.164.164 0 0 0-.1-.07.176.176 0 0 0-.117.016c-.028.014-.08.047-.155.102l-.1.073v-.001Zm1.85-.679a.809.809 0 0 1-.046-.327.6.6 0 0 1 .06-.203.51.51 0 0 1 .12-.159.693.693 0 0 1 .247-.132.6.6 0 0 1 .482.028c.143.076.246.213.31.409.063.194.06.364-.011.51a.592.592 0 0 1-.372.302.603.603 0 0 1-.483-.026c-.142-.076-.245-.209-.307-.4v-.002Zm.25-.09c.043.137.11.23.195.28.086.05.178.06.275.028a.32.32 0 0 0 .206-.182c.04-.09.037-.205-.009-.345-.045-.138-.109-.231-.191-.28a.33.33 0 0 0-.276-.024.326.326 0 0 0-.21.182c-.04.089-.037.203.008.342h.001Zm2.133.136-.042-1.258.257-.008.035 1.044.64-.022.006.214-.896.03Zm1.87.087.224-1.25.253.045-.224 1.25-.254-.045h.001Zm1.384-.038.236.084a.299.299 0 0 0 .005.206.28.28 0 0 0 .143.132c.075.034.139.046.193.03a.15.15 0 0 0 .109-.084.12.12 0 0 0 .008-.08.215.215 0 0 0-.061-.09 3.019 3.019 0 0 0-.163-.136.712.712 0 0 1-.21-.236.334.334 0 0 1 .329-.471.64.64 0 0 1 .246.065c.146.068.24.15.283.247a.37.37 0 0 1-.004.308l-.239-.099a.216.216 0 0 0-.003-.157c-.021-.041-.063-.077-.13-.107a.29.29 0 0 0-.178-.032.09.09 0 0 0-.07.054.095.095 0 0 0 .003.085c.017.038.077.098.177.177.1.079.171.146.213.2a.355.355 0 0 1 .073.176.388.388 0 0 1-.04.205.37.37 0 0 1-.142.16.354.354 0 0 1-.216.055.717.717 0 0 1-.271-.075c-.145-.069-.242-.155-.288-.258a.476.476 0 0 1-.002-.359H29.8Zm1.595 1.41.785-1 .202.159-.785.998-.202-.157ZM21.2 30.74l.848-.735.15.173-.703.61.374.427-.144.124-.523-.598H21.2Zm1.7 1.552-.196-.153.08-.262-.355-.278-.232.145-.192-.149 1.044-.62.19.15-.34 1.167Zm-.056-.61.135-.425-.378.237.243.189Zm.456.85.509-.996.204.103-.423.828.507.257-.087.17-.71-.361Zm1.482-.54.219.063-.17.587a1.424 1.424 0 0 0-.044.184.18.18 0 0 0 .037.125.24.24 0 0 0 .133.082c.062.018.113.019.152.003a.163.163 0 0 0 .084-.078c.017-.036.039-.096.063-.182l.173-.6.22.063-.165.57c-.037.13-.069.22-.096.27a.305.305 0 0 1-.106.118.32.32 0 0 1-.153.051.572.572 0 0 1-.219-.027.635.635 0 0 1-.225-.102.352.352 0 0 1-.1-.13.32.32 0 0 1-.028-.138c.004-.066.023-.16.058-.282l.167-.578v.001Zm1.876 1.528.02-1.119.228.004-.016.929.569.009-.004.19-.796-.013Zm1.281-.049-.157-1.116.226-.032.158 1.117-.227.032Zm.774-.097-.331-1.08.213-.064.662.586-.22-.72.203-.063.331 1.08-.22.067-.65-.57.214.703-.202.062v-.001Zm1.616-.578-.398-.85-.304.14-.081-.172.815-.379.08.172-.302.142.397.85-.206.097h-.001Zm1.65-1.03-.2.145-.232-.15-.366.266.076.262-.196.142-.31-1.17.197-.142 1.032.647Zm-.603-.115-.374-.247.125.428.25-.18Zm.626-.394.136-.177c.063.041.123.059.176.052a.25.25 0 0 0 .151-.084c.05-.053.077-.105.078-.154a.137.137 0 0 0-.04-.115.1.1 0 0 0-.067-.029.173.173 0 0 0-.092.027c-.026.013-.08.046-.161.1a.634.634 0 0 1-.259.112.291.291 0 0 1-.236-.08.297.297 0 0 1-.072-.327.559.559 0 0 1 .122-.188c.097-.103.193-.16.287-.17a.332.332 0 0 1 .26.087l-.148.173c-.05-.032-.094-.046-.136-.039-.041.007-.082.033-.126.08a.27.27 0 0 0-.078.142.079.079 0 0 0 .028.074c.02.018.043.026.073.022a.594.594 0 0 0 .198-.102c.096-.063.171-.105.228-.125a.32.32 0 0 1 .17-.013c.056.012.11.041.162.09a.33.33 0 0 1 .085.36.633.633 0 0 1-.138.208.49.49 0 0 1-.298.173.426.426 0 0 1-.305-.096l.002-.001Z"></path><path fill="#fff" fill-rule="evenodd" d="m27.879 8.988 1.707.14-1.3 1.114.395 1.663-1.464-.887-1.464.887.394-1.663-1.3-1.114 1.709-.14.661-1.576.662 1.576Z" clip-rule="evenodd"></path><path fill="#0052CC" fill-rule="evenodd" d="m27.738 9.153 1.344.11-1.022.878.31 1.307-1.153-.697-1.153.697.311-1.307-1.022-.878 1.344-.11.52-1.24.521 1.24Z" clip-rule="evenodd"></path><path fill="#0052CC" fill-rule="evenodd" d="m27.677 9.238 1.186.096-.902.774.273 1.155-1.017-.616-1.016.616.273-1.155-.902-.774 1.186-.096.46-1.095.459 1.095Z" clip-rule="evenodd"></path><path fill="#fff" fill-rule="evenodd" d="m27.218 8.675.309.736.798.066-.608.52.186.778-.685-.415-.686.415.185-.778-.607-.52.798-.066.31-.736ZM22.544 11.291l1.709.14-1.3 1.115.395 1.662-1.465-.887-1.464.887.393-1.662-1.3-1.114 1.71-.14.66-1.577.662 1.576Z" clip-rule="evenodd"></path><path fill="#0052CC" fill-rule="evenodd" d="m22.403 11.456 1.345.11-1.022.877.31 1.31-1.153-.7-1.152.7.31-1.31-1.023-.877 1.345-.11.52-1.24.52 1.24Z" clip-rule="evenodd"></path><path fill="#0052CC" fill-rule="evenodd" d="m22.342 11.54 1.186.097-.902.774.274 1.155-1.017-.617-1.017.617.273-1.155-.902-.774 1.187-.097.459-1.095.46 1.095Z" clip-rule="evenodd"></path><path fill="#fff" fill-rule="evenodd" d="m21.883 10.977.31.737.799.065-.608.521.184.778-.685-.414-.684.415.184-.779-.608-.52.799-.066.309-.737ZM33.14 11.291l1.709.14-1.299 1.115.393 1.662-1.464-.887-1.465.887.395-1.662-1.3-1.114 1.708-.14.662-1.577.661 1.576Z" clip-rule="evenodd"></path><path fill="#0052CC" fill-rule="evenodd" d="m33 11.456 1.344.11-1.022.877.31 1.31-1.153-.7-1.152.7.31-1.31-1.023-.877 1.344-.11.52-1.24.522 1.24Z" clip-rule="evenodd"></path><path fill="#0052CC" fill-rule="evenodd" d="m32.938 11.54 1.186.097-.902.774.274 1.155-1.017-.617-1.017.617.274-1.155-.902-.774 1.185-.097.46-1.095.46 1.095Z" clip-rule="evenodd"></path><path fill="#fff" fill-rule="evenodd" d="m32.479 10.977.31.737.798.065-.606.521.183.778-.685-.414-.684.415.184-.779-.607-.52.798-.066.309-.737Z" clip-rule="evenodd"></path></g><defs><clipPath id="a"><path fill="#fff" d="M0 0h54.476v52H0z"></path></clipPath></defs></svg>