<svg xmlns="http://www.w3.org/2000/svg" fill="none" viewBox="0 0 774 343" class="icon"><path fill="#EBF2F9" d="m736.463 342.262-174.061-.051-147.81-.042-20.358-.005-344.727-.104S31.332 297.113 36.2 248.514c.607-6.08 1.577-12.214 2.989-18.325l.014-.053a129.072 129.072 0 0 1 3.116-11.208c5.155-15.719 13.619-30.947 26.81-44.26 79.974-80.72 183.323-13.248 222.105-15.213 38.775-1.968 40.964-79.42 156.83-88.67 64.269-5.13 133.261 6.873 155.539 60.778 8.78 21.241 10.306 48.987 1.434 84.754-5.16 20.802-.735 33.528 9.11 41.772 20.447 17.126 64.282 14.912 94.166 25.574 22.27 7.942 36.794 23.036 28.146 58.601l.003-.002Z"></path><path fill="#F8FBFF" d="m614.151 258.086-502.433 65.286c-4.559-16.516-6.902-34.447-5.725-53.561l497.614-138.25c8.78 21.24 10.306 48.987 1.434 84.754-5.16 20.802-.735 33.527 9.11 41.771ZM404.043 156.937 36.204 248.515c.607-6.081 1.577-12.214 2.988-18.325l.014-.054a129.015 129.015 0 0 1 3.117-11.207l361.72-61.99v-.002Z"></path><path fill="#C9E0F2" d="m394.24 342.169-344.73-.109s-23.005-56.893-10.318-111.874l.014-.053c21.3-.992 56.297 1.515 93.138 22.465 58.181 33.092 153.697 8.879 181.342 27.439 27.645 18.563 33.993 37.783 54.552 41.084 17.937 2.88 24.599 17.386 25.999 21.04v.005l.003.003Z"></path><path fill="#F8FBFF" d="M533.326 119.148c0-5.312 4.305-9.617 9.616-9.617s9.615 4.305 9.615 9.617c0 5.312-4.304 9.617-9.615 9.617s-9.616-4.305-9.616-9.617Z"></path><path fill="#A8D29F" d="M499.551 314.708c9.543-2.994 21.825-7.864 15.147-11.52-7.153-3.917-16.274 4.394-21.219 9.893-.257-.042-.511-.084-.771-.12a27.834 27.834 0 0 0-3.843-.271c9.425-15.11 19.941-35.225 10.985-37.783-9.649-2.756-16.562 21.703-19.975 38.834-9.428 2.046-19.572 6.623-30.138 9.673-3.735-13.584-12.333-33.841-30.346-33.394-18.915.47 4.702 22.457 20.612 35.636-3.555.576-7.15.853-10.77.685-23.13-1.076-37.621 14.607-37.621 14.607h124.224c4.665-7.397-2.401-21.034-16.285-26.24Z"></path><path fill="#FFB27D" d="M289.026 9.773S280.367.327 277.691.014c-2.675-.316-13.693 4.965-14.325 7.048-.629 2.082 12.12-2.083 12.83 0 .707 2.082 1.495 3.5 5.115 3.656 3.62.157 6.77 2.203 6.77 2.203l.945-3.148Z"></path><path fill="#233862" d="M299.413 340.945c-2.75-1.68-1.185-14.207-1.185-14.207s12.819-10.257 14.583-2.404c1.764 7.853 12.179 11.378 18.108 12.34 4.092.662 5.358 2.929 5.752 4.271h-37.258Z"></path><path fill="#2B478B" d="M297.116 332.983c-3.285-1.238-21.577-45.154-20.816-59.412.092-1.691-.241-15.566-.761-18.443-.405-2.239-.95-4.847-1.604-7.741-1.001-4.405-2.248-9.479-3.634-14.92-3.888-15.289-8.844-33.468-12.26-47.941 6.133-13.755 13.99-25.792 21.199-29.902 5.143.626 10.102 1.577 13.775 2.373 2.927 1.72 5.113 3.19 6.737 4.445.57 2.852 1.403 7.61 2.077 13.735.433 4.009.799 8.605.97 13.632 1.221 35.671-5.015 74.432 10.884 137.699.445 1.764-11.477 8.396-16.564 6.475h-.003Z"></path><path fill="#233862" d="M301.829 175.177c-2.65 13.263-9.026 41.607-31.525 57.29-3.889-15.289-8.844-33.468-12.26-47.941 6.132-13.755 13.99-25.792 21.199-29.902 5.143.626 10.102 1.577 13.775 2.373 2.927 1.72 5.112 3.19 6.736 4.445.571 2.852 1.404 7.61 2.077 13.735h-.002Z"></path><path fill="#FFB27D" d="m274.164 50.402-.011 2.225s.606 6.959-7.961 7.973c-8.568 1.018-15.055-2.714-14.823-8.082.771-4.157 1.618-7.011 1.677-10.453a24.14 24.14 0 0 0-.305-4.165l16.598-.333 4.889.8-.064 12.035Z"></path><path fill="#E8945B" d="m274.226 38.367-.065 12.035a14.057 14.057 0 0 1-5.984 1.32c-7.629 0-12.559-5.595-15.137-9.657a24.133 24.133 0 0 0-.304-4.165l16.598-.333 4.889.8h.003Z"></path><path fill="#FFB27D" d="M275.195 44.215s-21.258 4.294-23.729-8.988c-2.471-13.281-6.879-21.674 6.592-24.975 13.47-3.305 17.056 1.272 18.96 5.504 1.903 4.233 3.648 27-1.82 28.46h-.003Z"></path><path fill="#233862" d="M259.889 340.946s-1.16-6.358-3.003-10.037c-1.839-3.679-13.548-1.339-13.548-1.339s-2.343 2.008-2.843 11.376h19.394Z"></path><path fill="#2B478B" d="M282.832 161.653s-11.653 51.928-15.388 75.369c-1.397 8.77-4.31 36.868-4.766 45.739-.623 12.172-4.637 49.423-4.637 49.423s-6.767-4.277-16.813-.285c0 0-2.539-16.698-4.151-51.671-.473-10.252 1.506-25.653 1.266-30.654-1.183-24.596-9.04-88.184-2.793-92.266 6.245-4.081 47.279 4.347 47.279 4.347l.003-.002Z"></path><path fill="#233862" d="M281.149 5.888s-5.928-.456-12.922-3.498c-5.674-2.468-12.836.25-15.159 1.474.062-.375.213-.887.568-1.398 0 0-1.043.74-1.197 1.775-.106.078-.156.134-.128.151 0 0-1.183-.215-1.943.126 0 0 .531-.076.721.265.02.037.05.068.084.095-8.853 4.278-9.672 18.273-6.82 21.51 3.427 3.894 7.536 12.667 7.536 12.667s1.498-2.072.875-5.502c-.624-3.427 2.336-3.427 6.076-4.987 3.74-1.558.624-5.921 3.894-8.572 3.273-2.65 15.268-1.09 15.114-3.117 4.453-1.621 3.299-10.54 3.299-10.995l.002.006Z"></path><path fill="#EE9849" d="M286.824 5.18s-1.792.727-2.868 3.26c-1.375 3.24-.255 5.007-.255 5.007S306.2 33.855 304.739 37.57c-.764 1.94-18.195 12.164-25.44 16.346-2.98-.249-5.283-.23-5.356-.23h-.003s-4.928 15.021-22.571-1.165c-3.1 4.51-27.123 15.582-22.952 34.693.981 4.49 1.828 8.728 2.558 12.723 4.958 27.078 4.57 43.052 3.603 51.861-.752 6.874-3.603 7.568-1.054 9.396 0 0 4.961 2.225 14.244 4.149 6.902 1.428 16.188 2.7 27.598 2.773 18.15.114 25.02-6.142 25.02-6.142 4.805-4.699-4.698-23.195-3.938-36.544.391-6.849-.039-30.296-.106-41.07l.005-.006.014-.014c.869-.953 27.424-30.173 32.652-46.759 0-.003.002-.003.002-.008a21.77 21.77 0 0 0 .621-2.407c1.585-8.163-42.818-29.983-42.818-29.983l.006-.003Z"></path><path fill="#E58638" d="M234.578 151.795c.967-8.809 1.353-24.783-3.603-51.86.341-1.077.676-2.114 1.009-3.101 1.504-4.465 7.891-4.241 9.07.321 3.665 14.168 6.963 38.253-6.476 54.64Z"></path><path fill="#FFB27D" d="M229.158 136.993s11.035-6.673 14.454-5.826c3.421.844 10.84 4.07 10.381 6.044-.458 1.971-9.079 3.319-10.58 3.087-1.501-.233-3.921.039-4.903.889-.983.847-8.802 1.165-9.758-1.127-.956-2.29.406-3.067.406-3.067Z"></path><path fill="#EE9849" d="M251.366 52.518s-13.529.982-20.881 5.29c-4.754 2.787-32.316 46.706-32.316 53.169 0 6.464 28.942 29.396 28.942 29.396s5.373 1.783 5.563-6.771c0 0-14.437-21.345-13.677-23.816.478-1.551 21.755-18.624 21.755-18.624l10.614-38.646v.002Z"></path><path fill="#E58638" d="M329.018 37.576c-5.227 16.586-31.779 45.803-32.651 46.759l-.014.014-.009.008-.002-.008c-.076-.294-2.267-8.65 2.963-14.627 5.322-6.083 23.689-21.33 29.716-32.146h-.003ZM246.265 55.02c-.059-1.171 5.495-2.793 5.495-2.793s6.356 8.812 16.825 8.966c0 0-2.983 5.806-6.502 7.31 0 0-15.475-6.522-15.818-13.483ZM268.585 60.986s5.546-3.288 5.565-6.855c0 0 3.581-.447 5.146 1.289 0 0 1.317 6.11-.43 9.658 0 0-7.989-1.216-10.284-4.092h.003Z"></path><path fill="#C65447" d="M287.869 143.766a11.583 11.583 0 0 1-3.296 7.677l-3.167 3.24a1.95 1.95 0 0 1-2.862-.081l-4.394-5.018a6.942 6.942 0 0 1-1.714-4.881c.179-3.981.498-11.65.688-19.047.157-5.993.229-11.811.073-15.339-.498-11.266-4.61-47.061-4.61-47.061h2.706s7.433 13.59 11.933 32.373a125.786 125.786 0 0 1 2.639 14.688s2.479 20.439 2.004 33.449Z"></path><path fill="#BA4C43" d="m264.819 60.458 7.522-1.804s.982.087.956 1.311c-.028 1.225-2.118 4.806-3.044 5.091-.925.285-7.211-2.119-5.431-4.598h-.003Z"></path><path fill="#EE9849" d="M246.265 53.306c-.059-1.17 5.495-2.792 5.495-2.792s6.356 8.811 16.825 8.965c0 0-2.983 5.807-6.502 7.31 0 0-15.475-6.522-15.818-13.483Z"></path><path fill="#EE9849" d="M268.585 59.482s5.546-3.288 5.565-6.855c0 0 3.581-.447 5.146 1.289 0 0 1.317 6.11-.43 9.659 0 0-7.989-1.217-10.284-4.093h.003Z"></path><path fill="#BA4C43" d="M287.869 143.766a11.587 11.587 0 0 1-3.295 7.677l-3.167 3.24a1.95 1.95 0 0 1-2.863-.081l-4.394-5.018a6.941 6.941 0 0 1-1.713-4.881c.179-3.981.497-11.649.687-19.047 7.022-8.772 9.44-20.514 10.105-30.027a125.786 125.786 0 0 1 2.639 14.688s2.479 20.439 2.004 33.449h-.003Z"></path><path fill="#233862" d="M174.203 300.907h46.004a4.564 4.564 0 0 1 4.562 4.563v30.911a4.563 4.563 0 0 1-4.562 4.562h-46.004a4.563 4.563 0 0 1-4.562-4.562V305.47a4.564 4.564 0 0 1 4.562-4.563Z"></path><path fill="#2B478B" d="M216.026 300.907h-46.005a4.563 4.563 0 0 0-4.562 4.563v30.913a4.563 4.563 0 0 0 4.562 4.563h46.005a4.562 4.562 0 0 0 4.561-4.563V305.47a4.562 4.562 0 0 0-4.561-4.563Z"></path><path fill="#233862" d="M182.972 300.907c2.943-3.478 6.775-4.847 9.227-4.847 5.998 0 9.347 4.668 9.473 4.847l-1.462.098c-.106-.151-2.479-3.139-7.665-3.139-2.13 0-5.255.008-7.821 3.041-.165.196-1.791.042-1.755 0h.003ZM170.021 302.177h46.005a4.562 4.562 0 0 1 4.561 4.562v8.985a4.563 4.563 0 0 1-4.561 4.563h-46.005a4.564 4.564 0 0 1-4.562-4.563v-8.985a4.563 4.563 0 0 1 4.562-4.562Z"></path><path fill="#2B478B" d="M170.021 300.907h46.005a4.563 4.563 0 0 1 4.561 4.563v8.985a4.562 4.562 0 0 1-4.561 4.562h-46.005a4.563 4.563 0 0 1-4.562-4.562v-8.985a4.564 4.564 0 0 1 4.562-4.563Z"></path><path fill="#233862" d="M190.804 315.483a1.395 1.395 0 1 1 2.79 0 1.395 1.395 0 0 1-2.79 0Z"></path><path fill="#A8D29F" d="m736.463 342.262-174.061-.05-.232-.042s15.329-21.121 45.188-21.045c29.856.075 29.482-15.418 68.587-25.065 11.578-2.857 22.594-7.406 32.369-12.399 22.27 7.942 36.794 23.036 28.146 58.601h.003Z"></path><path fill="#F1A34F" d="M475.229 90.837V336.92c0 2.215-1.688 4.026-3.751 4.026h-3.751c-1.029 0-1.962-.45-2.645-1.177a4.172 4.172 0 0 1-1.106-2.849V90.837c0-1.445.718-2.72 1.791-3.424a3.526 3.526 0 0 1 1.96-.602h3.751c2.063 0 3.751 1.81 3.751 4.026Z"></path><path fill="#E58638" d="M466.869 90.262v246.082c0 1.443-.719 2.72-1.789 3.425a4.175 4.175 0 0 1-1.107-2.849V90.838c0-1.446.718-2.72 1.792-3.425a4.177 4.177 0 0 1 1.107 2.849h-.003Z"></path><path fill="#F1A34F" d="m423.895 186.872-20.766 14 18.831 16.511 46.606-2.938v-18.828l-44.671-8.745Z"></path><path fill="#CE8032" d="M465.454 198.188c-.212.573-.145 1.373.151 1.787.297.41.707.279.92-.294.212-.573.145-1.373-.151-1.786-.296-.411-.707-.28-.92.293ZM465.454 209.321c-.212.573-.145 1.373.151 1.786.297.411.707.28.92-.293.212-.573.145-1.373-.151-1.787-.296-.411-.707-.279-.92.294Z"></path><path fill="#F1A34F" d="m543.942 148.835 32.45 13.972-31.203 16.575-74.675-2.594v-23.312l73.428-4.641Z"></path><path fill="#E89746" d="M543.942 148.835h4.716l32.45 13.972h-4.716l-32.45-13.972Z"></path><path fill="#CE8032" d="M545.189 179.383h2.513l33.406-16.575h-4.716l-31.203 16.575ZM475.4 156.973c.274.735.187 1.761-.193 2.289-.38.529-.908.361-1.18-.374-.274-.735-.187-1.761.193-2.29.38-.528.909-.36 1.18.375ZM475.4 171.258c.274.735.187 1.761-.193 2.29-.38.528-.908.36-1.18-.375-.274-.735-.187-1.761.193-2.29.38-.528.909-.36 1.18.375Z"></path><path fill="#F1A34F" d="m397.085 108.411-32.45 13.973 31.204 16.575 74.675-2.595v-23.312l-73.429-4.641Z"></path><path fill="#E89746" d="M397.085 108.411h-4.713l-32.45 13.973h4.713l32.45-13.973Z"></path><path fill="#CE8032" d="M395.839 138.959h-2.513l-33.404-16.575h4.713l31.204 16.575ZM465.628 116.549c-.274.735-.188 1.761.193 2.29.38.528.908.36 1.179-.375s.187-1.761-.193-2.29c-.38-.528-.908-.36-1.179.375ZM465.628 130.834c-.274.735-.188 1.761.193 2.29.38.528.908.36 1.179-.375s.187-1.761-.193-2.289c-.38-.529-.908-.361-1.179.374Z"></path><path fill="#E89746" d="M423.894 186.872h-2.689l-22.054 14.123h3.978l20.765-14.123Z"></path><path fill="#CE8032" d="M421.96 217.383h-3.623l-19.186-16.388h3.978l18.831 16.388Z"></path><path fill="#F1A34F" d="M483.584 313.174v27.772h-27.972v-27.881c0-5.174 3.928-9.426 8.962-9.946.341-.034.688-.054 1.037-.054h7.863c5.582 0 10.108 4.527 10.108 10.109h.002Z"></path><path fill="#E58638" d="M473.633 313.174v27.771h-18.021v-27.88c0-5.175 3.928-9.427 8.962-9.947 5.09.526 9.059 4.828 9.059 10.056ZM470.899 79.004v-.97h-2.471v.017a2.815 2.815 0 0 0-1.747.816c-.567.554-.852 1.239-.852 2.05 0 .81.291 1.459.872 2.029.581.567 1.263.853 2.049.853h2.149v-.968c.459-.528.691-1.165.691-1.912 0-.746-.232-1.384-.691-1.912v-.003ZM475.646 55.398c-1.758-1.487-3.95-2.231-6.572-2.231a10.39 10.39 0 0 0-4.785 1.157c-1.515.772-2.692 1.86-3.531 3.266-.514.866-.771 1.73-.771 2.597 0 .676.209 1.238.629 1.683.419.447.953.668 1.601.668h2.15s-.025-.808-.028-1.359l1.487-2.007c.783-.783 1.825-1.177 3.125-1.177 1.107 0 2.035.305 2.779.914.743.61 1.115 1.468 1.115 2.575 0 1.272-.391 2.259-1.177 2.96-.567.515-1.54.987-2.921 1.42-1.029.325-1.711.658-2.049.996-.338.338-.508.844-.508 1.52v4.057c0 .81.215 1.487.648 2.03.433.542 1.04.81 1.825.81h2.15v-1.23c.098-.193.182-.4.243-.637.106-.433.162-1.54.162-3.327 2.217-.433 3.969-1.386 5.252-2.86 1.283-1.473 1.926-3.332 1.926-5.58 0-2.569-.919-4.652-2.759-6.248l.009.003Z"></path><path fill="#F1A34F" d="M480.554 61.646c0 2.245-.643 4.104-1.926 5.58-1.285 1.474-3.035 2.427-5.252 2.86 0 1.787-.053 2.896-.162 3.327-.324 1.244-1.124 1.867-2.393 1.867-.785 0-1.392-.27-1.825-.81-.433-.54-.649-1.216-.649-2.03v-4.056c0-.677.168-1.183.509-1.521.338-.338 1.02-.668 2.049-.995 1.378-.434 2.354-.906 2.921-1.42.786-.702 1.177-1.692 1.177-2.961 0-1.11-.372-1.968-1.115-2.575-.744-.61-1.672-.914-2.779-.914-1.297 0-2.339.391-3.125 1.177l-1.621 2.192c-.568.785-1.23 1.177-1.988 1.177-.648 0-1.182-.224-1.601-.668-.42-.448-.629-1.007-.629-1.683 0-.864.257-1.73.771-2.597.839-1.407 2.016-2.494 3.531-3.266a10.399 10.399 0 0 1 4.785-1.157c2.622 0 4.814.743 6.572 2.23 1.839 1.597 2.759 3.68 2.759 6.249l-.009-.006Zm-6.814 19.27c0 .811-.272 1.496-.811 2.05-.542.553-1.216.83-2.029.83-.814 0-1.468-.285-2.049-.853-.582-.567-.873-1.244-.873-2.027a2.8 2.8 0 0 1 .853-2.049c.567-.553 1.258-.833 2.069-.833.81 0 1.487.277 2.029.833.539.554.811 1.236.811 2.05Z"></path><path fill="#82B378" d="m8.282 341.118 130.863.856s-12.101-24.33-42.128-19.125c-18.951 3.285-25.227-1.669-33.025-6.528 14.437-5.462 35.824-14.492 25.87-16.675-9.501-2.083-22.452 7.173-30.427 14.05a38.873 38.873 0 0 0-5.543-2.34c17.068-15.943 49.188-47.732 35-48.637-13.92-.889-31.536 30.558-39.92 47.34a46.215 46.215 0 0 0-3.043-.5c-4.344-.573-8.395.212-12.11 1.859-1.85-6.964-5.266-14.929-9.808-13.307-4.584 1.638.598 9.706 5.356 15.77-13.18 8.761-21.085 27.237-21.085 27.237Z"></path><path fill="#2E3552" d="M773.122 340.945H.878a.878.878 0 0 0-.878.878v.296c0 .485.393.878.878.878h772.244a.878.878 0 0 0 .878-.878v-.296a.878.878 0 0 0-.878-.878Z"></path></svg>