<svg xmlns="http://www.w3.org/2000/svg" fill="none" viewBox="0 0 609 450" class="icon"><path fill="#D3E6FF" fill-opacity=".3" d="M550.976 270.483c13.054-24.141 14.983-51.719 11.92-78.338-2.715-23.612-6.815-50.699-18.281-72.007-29.042-53.993-102.459-79.328-162.073-63.095-24.86 6.768-42.301 22.472-62.268 37.405-14.756 11.043-30.956 21.83-50.023 24.035-45.675 5.288-97.657-37.767-140.972-33.99-43.314 3.776-77.183 42.299-78.756 75.535-1.573 33.235 31.501 67.226 28.355 89.887-3.154 22.66-23.628 83.089 57.488 85.355 81.116 2.266 123.644-43.055 155.145-33.236 31.501 9.82 100.803 38.523 159.086 30.97 38.02-4.925 75.193-23.575 96.03-55.247a98.582 98.582 0 0 0 4.349-7.266v-.008Z"></path><path fill="#D3E6FF" fill-opacity=".3" d="M550.976 270.483c13.054-24.141 14.983-51.719 11.92-78.338-2.715-23.612-6.815-50.699-18.281-72.007-29.042-53.993-102.459-79.328-162.073-63.095-24.86 6.768-42.301 22.472-62.268 37.405-14.756 11.043-30.956 21.83-50.023 24.035-45.675 5.288-97.657-37.767-140.972-33.99-43.314 3.776-77.183 42.299-78.756 75.535-1.573 33.235 31.501 67.226 28.355 89.887-3.154 22.66-23.628 83.089 57.488 85.355 81.116 2.266 123.644-43.055 155.145-33.236 31.501 9.82 100.803 38.523 159.086 30.97 38.02-4.925 75.193-23.575 96.03-55.247a98.582 98.582 0 0 0 4.349-7.266v-.008Z" opacity=".8"></path><path stroke="#A6B1B9" stroke-linecap="round" stroke-miterlimit="10" d="M255.313 25.643s-2.465-6.572-8.228-7.803c-5.756-1.231-8.025 2.259-9.258 5.136-1.233 2.878-4.939.62-8.025.204-3.085-.415-4.734 2.674-5.347 4.933-.62 2.258-4.523-1.027-8.024 1.027-3.495 2.055-4.115 4.729-4.939 5.34-.825.612-3.086-.407-4.319 1.232l-1.233 1.646h64.379s2.057-4.728-1.853-8.218-10.695 1.85-13.168-3.49l.015-.007ZM433.035 31.723s-4.326-11.534-14.431-13.694c-10.104-2.16-14.075 3.965-16.238 9.011-2.163 5.046-8.66 1.08-14.075.363-5.416-.718-8.297 4.683-9.379 8.648-1.081 3.966-7.941-1.805-14.075 1.806-6.134 3.603-7.215 8.286-8.66 9.366-1.445 1.08-5.415-.717-7.578 2.16l-2.163 2.886H459.37s3.608-8.286-3.245-14.412c-6.852-6.126-18.764 3.24-23.09-6.126v-.008ZM144.194 51.272s-1.702-4.532-5.672-5.378c-3.971-.846-5.529 1.556-6.384 3.542-.847 1.98-3.403.423-5.528.144-2.126-.28-3.26 1.843-3.684 3.399-.423 1.556-3.116-.71-5.529.71-2.412 1.413-2.836 3.256-3.403 3.679-.567.423-2.125-.28-2.98.846l-.847 1.133h44.374s1.414-3.256-1.279-5.666c-2.692-2.41-7.374 1.277-9.075-2.41h.007ZM467.182 70.579s-1.701-4.532-5.672-5.378c-3.971-.846-5.529 1.556-6.383 3.542-.848 1.98-3.404.423-5.529.144-2.125-.287-3.26 1.843-3.683 3.399-.424 1.556-3.117-.71-5.529.71-2.413 1.412-2.836 3.255-3.404 3.678-.567.423-2.125-.279-2.98.846l-.847 1.133h44.374s1.414-3.255-1.278-5.665c-2.693-2.41-7.374 1.277-9.076-2.41h.007Z"></path><path stroke="#A6B1B9" stroke-linecap="round" stroke-miterlimit="10" d="M81.97 222.065h22.373v-67.733h19.702v-31.649h37.279v62.74h9.591V63.743h41.008v53.388h25.563V71.047h43.67V174.87h59.652v-62.037h38.958v62.596h23.885v7.214h14.907V134.24h10.12v48.403h6.928v-51.077h11.186v48.856h13.84V98.255h25.035v53.857h14.378V71.606h35.154v162.673"></path><path stroke="#A6B1B9" stroke-linecap="round" stroke-miterlimit="10" d="M114.454 165.436h-4.258v5.552h4.258v-5.552ZM121.382 165.436h-4.258v5.552h4.258v-5.552ZM128.303 165.436h-4.258v5.552h4.258v-5.552ZM135.231 165.436h-4.258v5.552h4.258v-5.552ZM142.151 165.436h-4.258v5.552h4.258v-5.552ZM149.072 165.436h-4.259v5.552h4.259v-5.552ZM181.564 124.352h-4.258v5.552h4.258v-5.552ZM188.484 124.352h-4.258v5.552h4.258v-5.552ZM195.412 124.352h-4.258v5.552h4.258v-5.552ZM202.332 124.352h-4.258v5.552h4.258v-5.552ZM181.564 114.352h-4.258v5.551h4.258v-5.551ZM188.484 114.352h-4.258v5.551h4.258v-5.551ZM195.412 114.352h-4.258v5.551h4.258v-5.551ZM202.332 114.352h-4.258v5.551h4.258v-5.551ZM181.564 104.358h-4.258v5.552h4.258v-5.552ZM188.484 104.358h-4.258v5.552h4.258v-5.552ZM195.412 104.358h-4.258v5.552h4.258v-5.552ZM202.332 104.358h-4.258v5.552h4.258v-5.552ZM181.564 94.365h-4.258v5.552h4.258v-5.552ZM188.484 94.365h-4.258v5.552h4.258v-5.552ZM195.412 94.365h-4.258v5.552h4.258v-5.552ZM202.332 94.365h-4.258v5.552h4.258v-5.552ZM181.564 84.371h-4.258v5.552h4.258v-5.552ZM188.484 84.371h-4.258v5.552h4.258v-5.552ZM195.412 84.371h-4.258v5.552h4.258v-5.552ZM202.332 84.371h-4.258v5.552h4.258v-5.552ZM209.253 124.352h-4.258v5.552h4.258v-5.552ZM216.181 124.352h-4.258v5.552h4.258v-5.552ZM181.564 135.456h-4.258v5.552h4.258v-5.552ZM188.484 135.456h-4.258v5.552h4.258v-5.552ZM195.412 135.456h-4.258v5.552h4.258v-5.552ZM202.332 135.456h-4.258v5.552h4.258v-5.552ZM209.253 135.456h-4.258v5.552h4.258v-5.552ZM216.181 135.456h-4.258v5.552h4.258v-5.552ZM114.454 177.091h-4.258v5.552h4.258v-5.552ZM121.382 177.091h-4.258v5.552h4.258v-5.552ZM128.303 177.091h-4.258v5.552h4.258v-5.552ZM135.231 177.091h-4.258v5.552h4.258v-5.552ZM142.151 177.091h-4.258v5.552h4.258v-5.552ZM149.072 177.091h-4.259v5.552h4.259v-5.552ZM114.454 188.754h-4.258v5.552h4.258v-5.552ZM121.382 188.754h-4.258v5.552h4.258v-5.552ZM128.303 188.754h-4.258v5.552h4.258v-5.552ZM135.231 188.754h-4.258v5.552h4.258v-5.552ZM142.151 188.754h-4.258v5.552h4.258v-5.552ZM149.072 188.754h-4.259v5.552h4.259v-5.552ZM114.454 200.409h-4.258v5.552h4.258v-5.552ZM121.382 200.409h-4.258v5.552h4.258v-5.552ZM128.303 200.409h-4.258v5.552h4.258v-5.552ZM135.231 200.409h-4.258v5.552h4.258v-5.552ZM142.151 200.409h-4.258v5.552h4.258v-5.552ZM149.072 200.409h-4.259v5.552h4.259v-5.552ZM114.454 212.072h-4.258v5.551h4.258v-5.551ZM121.382 212.072h-4.258v5.551h4.258v-5.551ZM128.303 212.072h-4.258v5.551h4.258v-5.551ZM135.231 212.072h-4.258v5.551h4.258v-5.551ZM142.151 212.072h-4.258v5.551h4.258v-5.551ZM149.072 212.072h-4.259v5.551h4.259v-5.551ZM517.621 83.261h-4.258v5.552h4.258v-5.552ZM524.542 83.261h-4.258v5.552h4.258v-5.552ZM531.462 83.261h-4.258v5.552h4.258v-5.552ZM517.621 97.144h-4.258v5.552h4.258v-5.552ZM524.542 97.144h-4.258v5.552h4.258v-5.552ZM531.462 97.144h-4.258v5.552h4.258v-5.552ZM517.621 111.02h-4.258v5.552h4.258v-5.552ZM524.542 111.02h-4.258v5.552h4.258v-5.552ZM531.462 111.02h-4.258v5.552h4.258v-5.552ZM517.621 124.904h-4.258v5.552h4.258v-5.552ZM524.542 124.904h-4.258v5.552h4.258v-5.552ZM531.462 124.904h-4.258v5.552h4.258v-5.552ZM517.621 138.787h-4.258v5.552h4.258v-5.552ZM524.542 138.787h-4.258v5.552h4.258v-5.552ZM531.462 138.787h-4.258v5.552h4.258v-5.552ZM517.621 152.663h-4.258v5.552h4.258v-5.552ZM524.542 152.663h-4.258v5.552h4.258v-5.552ZM531.462 152.663h-4.258v5.552h4.258v-5.552ZM517.621 166.546h-4.258v5.552h4.258v-5.552ZM524.542 166.546h-4.258v5.552h4.258v-5.552ZM531.462 166.546h-4.258v5.552h4.258v-5.552ZM517.621 180.422h-4.258v5.552h4.258v-5.552ZM524.542 180.422h-4.258v5.552h4.258v-5.552ZM531.462 180.422h-4.258v5.552h4.258v-5.552ZM517.621 194.306h-4.258v5.552h4.258v-5.552ZM524.542 194.306h-4.258v5.552h4.258v-5.552ZM472.287 111.02h-4.258v5.552h4.258v-5.552ZM479.215 111.02h-4.258v5.552h4.258v-5.552ZM472.287 124.904h-4.258v5.552h4.258v-5.552ZM479.215 124.904h-4.258v5.552h4.258v-5.552ZM472.287 138.787h-4.258v5.552h4.258v-5.552ZM479.215 138.787h-4.258v5.552h4.258v-5.552ZM472.287 152.663h-4.258v5.552h4.258v-5.552ZM479.215 152.663h-4.258v5.552h4.258v-5.552ZM472.287 166.546h-4.258v5.552h4.258v-5.552ZM479.215 166.546h-4.258v5.552h4.258v-5.552ZM472.287 180.422h-4.258v5.552h4.258v-5.552ZM479.215 180.422h-4.258v5.552h4.258v-5.552ZM472.287 194.306h-4.258v5.552h4.258v-5.552ZM479.215 194.306h-4.258v5.552h4.258v-5.552ZM350.27 124.904h-4.258v5.552h4.258v-5.552ZM357.19 124.904h-4.258v5.552h4.258v-5.552ZM350.27 138.787h-4.258v5.552h4.258v-5.552ZM357.19 138.787h-4.258v5.552h4.258v-5.552ZM350.27 152.663h-4.258v5.552h4.258v-5.552ZM357.19 152.663h-4.258v5.552h4.258v-5.552ZM350.27 166.546h-4.258v5.552h4.258v-5.552ZM357.19 166.546h-4.258v5.552h4.258v-5.552ZM350.27 180.422h-4.258v5.552h4.258v-5.552ZM357.19 180.422h-4.258v5.552h4.258v-5.552ZM350.27 194.306h-4.258v5.552h4.258v-5.552ZM357.19 194.306h-4.258v5.552h4.258v-5.552ZM365.949 124.904h-4.259v5.552h4.259v-5.552ZM372.868 124.904h-4.258v5.552h4.258v-5.552ZM365.949 138.787h-4.259v5.552h4.259v-5.552ZM372.868 138.787h-4.258v5.552h4.258v-5.552ZM365.949 152.663h-4.259v5.552h4.259v-5.552ZM372.868 152.663h-4.258v5.552h4.258v-5.552ZM365.949 166.546h-4.259v5.552h4.259v-5.552ZM372.868 166.546h-4.258v5.552h4.258v-5.552ZM365.949 180.422h-4.259v5.552h4.259v-5.552ZM372.868 180.422h-4.258v5.552h4.258v-5.552ZM365.949 194.306h-4.259v5.552h4.259v-5.552ZM372.868 194.306h-4.258v5.552h4.258v-5.552ZM257.113 83.261h-4.259v5.552h4.259v-5.552ZM264.041 83.261h-4.258v5.552h4.258v-5.552ZM257.113 97.144h-4.259v5.552h4.259v-5.552ZM264.041 97.144h-4.258v5.552h4.258v-5.552ZM257.113 111.02h-4.259v5.552h4.259v-5.552ZM264.041 111.02h-4.258v5.552h4.258v-5.552ZM257.113 124.904h-4.259v5.552h4.259v-5.552ZM264.041 124.904h-4.258v5.552h4.258v-5.552ZM257.113 138.787h-4.259v5.552h4.259v-5.552ZM264.041 138.787h-4.258v5.552h4.258v-5.552ZM257.113 152.663h-4.259v5.552h4.259v-5.552ZM264.041 152.663h-4.258v5.552h4.258v-5.552ZM257.113 166.546h-4.259v5.552h4.259v-5.552ZM264.041 166.546h-4.258v5.552h4.258v-5.552ZM257.113 180.422h-4.259v5.552h4.259v-5.552ZM264.041 180.422h-4.258v5.552h4.258v-5.552ZM257.113 194.306h-4.259v5.552h4.259v-5.552ZM264.041 194.306h-4.258v5.552h4.258v-5.552ZM531.462 194.306h-4.258v5.552h4.258v-5.552Z"></path><path fill="#7879F1" d="M516.571 284.314c0 21.187-11.897 22.789-26.578 22.789-14.68 0-26.577-1.602-26.577-22.789 0-21.188 11.897-65.482 26.577-65.482 14.681 0 26.578 44.294 26.578 65.482Z"></path><path fill="#A3B3F9" d="M516.571 284.314c0 21.187-11.897 22.789-26.578 22.789-14.68 0-26.577-1.602-26.577-22.789 0-21.188 11.897-65.482 26.577-65.482 14.681 0 26.578 44.294 26.578 65.482Z" opacity=".58"></path><path fill="#263238" d="m498.978 293.929-4.394.302 11.451-7.704-8.176 4.124 1.119-3.225-3.736 4.547-4.387 2.213-.348-15.22 2.322-5.628-2.375 3.165-.204-8.822 7.283-9.699-7.336 7.501-.439-19.42-.393 12.433-4.674-5.205 4.598 7.592-.62 19.684-4.069-2.659-3.706-6.556 1.483 5.114-7.269-4.752 13.471 11.603-2.043 64.62h5.552l-1.172-51.236 1.278-.861 6.784-1.911Z"></path><path fill="#7879F1" d="M582.031 245.632c0 34.074-19.135 36.65-42.732 36.65-23.598 0-42.733-2.576-42.733-36.65s19.135-105.296 42.733-105.296c23.597 0 42.732 71.23 42.732 105.296Z"></path><path fill="#6E84F3" d="M582.031 245.632c0 34.074-19.135 36.65-42.732 36.65-23.598 0-42.733-2.576-42.733-36.65s19.135-105.296 42.733-105.296c23.597 0 42.732 71.23 42.732 105.296Z" opacity=".31"></path><path fill="#263238" d="m553.745 261.094-7.065.484 18.409-12.396-13.152 6.64 1.808-5.19-6.013 7.312-7.049 3.558-.56-24.466 3.736-9.057-3.827 5.091-.325-14.185 11.708-15.591-11.791 12.056-.711-31.226-.635 19.986-7.511-8.369 7.39 12.206-.999 31.657-6.534-4.267-5.96-10.553 2.39 8.218-11.7-7.636 21.668 18.665-3.282 103.906h8.924l-1.89-82.386 2.064-1.383 10.907-3.074Z"></path><path fill="#7879F1" d="M111.922 284.314c0 21.187 11.897 22.789 26.577 22.789 14.68 0 26.577-1.602 26.577-22.789 0-21.188-11.897-65.482-26.577-65.482-14.68 0-26.577 44.294-26.577 65.482Z"></path><path fill="#C1DCFF" d="M111.922 284.314c0 21.187 11.897 22.789 26.577 22.789 14.68 0 26.577-1.602 26.577-22.789 0-21.188-11.897-65.482-26.577-65.482-14.68 0-26.577 44.294-26.577 65.482Z" opacity=".58"></path><path fill="#263238" d="m129.514 293.929 4.394.302-11.451-7.704 8.176 4.124-1.119-3.225 3.736 4.547 4.386 2.213.348-15.22-2.322-5.628 2.375 3.165.205-8.822-7.284-9.699 7.329 7.501.446-19.42.393 12.433 4.675-5.205-4.599 7.592.62 19.684 4.069-2.659 3.706-6.556-1.49 5.114 7.276-4.752-13.47 11.603 2.035 64.62h-5.544l1.172-51.236-1.278-.861-6.784-1.911Z"></path><path fill="#7879F1" d="M46.749 245.972c0 33.961 19.067 36.521 42.589 36.521 23.521 0 42.588-2.56 42.588-36.521s-19.067-104.949-42.588-104.949c-23.522 0-42.589 70.988-42.589 104.949Z"></path><path fill="#579DF7" d="M46.749 245.972c0 33.961 19.067 36.521 42.589 36.521 23.521 0 42.588-2.56 42.588-36.521s-19.067-104.949-42.588-104.949c-23.522 0-42.589 70.988-42.589 104.949Z" opacity=".31"></path><path fill="#263238" d="m74.937 261.381 7.041.484-18.348-12.35 13.107 6.616-1.8-5.166 5.99 7.281 7.026 3.543.56-24.383-3.721-9.026 3.812 5.076.325-14.14-11.67-15.538 11.746 12.01.718-31.121.628 19.919 7.487-8.339-7.366 12.169.99 31.551 6.52-4.253 5.937-10.514-2.375 8.188 11.655-7.614-21.593 18.604 3.268 103.559h-8.887l1.876-82.107-2.05-1.382-10.876-3.067Z"></path><path fill="#263238" stroke="#263238" stroke-linecap="round" stroke-linejoin="round" d="M325.675 152.927h-23.303a3.017 3.017 0 0 0-3.018 3.014v5.764a3.017 3.017 0 0 0 3.018 3.014h23.303a3.016 3.016 0 0 0 3.017-3.014v-5.764a3.016 3.016 0 0 0-3.017-3.014Z"></path><path fill="#263238" stroke="#263238" stroke-linecap="round" stroke-linejoin="round" d="M314.376 147.209h-2.859v8.936h2.859v-8.936Z"></path><path fill="#263238" stroke="#263238" stroke-linecap="round" stroke-linejoin="round" d="m414.868 211.263-10.263-7.946-14.295-52.769-23.794-2.931 10.294 38.191H256.471l10.293-38.191-23.794 2.931-14.506 53.54-10.838 7.175h197.242Zm-45.425-60.722 17.933 1.299 11.465 46.998-16.843-13.045h-.907l-11.648-35.26v.008Zm-123.546 1.299 17.933-1.299-12.555 37.994.431.143-17.638 11.686 11.837-48.524h-.008Z"></path><path fill="#787878" stroke="#263238" stroke-linecap="round" stroke-linejoin="round" d="m292.578 213.673-1.77-25.131c-.416-5.967-5.392-10.597-11.383-10.597h-23.128c-5.99 0-10.967 4.63-11.383 10.597l-1.769 25.131h49.433ZM383.768 213.673l-1.769-25.131c-.416-5.967-5.393-10.597-11.383-10.597h-23.129c-5.99 0-10.966 4.63-11.382 10.597l-1.77 25.131h49.433Z"></path><path fill="#263238" stroke="#263238" stroke-miterlimit="10" d="M262.022 159.371s-4.432-3.165-7.177-1.685c-2.746 1.473-8.448 17.509-9.295 21.09-.847 3.58 4.432 6.541 8.024 7.591 3.593 1.057 10.77-1.269 12.457-2.953 1.686-1.685-4.016-24.043-4.016-24.043h.007Z"></path><path fill="#B2B2B2" stroke="#263238" stroke-miterlimit="10" d="M291.981 214.338c-.273-.854-.432-1.383-.432-1.383s-3.078-16.459-3.842-17.773c-.771-1.314-10.324-5.597-10.324-5.597l-16.586-.876s-12.411 6.035-12.524 6.805c-.061.408-2.436 9.956-4.652 18.824h48.367-.007Z"></path><path stroke="#263238" stroke-miterlimit="10" d="M253.053 202.018c.975 2.817 1.633 4.796 2.034 7.342M285.597 203.166c-.53 1.813-1.868 4.215-1.468 6.149"></path><path fill="#263238" stroke="#263238" stroke-miterlimit="10" d="M270.017 153.728s-9.87 2.742-12.616 8.037c-2.745 5.295-2.927 6.481-1.369 9.042 1.551 2.553 5.393 7.123 8.963 8.951 3.562 1.828 14.899-.824 14.899-.824s3.472-1.548 4.568-4.29c1.097-2.742 3.563-6.572 1.921-10.681-1.648-4.109-8.962-9.767-11.246-10.409-2.284-.642-5.12.182-5.12.182v-.008Z"></path><path fill="#fff" stroke="#263238" stroke-miterlimit="10" d="M277.202 160.655s-4.924 3.029-7.45 4.789c-2.526 1.767-5.559 2.772-5.559 2.772s-2.269 1.012-1.77 3.656c.507 2.651 1.46 11.798 1.46 11.798l-1.717 3.717 7.321 8.067 5.809-7.569.628-3.913s5.301-3.278 5.43-4.033c.129-.756 1.641-11.852 1.513-12.985-.129-1.133-5.68-6.307-5.68-6.307l.015.008Z"></path><path stroke="#263238" stroke-linecap="round" stroke-linejoin="round" d="M278.064 168.427s-.272 2.463-.272 2.833c0 .37 2.193 2.281 1.369 3.014-.824.732-2.466 1.186-2.466 1.186M276.967 177.741s-.915 1.004-2.927-1.095"></path><path fill="#263238" stroke="#263238" stroke-linecap="round" stroke-linejoin="round" d="M275.946 183.98s-2.087-.219-2.904-.763c-.824-.551-3.199-2.372-3.199-2.372l4.659 8.037.809-.989.628-3.913h.007Z"></path><path fill="#fff" d="M265.176 170.618s-1.739-5.205-3.751-2.281c-2.012 2.923 1.187 7.032 2.745 6.941"></path><path stroke="#263238" stroke-miterlimit="10" d="M265.176 170.618s-1.739-5.205-3.751-2.281c-2.012 2.923 1.187 7.032 2.745 6.941"></path><path fill="#263238" d="M273.542 171.441c.43 0 .779-.49.779-1.095s-.349-1.095-.779-1.095c-.431 0-.779.49-.779 1.095s.348 1.095.779 1.095ZM280.393 171.441c.431 0 .779-.49.779-1.095s-.348-1.095-.779-1.095c-.43 0-.779.49-.779 1.095s.349 1.095.779 1.095Z"></path><path stroke="#263238" stroke-linecap="round" stroke-linejoin="round" d="M271.484 167.966s1.649-1.646 3.842-.362M278.889 167.423s2.465-1.005 3.017.914"></path><path fill="#fff" stroke="#263238" stroke-miterlimit="10" d="m262.158 184.584 6.399 8.128-4.387 4.751-4.939-8.86 2.927-4.019Z"></path><path fill="#263238" d="m241.587 153.26 29.784 60.096h-8.01l-24.006-58.261"></path><path stroke="#263238" stroke-linecap="round" stroke-linejoin="round" d="m241.587 153.26 29.784 60.096h-8.01l-24.006-58.261"></path><path fill="#fff" stroke="#263238" stroke-miterlimit="10" d="m268.557 192.712.946 2.749-2.224-1.102 1.278-1.647ZM270.841 191.345l3.108 6.118 4.758-8.037-3.2-2.553-4.666 4.472Z"></path><path fill="#fff" stroke="#263238" stroke-miterlimit="10" d="m270.842 191.345-1.339 4.116 2.254-2.198-.915-1.918Z"></path><path fill="#fff" stroke="#263238" stroke-linecap="round" stroke-linejoin="round" d="M399.529 219.112c.522-1.156 3.161-7.184 2.216-8.778-5.385-9.041-6.966-3.051-8.887-7.576-3.237-7.599-5.967-12.894-7.132-13.687-2.246-1.533-17.025-4.366-17.025-4.366l-18.091-.476s-15.611 6.376-16.67 7.796c-.453.611-3.811 4.607-6.148 10.242-.235.574-5.635 4.88-5.87 5.454-2.548 6.171-.181 10.446.416 11.383h77.199l-.008.008Z"></path><path stroke="#263238" stroke-linecap="round" stroke-linejoin="round" d="M339.454 198.445c.182 6.232.182 12.184.439 18.332M339.363 194.691l.046 1.873M380.976 197.841c-.363 4.789-.718 9.585-1.081 14.374-.114 1.526-.227 3.059-.348 4.585M381.233 194.344l-.09 1.269"></path><path fill="#92E3A9" stroke="#263238" stroke-linecap="round" stroke-linejoin="round" d="M355.527 204.654c.181 3.324-.182 10.046-.462 14.45h12.087a3287.962 3287.962 0 0 1-1.702-15.583c-.28-2.734-3.963-10.567-3.963-10.567l2.359-3.112-4.25-4.434-2.738 4.245 2.171 3.588s-3.774 6.224-3.495 11.413h-.007Z"></path><path fill="#fff" stroke="#263238" stroke-linecap="round" stroke-linejoin="round" d="m352.978 177.303-.756 5.657 8.024 4.434 7.178-4.335-.28-4.155-14.166-1.601Z"></path><path fill="#263238" stroke="#263238" stroke-linecap="round" stroke-linejoin="round" d="m352.222 182.96 2.692 1.496 4.568-1.911-5.09-5.084-1.414-.158-.756 5.657Z"></path><path fill="#fff" stroke="#263238" stroke-linecap="round" stroke-linejoin="round" d="M352.41 154.922s-2.67 1.903-2.859 4.668c-.189 2.764 1.24 15.522 2.768 18.377 1.528 2.856 3.336 5.144 7.057 5.809 3.721.665 8.108-3.044 8.584-4.759.477-1.714 2.292-10.567 2.292-13.906 0-3.338.378-7.145-2.67-9.902-3.048-2.765-8.01-3.331-10.392-2.856-2.382.476-4.765 2.569-4.765 2.569h-.015Z"></path><path fill="#263238" stroke="#263238" stroke-linecap="round" stroke-linejoin="round" d="M367.574 155.209c-3.048-2.765-8.009-3.331-10.392-2.856-2.382.476-4.764 2.569-4.764 2.569s-2.67 1.903-2.859 4.668c-.091 1.344.196 5.061.695 8.852.197.031.447-.06.447-.755 0-1.141-.666-1.813.189-2.765.854-.951 2.193-2.288 2.957-3.519.764-1.239.575-3.143.575-3.143s1.717 1.428 5.15 1.813c3.434.378 7.155.378 7.722.476.575.098-.189.665.666 1.813.855 1.14 1.24 1.714 1.331 2.289.083.491.522 3.248.635 4.003.19-1.397.318-2.651.318-3.52 0-3.331.378-7.146-2.67-9.903v-.022Z"></path><path stroke="#263238" stroke-linecap="round" stroke-linejoin="round" d="M358.227 172.823s1.618 1.05 2.669.854c1.052-.189 2.095-.952 2.095-.952M363.09 165.678s2.193-1.617 4.387.189M358.514 165.874s-2.572-1.714-4.387.378"></path><path fill="#263238" d="M357.084 167.679c0 .476-.235.854-.522.854-.287 0-.522-.385-.522-.854 0-.468.235-.853.522-.853.287 0 .522.385.522.853ZM365.049 167.679c0 .476-.235.854-.522.854-.288 0-.522-.385-.522-.854 0-.468.234-.853.522-.853.287 0 .522.385.522.853Z"></path><path stroke="#263238" stroke-linecap="round" stroke-linejoin="round" d="M356.51 175.966s3.721 1.616 7.434-.098"></path><path fill="#fff" stroke="#263238" stroke-linecap="round" stroke-linejoin="round" d="M350.126 166.728s-1.528-1.239-2.095.951c-.575 2.191 2.957 5.046 2.957 5.046l-.854-5.997h-.008ZM370.146 167.113s.855-1.428 1.619.378c.763 1.813-2.67 5.808-2.67 5.808l1.051-6.186Z"></path><path fill="#263238" stroke="#263238" stroke-linecap="round" stroke-linejoin="round" d="M360.669 174.508s-4.538-.642-5.491.884c-.824 1.314-.363 4.985.394 6.753 1.013.778 2.238 1.352 3.804 1.631 1.846.332 3.865-.423 5.476-1.473.378-.536.915-1.888.718-5.197-.158-2.674-1.316-2.938-4.901-2.598Zm3.411 6.186s-1.482 1.133-3.615 1.073c-.771-.023-3.237-.068-4.092-.937-.854-.868-1.542-4.139-.688-5.204.855-1.065 4.931-.62 4.931-.62 3.222-.234 4.259-.052 4.402 1.821.265 3.452-.945 3.867-.945 3.867h.007Z"></path><path fill="#263238" stroke="#263238" stroke-linecap="round" stroke-linejoin="round" d="M361.735 180.211c0 .385-.552 1.556-1.233 1.556-.68 0-1.232-1.171-1.232-1.556s.552-.703 1.232-.703c.681 0 1.233.31 1.233.703Z"></path><path fill="#fff" stroke="#263238" stroke-linecap="round" stroke-linejoin="round" d="m360.246 187.394-6.89 6.413-3.683-9.714 2.36-1.888 8.213 5.189Z"></path><path fill="#fff" stroke="#263238" stroke-linecap="round" stroke-linejoin="round" d="m360.246 187.394 5.574 7.267 3.684-9.623-2.08-1.979-7.178 4.335Z"></path><path fill="#263238" d="m390.256 153.26-44.048 60.096h8.009l38.263-58.261"></path><path stroke="#263238" stroke-linecap="round" stroke-linejoin="round" d="m390.256 153.26-44.048 60.096h8.009l38.263-58.261"></path><path fill="#fff" stroke="#263238" stroke-linecap="round" stroke-linejoin="round" d="M319.487 219.112h11.126c1.066-1.239 2.095-2.652 2.375-2.992.476-.589 1.77-2.719.945-5.665-.824-2.953-3.547-4.607-3.547-4.607l-2.957.589s-2.481-.824-4.372 0c-1.89.823-4.371 3.663-5.324 6.964-.757 2.644.454 4.608 1.754 5.711Z"></path><path stroke="#263238" stroke-linecap="round" stroke-linejoin="round" d="M326.559 206.996c-2.072 2.832-3.524 6.541-1.339 9.721"></path><path fill="#fff" stroke="#263238" stroke-linecap="round" stroke-linejoin="round" d="M343.44 202.924s1.959-.491 2.61-.083c.65.408 1.384 1.79 1.709 2.523.325.733-.166 1.382-1.225 1.549-1.059.166-2.443-1.224-2.443-1.224l-.651-2.772v.007Z"></path><path fill="#263238" stroke="#263238" stroke-linecap="round" stroke-linejoin="round" d="m383.888 207.336-1.573-2.025-16.359 10.25h-11.738l-16.246-9.238-1.354 1.466 7.987 11.323h30.117l9.166-11.776Z"></path><path fill="#263238" stroke="#263238" stroke-linecap="round" stroke-linejoin="round" d="M335.809 219.112c.718-12.819 11.345-22.993 24.361-22.993s23.635 10.174 24.361 22.993h3.895c-.726-14.964-13.092-26.876-28.249-26.876-15.156 0-27.53 11.912-28.248 26.876h3.895-.015Z"></path><path fill="#fff" stroke="#263238" stroke-linecap="round" stroke-linejoin="round" d="M332.761 200.968s-4.977 7.168-5.136 9.691c-.166 2.523.976 5.129 3.426 5.537 2.443.408 2.852-1.141 2.852-1.141s5.302 1.141 5.544 1.141.816-.242.975-.816c.167-.566.568-1.299.568-1.299s.733-.491 1.225-1.382c.491-.899.65-1.307.65-1.307s.9-1.307 1.059-1.873c.166-.567.166-1.632.166-1.632s.817-1.058.734-2.198c-.083-1.141-1.225-3.173-3.585-4.479-2.367-1.307-5.71-1.874-6.852-1.707-1.142.166-1.634 1.465-1.634 1.465h.008Z"></path><path stroke="#263238" stroke-linecap="round" stroke-linejoin="round" d="m337.39 204.042 6.701 3.845M335.861 203.166l.855.491M333.902 206.746l8.97 4.646M335.12 211.475l5.877 2.606M333.086 210.576l1.165.514"></path><path fill="#fff" stroke="#263238" stroke-linecap="round" stroke-linejoin="round" d="M390.226 219.112h11.126c1.301-1.103 2.511-3.067 1.755-5.711-.946-3.308-3.426-6.141-5.325-6.964-1.891-.824-4.371 0-4.371 0l-2.958-.589s-2.722 1.654-3.547 4.607c-.824 2.954.477 5.076.946 5.665.272.34 1.3 1.753 2.367 2.992h.007Z"></path><path stroke="#263238" stroke-linecap="round" stroke-linejoin="round" d="M396.323 215.365a6.38 6.38 0 0 1-.704 1.345M394.28 206.996c1.52 2.077 2.708 4.622 2.368 7.085"></path><path fill="#fff" stroke="#263238" stroke-linecap="round" stroke-linejoin="round" d="M377.399 202.924s-1.959-.491-2.609-.083c-.651.408-1.384 1.79-1.709 2.523-.326.733.166 1.382 1.225 1.549 1.059.166 2.443-1.224 2.443-1.224l.65-2.772v.007Z"></path><path fill="#fff" stroke="#263238" stroke-linecap="round" stroke-linejoin="round" d="M388.079 200.968s4.977 7.168 5.136 9.691c.166 2.523-.976 5.129-3.427 5.537-2.443.408-2.851-1.141-2.851-1.141s-5.302 1.141-5.544 1.141-.817-.242-.975-.816c-.167-.566-.568-1.299-.568-1.299s-.733-.491-1.225-1.382c-.492-.899-.65-1.307-.65-1.307s-.9-1.307-1.059-1.873c-.167-.567-.167-1.632-.167-1.632s-.816-1.058-.733-2.198c.083-1.141 1.225-3.173 3.585-4.479 2.367-1.307 5.71-1.874 6.852-1.707 1.142.166 1.634 1.465 1.634 1.465h-.008Z"></path><path stroke="#263238" stroke-linecap="round" stroke-linejoin="round" d="m383.45 204.042-6.701 3.845M384.985 203.166l-.862.491M386.937 206.746l-8.97 4.646M385.719 211.475l-5.876 2.606M387.754 210.576l-1.165.514"></path><path fill="#263238" stroke="#263238" stroke-linecap="round" stroke-linejoin="round" d="M410.89 268.731v47.708H224.138v-47.708h-35.109v69.726c0 5.409 4.387 9.797 9.81 9.797h15.497c5.415 0 9.809-4.381 9.809-9.797v-3.217h17.01l7.964-5.061h136.078l10.135 5.786h15.565v2.492c0 5.409 4.387 9.797 9.81 9.797h15.497c5.415 0 9.809-4.381 9.809-9.797v-69.726H410.89Z"></path><path fill="#1877F2" stroke="#263238" stroke-linecap="round" stroke-linejoin="round" d="M438.753 234.392c-1.301-2.598-10.785-12.493-12.699-14.472a3.74 3.74 0 0 1-.56-.771c-2.322-4.426-22.016-55.118-25.473-61.546-6.338-11.806-11.42-10.023-18.189-10.885-.197-.022-.394.031-.598.023l-51.392-2.598a249.742 249.742 0 0 0-25.405 0c-13.909.695-27.818 1.374-41.726 2.084-11.61.59-22.796-.158-29.172 11.376-3.532 6.39-23.151 57.105-25.473 61.546-.151.287-.34.544-.56.778-1.913 1.987-11.39 11.874-12.691 14.473-1.444 2.893-7.238 13.732-7.238 15.908 0 1.873 1.346 32.79 7.291 57.029 1.77 7.221 7.253 13.015 14.416 15.039.506.143.892.227 1.089.227h45.084c1.218 0 2.345-.65 2.95-1.7l10.664-18.4c.212-.363.484-.68.809-.945 1.679-1.352 7.352-5.34 15.77-5.34h62.253c8.418 0 14.09 3.988 15.769 5.34.326.265.598.582.81.945l10.664 18.4a3.414 3.414 0 0 0 2.949 1.7h45.085c.204 0 .582-.084 1.089-.227 7.17-2.024 12.646-7.81 14.416-15.032 5.944-24.239 7.291-55.156 7.291-57.029 0-2.168-5.794-13.015-7.238-15.908l.015-.015Zm-221.135-23.136c9.046-17.713 26.056-57.641 26.056-57.641 82.878-8.317 146.576-.363 146.576-.363l24.61 57.996c-56.096-5.423-197.242 0-197.242 0v.008Z"></path><path fill="#787878" stroke="#263238" stroke-linecap="round" stroke-linejoin="round" d="m257.431 322.587-2.534 5.786h123.055l-1.808-5.786-11.942-20.606s-4.705-5.423-16.284-5.786c-11.579-.362-62.253 0-62.253 0s-8.683-.725-16.284 5.786l-11.942 20.606h-.008Z"></path><path fill="#263238" stroke="#263238" stroke-linecap="round" stroke-linejoin="round" d="M267.929 253.911s9.771 17.35 12.668 20.243c2.897 2.893 6.149 2.893 10.135 3.256 3.978.362 58.63 0 58.63 0s4.342-.725 6.512-3.973c2.171-3.256 9.409-19.519 9.409-19.519h-97.354v-.007Z"></path><path fill="#787878" stroke="#263238" stroke-linecap="round" stroke-linejoin="round" d="M277.625 256.267s7.828 13.891 10.142 16.21c2.315 2.319 4.924 2.319 8.116 2.606 3.191.287 46.952 0 46.952 0s3.479-.581 5.219-3.187c1.74-2.606 7.533-15.629 7.533-15.629h-77.962Z"></path><path fill="#263238" stroke="#263238" stroke-linecap="round" stroke-linejoin="round" d="m357.44 316.439-2.163-5.975a9.394 9.394 0 0 0-9.016-6.186l-58.781.589a9.386 9.386 0 0 0-8.864 6.866l-1.468 4.698h80.292v.008ZM276.248 319.332l-1.8 5.786h86.131l-2.095-5.786h-82.236ZM425.729 219.572s1.807-14.095 5.067-14.095c3.26 0 17.736 3.974 18.099 6.867.363 2.893-2.897 6.141-5.794 6.866-2.896.725-9.045 1.442-9.045 1.442l-1.445 5.424-6.875-6.504h-.007ZM207.854 219.572s-1.807-14.095-5.067-14.095c-3.26 0-17.736 3.974-18.099 6.867-.363 2.893 2.897 6.141 5.793 6.866 2.897.725 9.046 1.442 9.046 1.442l1.445 5.424 6.875-6.504h.007Z"></path><path fill="#fff" stroke="#263238" stroke-linecap="round" stroke-linejoin="round" d="M249.837 252.105s6.512 6.867 8.683 19.519c0 0-30.76-1.443-42.71-6.141-11.942-4.699-13.394-5.061-13.75-7.229-.363-2.168.727-17.713 5.431-20.244 4.704-2.53 9.772-1.805 14.476 1.806 4.704 3.618 10.498 9.034 13.75 10.121 3.26 1.088 14.113 2.168 14.113 2.168h.007Z"></path><path fill="#fff" stroke="#263238" stroke-linecap="round" stroke-linejoin="round" d="M228.751 253.155c0 4.676-3.797 8.475-8.486 8.475s-8.486-3.791-8.486-8.475c0-4.683 3.797-8.475 8.486-8.475s8.486 3.792 8.486 8.475ZM243.9 263.745a3.935 3.935 0 0 1-3.94 3.936 3.935 3.935 0 1 1 0-7.871c2.178 0 3.94 1.76 3.94 3.935ZM384.767 252.105s-6.512 6.867-8.683 19.519c0 0 30.76-1.443 42.71-6.141 11.942-4.699 13.394-5.061 13.75-7.229.363-2.168-.726-17.713-5.431-20.244-4.704-2.53-9.771-1.805-14.476 1.806-4.704 3.618-10.498 9.034-13.75 10.121-3.26 1.088-14.113 2.168-14.113 2.168h-.007Z"></path><path fill="#fff" stroke="#263238" stroke-linecap="round" stroke-linejoin="round" d="M407.796 253.155c0 4.676 3.797 8.475 8.486 8.475s8.486-3.791 8.486-8.475c0-4.683-3.797-8.475-8.486-8.475s-8.486 3.792-8.486 8.475ZM392.647 263.745a3.936 3.936 0 0 0 3.941 3.936 3.935 3.935 0 1 0 0-7.871 3.936 3.936 0 0 0-3.941 3.935Z"></path><path fill="#263238" stroke="#263238" stroke-linecap="round" stroke-linejoin="round" d="M423.558 284.276s-33.656 6.503-35.108 7.591c-1.445 1.088-4.342 7.229-4.342 7.229l6.875-1.805s15.921.725 21.351-1.806c5.431-2.53 11.217-11.202 11.217-11.202l.007-.007ZM212.559 284.276s33.656 6.503 35.108 7.591c1.445 1.088 4.342 7.229 4.342 7.229l-6.875-1.805s-15.921.725-21.352-1.806c-5.43-2.53-11.216-11.202-11.216-11.202l-.007-.007Z"></path><path stroke="#263238" stroke-linecap="round" stroke-linejoin="round" d="m381.37 257.665-8.985-2.991h-7.102M253.823 257.242l5.99-3.422 8.116.091M406.844 217.238a46.633 46.633 0 0 1 2.775-1.465"></path><path stroke="#263238" stroke-linecap="round" stroke-linejoin="round" d="M367.008 268.557c5.665-12.433 18.605-37.156 36.704-49.355M363.823 276.05s.446-1.186 1.309-3.233M229.818 219.195a62.613 62.613 0 0 0-4.667-2.561M266.069 268.829c-3.706-11.059-13.365-33.953-33.059-47.572M267.952 275.197s-.265-1.149-.862-3.143"></path><path fill="#fff" d="M214.873 236.719s-3.85-9.404-3.85-14.964Z"></path><path stroke="#263238" stroke-linecap="round" stroke-linejoin="round" d="M214.873 236.719s-3.85-9.404-3.85-14.964"></path><path fill="#fff" d="M420.744 236.296s1.286-4.275 2.141-11.973Z"></path><path stroke="#263238" stroke-linecap="round" stroke-linejoin="round" d="M420.744 236.296s1.286-4.275 2.141-11.973M434.018 276.473l-2.571 33.341-47.513 2.138s-8.13-9.835-8.561-14.102c-.431-4.276 5.566-10.689 7.276-11.112 1.709-.423 31.674-6.413 31.674-6.413M201.584 276.473l2.571 33.341 47.513 2.138s8.13-9.835 8.561-14.102c.432-4.276-5.566-10.689-7.275-11.112-1.71-.423-31.675-6.413-31.675-6.413M281.014 261.97l34.927 2.788c1.482.12 2.972.12 4.462 0l32.189-2.501M283.312 265.619l32.621 2.606c1.482.12 2.972.12 4.462 0l31.062-2.41M285.649 269.275l30.291 2.417c1.483.121 2.973.121 4.463 0l29.489-2.289M217.626 211.263s141.145-5.423 197.242 0l-24.611-57.996s-63.697-7.954-146.576.363c0 0-17.009 39.928-26.055 57.641v-.008Z"></path><g filter="url(#a)"><path fill="#0052CC" d="m171.889 100.582 36.014 6.395c2.383.422 4.524-1.522 4.341-3.939l-1.532-20.554a4.859 4.859 0 0 0-4-4.425l-17.703-3.142-11.247 22.693a5.491 5.491 0 0 1-5.877 2.972h.004Z"></path><path fill="#044499" d="m171.891 100.587 33.184 5.891c2.009.359 3.809-1.279 3.66-3.312l-1.366-18.298a3.713 3.713 0 0 0-3.051-3.381l-17.057-3.027-9.494 19.155a5.49 5.49 0 0 1-5.876 2.972Z"></path><path fill="#FEFEFE" d="m171.619 75.67-6.553 37.036a5.905 5.905 0 0 0 4.779 6.851l18.481 3.283c3.209.571 6.269-1.573 6.839-4.788l6.553-37.036-30.099-5.346Z"></path><path fill="#D8DADB" d="M193.168 101.598c1.215-6.867-1.346-13.064-5.719-13.84-4.374-.777-8.905 4.16-10.119 11.028-1.215 6.867 1.346 13.064 5.719 13.84 4.374.777 8.905-4.161 10.119-11.028Z"></path><path fill="#D8DADB" d="m187.449 87.762-4.398 24.864 7.655 1.359 4.399-24.864-7.656-1.36Z"></path><path fill="#1FCE00" d="M198.811 89.816c.085-.722-.321-1.364-.907-1.433-.586-.069-1.13.461-1.214 1.184-.085.722.321 1.364.907 1.433.586.069 1.129-.461 1.214-1.184Z"></path><path fill="#FEFEFE" d="M200.566 102.907c1.215-6.868-1.228-13.043-5.456-13.794-4.228-.75-8.64 4.208-9.855 11.075-1.215 6.867 1.228 13.043 5.456 13.794 4.228.75 8.64-4.208 9.855-11.075Z"></path><path fill="#474747" d="M197.924 102.444c.853-4.82-.583-9.105-3.208-9.571-2.624-.466-5.442 3.064-6.295 7.884-.853 4.82.583 9.105 3.208 9.571 2.624.466 5.443-3.064 6.295-7.884Z"></path><path fill="#F5F5F5" d="m108.343 132.389 1.076 6.519 15.601-2.571 1.953-.324 3.162-.516-1.072-6.527-3.154.52-1.957.324-15.609 2.575Z"></path><path fill="#F5F5F5" d="m133.515 134.515 15.175-14.544-4.562-4.778-15.175 14.544 4.562 4.778Z"></path><path fill="#424242" d="M123.782 130.553a7.833 7.833 0 0 0 1.239 5.785l1.953-.324a6.082 6.082 0 0 1-1.473-5.154c.085-.482.226-.938.413-1.369l-1.957.324c-.073.243-.124.49-.171.738h-.004Z" opacity=".08"></path><path fill="#FEFEFE" d="M125.501 130.857a6.098 6.098 0 0 0 1.472 5.155 6.053 6.053 0 0 0 3.464 1.931 6.103 6.103 0 0 0 7.077-4.954 6.103 6.103 0 1 0-12.018-2.132h.005Z"></path><path fill="#E5E5E5" d="M131.505 134.402a2.483 2.483 0 0 0 2.481-2.485 2.483 2.483 0 0 0-2.481-2.486 2.484 2.484 0 0 0-2.481 2.486 2.483 2.483 0 0 0 2.481 2.485Z"></path><path fill="#AFAFAF" d="M106.799 151.689h5.362v-30.091h-5.362v30.091Z"></path><path fill="#F5F5F5" d="m115.378 148.462-3.217 3.223v-30.09l3.217 3.223v23.644ZM108.774 64.526l-6.293 35.578c-.711 4.016 1.966 7.853 5.974 8.565l61.39 10.902a5.907 5.907 0 0 1-4.779-6.852l6.554-37.035-62.846-11.157Z"></path><path fill="#E5E5E5" d="m98.609 90.68 71.76 12.744a5.421 5.421 0 0 0 5.805-2.938l.906-1.829a5.455 5.455 0 0 1-5.187 1.927l-72.65-12.9a3.701 3.701 0 0 1-2.979-2.891l-.349.767a3.66 3.66 0 0 0 2.694 5.12ZM124.335 99.755l39.861 7.078.468-2.645-39.861-7.078-.468 2.645ZM136.268 106.237l27.177 4.825.468-2.645-27.177-4.825-.468 2.645Z"></path><path fill="#FEFEFE" d="m152.683 123.613 8.451 1.501a2.242 2.242 0 0 0 2.604-1.825l.826-4.659-8.451-1.501-.826 4.66a2.242 2.242 0 0 1-2.604 1.824Z"></path><path fill="#F5F5F5" d="m127.597 112.071-.826 4.66a2.246 2.246 0 0 0 1.822 2.609l24.09 4.276a2.241 2.241 0 0 0 2.604-1.824l.826-4.66-28.516-5.065v.004Z"></path><path fill="#E5E5E5" d="m127.316 113.659 36.966 6.563.281-1.587-36.966-6.563-.281 1.587Z"></path><path fill="#0052CC" d="M96.261 84.793a3.701 3.701 0 0 0 2.979 2.89l72.65 12.901a5.459 5.459 0 0 0 5.187-1.927c.026-.022.047-.051.068-.077.239-.294.447-.618.617-.972l9.494-19.155 1.754-3.543-78.859-13.996a4.69 4.69 0 0 0-5.09 2.681l-.787 1.731-7.758 17.173a3.702 3.702 0 0 0-.255 2.298v-.004Z"></path></g><circle cx="579.56" cy="99.828" r="26.764" fill="#DCF5E8"></circle><path fill="#50CD8B" stroke="#50CD8B" stroke-linecap="round" stroke-linejoin="round" stroke-width="1.5" d="M589.24 96.124v11.104c0 3.417-2.039 4.556-4.556 4.556h-9.111c-2.517 0-4.555-1.139-4.555-4.556V96.124c0-3.701 2.038-4.555 4.555-4.555 0 .706.285 1.343.752 1.81a2.548 2.548 0 0 0 1.811.752h3.986a2.566 2.566 0 0 0 2.562-2.562c2.517 0 4.556.854 4.556 4.555Z"></path><path fill="#DCF5E8" stroke="#50CD8B" stroke-linecap="round" stroke-linejoin="round" stroke-width="1.5" d="M584.688 91.568a2.566 2.566 0 0 1-2.562 2.563h-3.986a2.549 2.549 0 0 1-1.811-.752 2.548 2.548 0 0 1-.752-1.81 2.566 2.566 0 0 1 2.563-2.563h3.986c.706 0 1.344.284 1.811.751.467.467.751 1.105.751 1.811Z"></path><path stroke="#DCF5E8" stroke-linecap="round" stroke-linejoin="round" stroke-width="1.5" d="M575.577 101.544h4.556M575.577 106.087h9.111"></path><circle cx="581.408" cy="309.317" r="26.764" fill="#FFEEF2"></circle><path fill="#FFA8BE" stroke="#FFA8BE" stroke-linecap="round" stroke-linejoin="round" stroke-miterlimit="10" stroke-width="1.5" d="M587.674 319.559h-11.389c-3.416 0-5.694-1.708-5.694-5.694v-7.973c0-3.986 2.278-5.694 5.694-5.694h11.389c3.417 0 5.695 1.708 5.695 5.694v7.973c0 3.986-2.278 5.694-5.695 5.694Z"></path><path stroke="#FFEEF2" stroke-linecap="round" stroke-linejoin="round" stroke-miterlimit="10" stroke-width="1.5" d="m587.675 306.471-3.565 2.848c-1.173.934-3.097.934-4.271 0l-3.553-2.848"></path><g filter="url(#b)"><circle cx="313.706" cy="383.236" r="26.764" fill="#FBF2D1"></circle><path fill="#EBBD18" stroke="#EBBD18" stroke-width="1.5" d="M303.164 379.801c2.244-9.863 16.856-9.851 19.088.012 1.31 5.785-2.289 10.682-5.444 13.712a5.915 5.915 0 0 1-8.211 0c-3.144-3.03-6.743-7.938-5.433-13.724Z"></path><path stroke="#FBF2D1" stroke-linecap="round" stroke-linejoin="round" stroke-width="1.5" d="m309.577 383.23 1.708 1.709 4.556-4.556"></path></g><circle cx="26.764" cy="302.48" r="26.764" fill="#E4E4FC"></circle><path fill="#7879F1" stroke="#7879F1" stroke-linecap="round" stroke-linejoin="round" stroke-miterlimit="10" stroke-width="1.5" d="M21.64 303.058c-4.555 0-4.555 2.039-4.555 4.556v1.138c0 3.144 0 5.695 5.694 5.695h9.112c4.555 0 5.694-2.551 5.694-5.695v-1.138c0-2.517 0-4.556-4.556-4.556-1.138 0-1.457.239-2.05.683l-1.161 1.23a3.415 3.415 0 0 1-4.977 0l-1.15-1.23c-.593-.444-.912-.683-2.05-.683Z"></path><path stroke="#7879F1" stroke-linecap="round" stroke-linejoin="round" stroke-miterlimit="10" stroke-width="1.5" d="M35.31 303.052v-6.833c0-2.517 0-4.556-4.556-4.556h-6.833c-4.556 0-4.556 2.039-4.556 4.556v6.833"></path><path stroke="#7879F1" stroke-linecap="round" stroke-linejoin="round" stroke-width="1.5" d="M25.682 299.895h3.792M24.737 296.491h5.695"></path><circle cx="37.018" cy="71.3" r="26.764" fill="#FEDADE"></circle><path stroke="#FC445A" stroke-linecap="round" stroke-linejoin="round" stroke-miterlimit="10" stroke-width="1.5" d="m39.864 76.618-4.51-4.51M39.822 72.157l-4.51 4.51"></path><path fill="#FC445A" stroke="#FC445A" stroke-linecap="round" stroke-linejoin="round" stroke-miterlimit="10" stroke-width="1.5" d="M35.314 65.046h4.556c2.277 0 2.277-1.139 2.277-2.278 0-2.278-1.139-2.278-2.277-2.278h-4.556c-1.139 0-2.278 0-2.278 2.278s1.139 2.278 2.278 2.278Z"></path><path stroke="#FC445A" stroke-linecap="round" stroke-linejoin="round" stroke-miterlimit="10" stroke-width="1.5" d="M42.145 62.786c3.792.205 5.694 1.606 5.694 6.81v6.834c0 4.555-1.139 6.833-6.833 6.833h-6.834c-5.694 0-6.833-2.278-6.833-6.833v-6.834c0-5.193 1.902-6.605 5.694-6.81"></path><circle cx="313.706" cy="26.764" r="26.764" fill="#CCDAFC"></circle><path stroke="#0144EF" stroke-linecap="round" stroke-linejoin="round" stroke-width="1.5" d="M314.874 37.416h-7.197c-3.599 0-4.795-2.392-4.795-4.795v-9.59c0-3.598 1.196-4.794 4.795-4.794h7.197c3.599 0 4.795 1.196 4.795 4.795v9.589c0 3.599-1.207 4.795-4.795 4.795Z"></path><path fill="#0144EF" d="m322.836 33.627-3.166-2.221v-7.187l3.166-2.22c1.549-1.082 2.825-.422 2.825 1.48v8.678c0 1.903-1.276 2.563-2.825 1.47Z"></path><path stroke="#0144EF" stroke-linecap="round" stroke-linejoin="round" stroke-width="1.5" d="M313.703 26.691a1.709 1.709 0 1 0 0-3.417 1.709 1.709 0 0 0 0 3.417Z"></path><defs><filter id="a" width="196.671" height="170.848" x="55.584" y="20.841" color-interpolation-filters="sRGB" filterUnits="userSpaceOnUse"><feFlood flood-opacity="0" result="BackgroundImageFix"></feFlood><feColorMatrix in="SourceAlpha" result="hardAlpha" values="0 0 0 0 0 0 0 0 0 0 0 0 0 0 0 0 0 0 127 0"></feColorMatrix><feMorphology in="SourceAlpha" operator="dilate" radius="10" result="effect1_dropShadow_49_370"></feMorphology><feOffset></feOffset><feGaussianBlur stdDeviation="15"></feGaussianBlur><feComposite in2="hardAlpha" operator="out"></feComposite><feColorMatrix values="0 0 0 0 0.570833 0 0 0 0 0.570833 0 0 0 0 0.570833 0 0 0 0.14 0"></feColorMatrix><feBlend in2="BackgroundImageFix" result="effect1_dropShadow_49_370"></feBlend><feBlend in="SourceGraphic" in2="effect1_dropShadow_49_370" result="shape"></feBlend></filter><filter id="b" width="133.528" height="133.528" x="246.942" y="316.472" color-interpolation-filters="sRGB" filterUnits="userSpaceOnUse"><feFlood flood-opacity="0" result="BackgroundImageFix"></feFlood><feColorMatrix in="SourceAlpha" result="hardAlpha" values="0 0 0 0 0 0 0 0 0 0 0 0 0 0 0 0 0 0 127 0"></feColorMatrix><feMorphology in="SourceAlpha" operator="dilate" radius="10" result="effect1_dropShadow_49_370"></feMorphology><feOffset></feOffset><feGaussianBlur stdDeviation="15"></feGaussianBlur><feComposite in2="hardAlpha" operator="out"></feComposite><feColorMatrix values="0 0 0 0 0.570833 0 0 0 0 0.570833 0 0 0 0 0.570833 0 0 0 0.14 0"></feColorMatrix><feBlend in2="BackgroundImageFix" result="effect1_dropShadow_49_370"></feBlend><feBlend in="SourceGraphic" in2="effect1_dropShadow_49_370" result="shape"></feBlend></filter></defs></svg>